<svg width="50" height="48" viewBox="0 0 50 48" fill="none" xmlns="http://www.w3.org/2000/svg">
<g filter="url(#filter0_f_20_617)">
<circle cx="23.6293" cy="24.855" r="4.71683" fill="#6B10FF"/>
</g>
<g filter="url(#filter1_f_20_617)">
<circle cx="32.6702" cy="17.5284" r="5.28935" fill="#00A3FF"/>
</g>
<path opacity="0.1" d="M42.8423 19.8534L42.6203 18.7601C41.989 16.2044 40.7004 13.8582 38.8823 11.9543L38.3219 11.3927C35.9092 9.14305 32.8312 7.73769 29.5511 7.38798L28.9835 7.34478C28.6607 7.32438 28.3319 7.31238 28.0091 7.31238C23.9711 7.31238 20.1311 8.96251 17.1995 11.9627C16.9691 12.2028 16.1603 13.176 16.1507 13.188C13.8213 16.2442 12.7418 20.0723 13.1315 23.8953V23.9349L13.2515 24.775C13.837 28.2254 15.6039 31.3649 18.2495 33.6557L18.7919 34.1045C20.6192 35.5316 22.7494 36.5207 25.0187 36.9956H25.0367L25.1483 37.01L25.2467 37.016H25.3019C25.5455 37.0168 25.7863 36.9634 26.0067 36.8596C26.2272 36.7558 26.4217 36.6042 26.5763 36.4159C26.7142 36.6848 26.9231 36.9107 27.1804 37.0691C27.4376 37.2276 27.7334 37.3126 28.0355 37.3148C28.5083 37.3148 28.9995 37.29 29.5091 37.2404H29.5475C30.3251 37.1408 30.6839 37.0904 30.8807 37.0532C33.0827 36.5827 34.9607 35.7907 36.6203 34.6314C38.4126 33.3702 39.9105 31.7358 41.0111 29.8406L41.3039 29.3257C42.4471 27.1649 43.0467 24.7582 43.0511 22.3136C43.0474 21.4893 42.9775 20.6665 42.8423 19.8534ZM34.9643 13.6933C34.7999 13.2793 34.6259 12.894 34.4459 12.5328C34.9051 12.8315 35.3422 13.1628 35.7539 13.5241C35.5006 13.6194 35.2345 13.6764 34.9643 13.6933ZM28.0151 10.6186C28.2659 10.6186 28.5167 10.6258 28.7555 10.6414L28.8611 10.6486C28.9712 10.8185 29.115 10.9639 29.2835 11.0759C29.3003 11.0891 30.3251 11.8679 31.2839 13.6333C30.8639 13.5445 30.4439 13.4281 30.0587 13.3141C29.5115 13.152 28.9559 12.9456 28.4159 12.744C27.9167 12.558 27.3503 12.3468 26.7659 12.1668C25.7007 11.84 24.6023 11.6335 23.4911 11.5511C24.9201 10.9362 26.4594 10.619 28.0151 10.6186ZM18.6095 15.419C18.68 15.4277 18.7509 15.4321 18.8219 15.4322L19.1435 15.413L19.3607 15.3362C20.3609 14.9881 21.4134 14.8144 22.4723 14.8226C23.6002 14.8267 24.7212 14.9982 25.7987 15.3314C26.2919 15.4826 26.8163 15.6782 27.2807 15.8523C27.6059 15.9723 27.9383 16.0923 28.2815 16.2123C26.4815 16.4655 24.7931 16.7847 23.1767 17.1724C21.4278 17.5861 19.7215 18.1631 18.0803 18.8957C17.5727 19.1261 17.1095 19.3577 16.6835 19.5966C17.045 18.0896 17.6994 16.6685 18.6095 15.4142V15.419ZM16.5143 24.2685L16.4519 23.8425C16.5111 23.7983 16.5668 23.7498 16.6187 23.6973C17.2739 23.0516 18.1787 22.4828 19.4459 21.9043C20.9001 21.2605 22.4116 20.7547 23.9603 20.3934C26.6111 19.7466 29.4599 19.3133 32.8535 19.0481C32.8679 19.1837 32.8811 19.3205 32.8943 19.4562C29.7551 20.0298 27.4943 22.5284 25.6379 24.5806L25.2695 24.9874C24.2639 26.0963 23.2295 27.2448 22.0931 28.1784C21.2257 28.8897 20.3169 29.5489 19.3715 30.1526C17.8819 28.5009 16.8912 26.4606 16.5143 24.2685ZM28.0343 34.0097C27.7912 34.0097 27.551 34.0636 27.3311 34.1673C27.1112 34.271 26.917 34.4221 26.7623 34.6098C26.7382 34.5632 26.7118 34.518 26.6831 34.4742C26.5655 34.2911 26.4128 34.1333 26.2338 34.0097C26.0548 33.8861 25.8531 33.7992 25.6403 33.7541C24.3683 33.484 23.1495 33.0059 22.0331 32.3392C22.8431 31.7847 23.5427 31.2591 24.1931 30.7131C25.5035 29.633 26.6267 28.3921 27.7127 27.1944L28.0823 26.7863C29.4695 25.2526 31.1423 23.4081 33.0239 22.826C32.9519 27.5064 31.7447 31.4307 29.6231 33.5633C29.5157 33.6723 29.4236 33.7954 29.3495 33.9293L29.1347 33.9569C28.7711 33.9917 28.3991 34.0097 28.0355 34.0097H28.0343ZM38.4071 27.744L38.1539 28.194C37.2936 29.6664 36.1254 30.9355 34.7291 31.9143C34.6511 31.9684 34.5707 32.0188 34.4891 32.0704C35.6171 29.5274 36.2519 26.3663 36.3215 22.9028C36.8099 23.0919 37.2419 23.4025 37.5767 23.8053C38.0327 24.3717 38.3471 25.141 38.5091 26.0915C38.5546 26.3588 38.6655 26.6107 38.8319 26.8247C38.7023 27.144 38.5583 27.4548 38.4083 27.744H38.4071ZM36.2111 19.4525C36.1991 19.3085 36.1859 19.1633 36.1727 19.0181C37.2191 19.1081 38.3231 19.2953 39.3671 19.7166L39.3851 19.7238L39.4499 19.7442L39.5927 20.4438C39.6343 20.7062 39.6679 20.9667 39.6935 21.2251C38.735 20.3007 37.5225 19.6835 36.2111 19.4525Z" fill="#1DC5FF"/>
<path opacity="0.2" d="M42.3826 19.947L42.1642 18.8669C41.553 16.3968 40.3076 14.129 38.551 12.288L38.0002 11.7384C35.6676 9.55908 32.6902 8.1966 29.5162 7.85604L28.9534 7.81284C28.6402 7.79244 28.3222 7.78284 28.009 7.78284C24.097 7.78284 20.3794 9.38136 17.539 12.2868C17.3242 12.51 16.5334 13.4605 16.5226 13.4737C14.2562 16.4472 13.2118 20.1746 13.603 23.8929V23.9229L13.7158 24.7006C14.2808 28.0412 15.9895 31.0814 18.5494 33.3005L19.0834 33.7421C20.8534 35.1257 22.9178 36.0836 25.117 36.5419L25.195 36.5527H25.255H25.303C25.5945 36.5507 25.8749 36.4411 26.0906 36.245C26.3062 36.0489 26.4419 35.7802 26.4717 35.4902C26.5014 35.2002 26.4231 34.9095 26.2517 34.6737C26.0804 34.438 25.828 34.2737 25.543 34.2126C23.9803 33.8812 22.4973 33.2477 21.1774 32.3476C22.1223 31.7351 23.0318 31.0696 23.9014 30.3542C25.1866 29.2946 26.3014 28.0681 27.3718 26.8824L27.7402 26.4755C29.3122 24.7378 31.2382 22.6148 33.5002 22.2296C33.523 27.2904 32.2546 31.5903 29.9602 33.8933C29.8324 34.0249 29.7367 34.1843 29.6806 34.359L29.1838 34.4238C28.7998 34.4598 28.4122 34.479 28.033 34.479C27.8746 34.4739 27.7167 34.5008 27.5688 34.5579C27.4209 34.6151 27.286 34.7014 27.1721 34.8117C27.0583 34.9221 26.9677 35.0541 26.9059 35.2002C26.844 35.3462 26.8122 35.5031 26.8122 35.6617C26.8122 35.8202 26.844 35.9772 26.9059 36.1232C26.9677 36.2692 27.0583 36.4013 27.1721 36.5116C27.286 36.6219 27.4209 36.7082 27.5688 36.7654C27.7167 36.8226 27.8746 36.8494 28.033 36.8444C28.4882 36.8444 28.9598 36.8208 29.4478 36.7736H29.485C30.2314 36.6788 30.6034 36.6271 30.7798 36.5935C32.9194 36.1363 34.7398 35.3682 36.349 34.245C38.0856 33.0263 39.5377 31.4459 40.6054 29.6126L40.8898 29.1133C41.998 27.018 42.5788 24.684 42.5818 22.3136C42.5788 21.5207 42.5122 20.7293 42.3826 19.947ZM38.0434 15.3926C38.3025 15.7661 38.5409 16.1535 38.7574 16.5531C38.0678 16.3909 37.3677 16.2766 36.6622 16.2111C37.1725 16.0328 37.642 15.7545 38.0434 15.3926ZM36.5062 13.5925C36.1354 13.9705 35.4982 14.1721 34.6474 14.1793C34.2774 13.1733 33.7956 12.212 33.211 11.3135C34.364 11.8501 35.4251 12.5654 36.355 13.4329L36.5062 13.5925ZM28.015 10.1494C28.2754 10.1494 28.537 10.1566 28.789 10.1734L29.149 10.1998C29.2337 10.4023 29.376 10.5755 29.5582 10.6979C29.5786 10.7123 30.9982 11.7636 32.1058 14.2298C31.369 14.1709 30.601 13.9621 29.923 13.7641C29.3602 13.5973 28.7986 13.3885 28.2514 13.1845C27.7582 12.9997 27.1978 12.7908 26.6266 12.6156C25.28 12.2001 23.8791 11.9869 22.4698 11.9832C22.1802 11.9832 21.893 11.9924 21.6082 12.0108C23.5235 10.7939 25.7459 10.1482 28.015 10.1494ZM18.3706 14.9498L18.4198 14.8922C18.5493 14.9361 18.6851 14.9584 18.8218 14.9582L19.0498 14.9438L19.2034 14.8898C20.254 14.5236 21.3597 14.3406 22.4722 14.3486C23.6467 14.3507 24.8142 14.5275 25.9366 14.873C26.443 15.0338 26.971 15.233 27.451 15.407C28.027 15.6219 28.6234 15.8439 29.263 16.0335C29.6962 16.1607 30.1618 16.2915 30.6502 16.3935C28.1708 16.6383 25.7111 17.0525 23.2882 17.6332C21.5678 18.0382 19.8892 18.6039 18.2746 19.323C17.4899 19.6704 16.7354 20.0822 16.0186 20.5543C16.3194 18.5182 17.1283 16.5907 18.3706 14.9498ZM25.9858 24.889L25.6186 25.2946C24.601 26.4167 23.5498 27.5748 22.393 28.5349C21.4074 29.34 20.3713 30.0811 19.291 30.7539C17.5923 28.9881 16.4635 26.7524 16.051 24.337L15.973 23.8113V23.7501C15.967 23.6997 15.961 23.6493 15.9562 23.5977C16.0804 23.5394 16.1936 23.4603 16.291 23.3637C16.9846 22.6736 17.9266 22.0736 19.2526 21.4735C20.7338 20.8166 22.2733 20.3003 23.851 19.9314C26.6446 19.251 29.6506 18.8057 33.271 18.5393C33.2716 18.5501 33.2716 18.5609 33.271 18.5717C33.3222 19.0005 33.3646 19.4258 33.3982 19.8474C30.1954 20.2338 27.8746 22.8008 25.9858 24.889ZM38.8162 27.9757L38.5582 28.4269C37.6649 29.96 36.4503 31.2816 34.9978 32.3008C34.4842 32.6588 33.9424 32.9747 33.3778 33.2453C34.9894 30.4431 35.8654 26.5823 35.863 22.2728C36.6773 22.4401 37.4113 22.8773 37.9462 23.5137C38.4526 24.1437 38.7994 24.985 38.9746 26.0147C39.0223 26.292 39.1674 26.5431 39.3838 26.7228C39.2168 27.1501 39.0273 27.5683 38.8162 27.9757ZM40.2118 22.6232C40.0828 22.4152 39.9418 22.2148 39.7894 22.0232C38.8294 20.8339 37.3558 20.043 35.7718 19.8498C35.739 19.405 35.697 18.9561 35.6458 18.5033C36.8914 18.5753 38.2498 18.7541 39.5266 19.269H39.541L39.7486 19.3326H39.8458C39.8458 19.347 39.8518 19.3614 39.8554 19.3746L40.051 20.3694C40.1576 21.0121 40.213 21.6622 40.2166 22.3136C40.2166 22.418 40.2154 22.5212 40.2118 22.6232Z" fill="#1DC5FF"/>
<path opacity="0.3" d="M42.0035 20.0238L41.7875 18.9629C41.195 16.56 39.9855 14.3535 38.2787 12.5616L37.7351 12.0203C35.4683 9.90183 32.5755 8.57578 29.4911 8.24122L28.9319 8.19921C28.6283 8.18001 28.3187 8.17041 28.0127 8.17041C24.2063 8.17041 20.5883 9.73053 17.8223 12.5544C17.6267 12.7596 16.8443 13.6969 16.8335 13.7101C14.6171 16.6141 13.6 20.2582 13.9919 23.8905V23.9145L14.0975 24.6345C14.6451 27.8839 16.306 30.8416 18.7955 33.0004L19.3211 33.436C21.0372 34.7791 23.0385 35.7107 25.1711 36.1591L25.2251 36.1663H25.2623H25.3031C25.4992 36.1656 25.6882 36.0925 25.8337 35.961C25.9793 35.8296 26.0711 35.649 26.0916 35.4539C26.1122 35.2588 26.0599 35.063 25.945 34.9041C25.83 34.7452 25.6604 34.6344 25.4687 34.5929C23.6643 34.2137 21.9651 33.4432 20.4911 32.3355C21.5917 31.6424 22.6478 30.8808 23.6531 30.0554C24.9155 29.0137 26.0171 27.798 27.0827 26.6219L27.4511 26.2163C29.1635 24.3225 31.2911 21.9859 33.8819 21.7939C33.9779 27.1463 32.6651 31.7223 30.2363 34.1657C30.0931 34.3095 30.011 34.5029 30.0071 34.7057L29.2211 34.8089C28.8251 34.8461 28.4255 34.8653 28.0331 34.8653C27.8221 34.8653 27.6197 34.9492 27.4705 35.0984C27.3213 35.2476 27.2375 35.45 27.2375 35.661C27.2375 35.872 27.3213 36.0744 27.4705 36.2236C27.6197 36.3728 27.8221 36.4567 28.0331 36.4567C28.4747 36.4567 28.9307 36.4351 29.3987 36.3895H29.4359C30.1559 36.2983 30.5387 36.2443 30.6995 36.2143C32.7875 35.7678 34.5635 35.0202 36.1283 33.9269C37.8175 32.7415 39.2302 31.2046 40.2695 29.4217L40.5467 28.9345C41.626 26.8943 42.1916 24.6217 42.1943 22.3135C42.1915 21.5464 42.1277 20.7808 42.0035 20.0238ZM38.0855 14.7901C38.639 15.5265 39.1102 16.3213 39.4907 17.1603C37.9307 16.6599 36.3299 16.5399 34.9307 16.4979C34.9043 16.3779 34.8767 16.2579 34.8491 16.1462C36.2639 16.0982 37.3775 15.6362 38.0855 14.7901ZM37.0307 13.5636C37.0005 13.5942 36.9728 13.6271 36.9479 13.662C36.5255 14.2525 35.7131 14.5645 34.5983 14.5645H34.3787C33.8692 13.0678 33.0972 11.6739 32.0987 10.4482C33.7814 11.0247 35.3231 11.9507 36.6227 13.1652L37.0307 13.5636ZM28.0151 9.76174C28.2827 9.76174 28.5539 9.77014 28.8179 9.78694L29.3423 9.82534L29.4491 9.83974C29.4491 9.85414 29.4491 9.86855 29.4491 9.88415C29.4689 9.98485 29.5083 10.0807 29.5651 10.1661C29.622 10.2516 29.6951 10.325 29.7803 10.3822C29.8043 10.399 31.5155 11.6375 32.6939 14.6269C32.6255 14.6269 32.5583 14.6341 32.4875 14.6341C31.5875 14.6341 30.6335 14.3761 29.8103 14.1349C29.2355 13.9657 28.6679 13.7545 28.1183 13.548C27.6275 13.3656 27.0719 13.158 26.5115 12.9864C25.2015 12.5815 23.8386 12.3736 22.4675 12.3695C21.6857 12.3692 20.9057 12.444 20.1383 12.5928C22.3606 10.772 25.1422 9.77226 28.0151 9.76174ZM18.0731 14.7037C18.1187 14.6473 18.2111 14.5369 18.3215 14.4061C18.4658 14.5141 18.6416 14.5718 18.8219 14.5705L18.9719 14.5609L19.0727 14.5249C20.1652 14.1434 21.3151 13.9526 22.4723 13.9609C23.6854 13.9673 24.8908 14.1533 26.0495 14.5129C26.5655 14.6725 27.1031 14.8729 27.5807 15.0506C28.1507 15.263 28.7411 15.4826 29.3663 15.6674C30.2963 15.941 31.3799 16.2315 32.4863 16.2315C32.727 16.2313 32.9675 16.2161 33.2063 16.1859C33.2387 16.3059 33.2711 16.4259 33.3023 16.5591C29.4911 16.8267 26.3291 17.2899 23.3795 18.0088C21.6825 18.4074 20.0268 18.9647 18.4343 19.6733C17.2343 20.2146 16.2995 20.769 15.5351 21.3871C15.7182 18.961 16.5997 16.6398 18.0731 14.7037ZM26.2727 25.1446L25.9055 25.5538C24.8783 26.6867 23.8163 27.858 22.6403 28.8289C21.6062 29.6747 20.5178 30.4521 19.3823 31.1558C19.3354 31.1858 19.2915 31.2204 19.2515 31.2591C17.3648 29.4037 16.1106 27.0009 15.6671 24.3921L15.5867 23.8437V23.7957C15.5687 23.6372 15.5531 23.4752 15.5399 23.3156C15.721 23.2978 15.8906 23.2181 16.0199 23.09C16.7495 22.3699 17.7263 21.7471 19.0943 21.1266C20.5963 20.4581 22.1575 19.9314 23.7575 19.5533C26.6651 18.8453 29.7983 18.3904 33.6047 18.1252C33.6227 18.2572 33.6419 18.3892 33.6587 18.5248C33.7259 19.0889 33.7787 19.6457 33.8147 20.1978C30.5627 20.4078 28.1891 23.0336 26.2727 25.1494V25.1446ZM39.1523 28.1628L38.8931 28.6176C37.9709 30.1985 36.7178 31.5614 35.2199 32.6128C34.3414 33.224 33.3865 33.7171 32.3795 34.0793C34.4435 31.2171 35.5475 26.8067 35.4731 21.8119C36.5795 21.9319 37.6019 22.4624 38.2475 23.2652C38.7959 23.9469 39.1691 24.8481 39.3563 25.9438C39.3794 26.0804 39.4381 26.2085 39.5263 26.3153C39.6146 26.4221 39.7293 26.5038 39.8591 26.5523C39.6594 27.1057 39.4233 27.6454 39.1523 28.1676V28.1628ZM40.4843 24.0333C40.2463 23.3959 39.9098 22.7998 39.4871 22.2667C38.5271 21.0774 37.0115 20.313 35.4071 20.205C35.3675 19.5869 35.3123 18.9629 35.2367 18.3328C35.2271 18.2524 35.2151 18.1744 35.2043 18.0928C36.6011 18.148 38.1791 18.3076 39.6695 18.9089L39.8111 18.9533H39.9311C40.002 18.9533 40.0726 18.944 40.1411 18.9257C40.1771 19.0541 40.2107 19.1813 40.2419 19.3049L40.4435 20.3034C40.5504 20.9681 40.6042 21.6403 40.6043 22.3135C40.604 22.8905 40.5639 23.4667 40.4843 24.0381V24.0333Z" fill="#1DC5FF"/>
<path opacity="0.65" d="M41.7034 20.0851L41.491 19.0362C40.9129 16.687 39.7311 14.5296 38.0626 12.7777L37.531 12.2424C35.3147 10.1702 32.4858 8.87314 29.4694 8.54615L28.915 8.50414C28.6174 8.48494 28.315 8.47534 28.015 8.47534C24.295 8.47534 20.7514 9.99826 18.0454 12.7645C17.8606 12.9589 17.0854 13.8818 17.0782 13.8962C14.9019 16.7457 13.9066 20.324 14.299 23.8882V23.9074L14.3986 24.5866C14.9339 27.7639 16.5575 30.6561 18.991 32.7677L19.5094 33.1985C21.1839 34.5089 23.1362 35.4182 25.2166 35.8567H25.2478H25.2838H25.3018C25.4238 35.8581 25.5419 35.814 25.633 35.7329C25.7241 35.6518 25.7817 35.5397 25.7944 35.4184C25.8072 35.297 25.7742 35.1754 25.702 35.0771C25.6297 34.9788 25.5234 34.911 25.4038 34.8871C23.4792 34.4807 21.673 33.6392 20.1238 32.4269L19.9558 32.2876C19.9978 32.2749 20.0381 32.2571 20.0758 32.2348C21.2573 31.5017 22.3897 30.6923 23.4658 29.8118C24.7114 28.7846 25.8058 27.5773 26.863 26.4096L27.2314 26.0027C29.0314 24.0118 31.273 21.5336 34.1038 21.4628C34.1313 21.462 34.1586 21.4588 34.1854 21.4532C34.3438 27.0276 32.9938 31.8232 30.4594 34.3722C30.3839 34.4467 30.3352 34.5441 30.3209 34.6491C30.3066 34.7542 30.3274 34.8611 30.3802 34.9531C30.2602 34.9723 29.965 35.0131 29.2786 35.1019H29.257C28.8514 35.1415 28.4422 35.1607 28.0402 35.1607C27.9738 35.1574 27.9074 35.1676 27.8451 35.1908C27.7828 35.2139 27.7258 35.2495 27.6776 35.2954C27.6294 35.3412 27.5911 35.3964 27.5649 35.4575C27.5387 35.5186 27.5252 35.5844 27.5252 35.6509C27.5252 35.7174 27.5387 35.7832 27.5649 35.8443C27.5911 35.9055 27.6294 35.9606 27.6776 36.0065C27.7258 36.0523 27.7828 36.0879 27.8451 36.111C27.9074 36.1342 27.9738 36.1444 28.0402 36.1412C28.4722 36.1412 28.915 36.1196 29.3602 36.0763H29.3986C30.0982 35.9863 30.4894 35.9323 30.637 35.9047C32.6842 35.4679 34.4242 34.7346 35.9542 33.6666C37.6061 32.5065 38.988 31.0033 40.0054 29.2598L40.2766 28.7798C41.331 26.7872 41.8845 24.568 41.8894 22.3136C41.8868 21.567 41.8246 20.8218 41.7034 20.0851ZM37.993 14.411C38.0248 14.3673 38.0491 14.3186 38.065 14.267C38.894 15.2971 39.5601 16.4481 40.0402 17.6801C38.287 16.9864 36.4402 16.84 34.8454 16.8004C34.7906 16.8007 34.7362 16.8105 34.6846 16.8292C34.615 16.49 34.5382 16.1632 34.4542 15.8487H34.5982C36.1462 15.8511 37.3198 15.3531 37.993 14.411ZM37.3618 13.4629L37.531 13.6394C37.4653 13.6485 37.4021 13.671 37.3453 13.7055C37.2886 13.7399 37.2395 13.7856 37.201 13.8398C36.721 14.5142 35.821 14.8707 34.603 14.8707H34.363C34.3005 14.8718 34.2386 14.8844 34.1806 14.9079C33.277 12.1848 31.9174 10.5875 31.1314 9.84105C33.2688 10.3764 35.2346 11.4473 36.8434 12.9529L37.3618 13.4629ZM28.015 9.45582C28.2886 9.45582 28.5682 9.46542 28.8406 9.48222L29.3746 9.52183C29.5066 9.53623 29.6386 9.55543 29.7694 9.57343C29.7346 9.67442 29.7345 9.78413 29.769 9.88521C29.8036 9.98629 29.8709 10.0729 29.9602 10.1315C29.9854 10.1495 31.9138 11.5152 33.1306 14.8959H33.1066C32.9031 14.9239 32.6977 14.9375 32.4922 14.9367C31.5514 14.9367 30.5722 14.6726 29.7322 14.4254C29.149 14.2538 28.5754 14.0402 28.021 13.8326C27.5338 13.6514 26.983 13.4461 26.4298 13.2757C25.1488 12.8811 23.8163 12.6789 22.4758 12.6757C21.2961 12.6689 20.1224 12.8438 18.9958 13.1941C21.4798 10.7807 24.6682 9.45582 28.015 9.45582ZM17.8378 14.513C17.9158 14.4182 18.1318 14.1614 18.337 13.9214C18.337 13.9286 18.337 13.9358 18.3442 13.9442C18.3798 14.0421 18.4453 14.1264 18.5315 14.185C18.6176 14.2436 18.7201 14.2736 18.8242 14.2706L18.9118 14.2634L18.973 14.2418C20.0984 13.8493 21.2828 13.6528 22.4746 13.661C23.718 13.6649 24.9538 13.8534 26.1418 14.2202C26.6638 14.381 27.2026 14.5802 27.685 14.7614C28.2526 14.9727 28.8394 15.1911 29.455 15.3735C30.3634 15.6399 31.423 15.9243 32.4946 15.9243C32.7455 15.9251 32.9961 15.9082 33.2446 15.8739C33.3092 15.8657 33.3713 15.844 33.427 15.8103C33.5206 16.138 33.6082 16.4812 33.6862 16.84H33.6646C29.7178 17.1088 26.473 17.5757 23.455 18.3125C21.7764 18.7073 20.1384 19.2586 18.5626 19.9591C17.0998 20.6227 16.027 21.3056 15.2026 22.1C15.2534 19.3554 16.1764 16.6981 17.8378 14.513ZM34.0738 20.4967C30.823 20.5783 28.4254 23.2293 26.4994 25.3595L26.131 25.7591C25.0966 26.9004 24.0274 28.0813 22.8346 29.0654C21.7905 29.9194 20.6918 30.7043 19.5454 31.4152C19.4866 31.4524 19.4363 31.5017 19.3981 31.5598C19.3598 31.618 19.3343 31.6836 19.3234 31.7524C17.2295 29.8179 15.8367 27.2432 15.3634 24.4318L15.2818 23.8738V23.8366C15.247 23.5401 15.2218 23.2365 15.2086 22.9449C15.2848 22.9916 15.3725 23.0161 15.4618 23.0157C15.5906 23.0158 15.7142 22.9654 15.8062 22.8753C16.561 22.13 17.5654 21.4868 18.9682 20.8507C20.4874 20.1737 22.0667 19.6405 23.6854 19.2582C26.647 18.5381 29.839 18.0773 33.7282 17.8121C33.7738 17.8084 33.8187 17.7983 33.8614 17.7821C33.8974 18.0125 33.9322 18.2477 33.961 18.4901C34.0426 19.167 34.1002 19.8366 34.1398 20.4979C34.118 20.4947 34.0959 20.4927 34.0738 20.4919V20.4967ZM39.4174 28.3141L39.157 28.7714C38.2133 30.3946 36.9295 31.7943 35.3938 32.8745C34.2106 33.687 32.8997 34.2954 31.5154 34.6746C33.9886 31.8748 35.305 27.0288 35.161 21.4736C35.1742 21.4736 35.1874 21.4736 35.2006 21.4736C36.5026 21.5348 37.7302 22.13 38.4862 23.0685C39.067 23.7886 39.4618 24.7402 39.6574 25.8875C39.6767 26.001 39.7354 26.1041 39.8232 26.1785C39.911 26.253 40.0223 26.294 40.1374 26.2944H40.171L40.219 26.2884L40.2706 26.2764C40.0428 26.9779 39.7574 27.6595 39.4174 28.3141ZM40.5466 25.3283C40.3066 24.1894 39.8662 23.2257 39.2494 22.4589C38.3206 21.3044 36.8302 20.5723 35.2666 20.5015H35.2186C35.186 20.5016 35.1535 20.5048 35.1214 20.5111C35.0822 19.8062 35.0198 19.093 34.9342 18.3713C34.9102 18.1697 34.8838 17.9729 34.855 17.7785C36.3622 17.8229 38.1202 17.9585 39.7618 18.6186L39.853 18.6462H39.925C40.0004 18.6469 40.0748 18.6299 40.1424 18.5966C40.2099 18.5632 40.2686 18.5144 40.3138 18.4541C40.3938 18.715 40.4674 18.9778 40.5346 19.2426L40.7386 20.2531C40.85 20.9343 40.907 21.6234 40.909 22.3136C40.9099 23.331 40.7882 24.3448 40.5466 25.3331V25.3283Z" fill="#1DC5FF"/>
<path d="M40.0199 17.9285C38.2811 17.2252 36.4331 17.0884 34.8455 17.038C34.7786 17.0372 34.7142 17.063 34.6664 17.1097C34.6186 17.1564 34.5913 17.2202 34.5905 17.287C34.5897 17.3538 34.6155 17.4183 34.6622 17.4661C34.7089 17.5139 34.7726 17.5412 34.8395 17.542C36.3731 17.5864 38.1659 17.722 39.8315 18.3965L39.8891 18.4145H39.9251C39.9838 18.4148 40.0407 18.3946 40.0861 18.3574C40.1315 18.3202 40.1625 18.2683 40.1737 18.2107C40.1849 18.1531 40.1757 18.0934 40.1476 18.0419C40.1195 17.9903 40.0744 17.9502 40.0199 17.9285Z" fill="#00F9FF"/>
<path d="M37.5946 13.8721C37.5547 13.8721 37.5153 13.8818 37.4798 13.9001C37.4443 13.9185 37.4138 13.9451 37.3906 13.9777C36.8614 14.7181 35.8954 15.113 34.5982 15.113H34.3582C34.2936 15.1126 34.2313 15.1375 34.1847 15.1823C34.1381 15.2271 34.1108 15.2884 34.1086 15.353C34.1067 15.4192 34.1307 15.4835 34.1755 15.5321C34.2204 15.5808 34.2825 15.61 34.3486 15.6134C34.429 15.6134 34.5106 15.6134 34.5886 15.6134C36.0562 15.6134 37.1626 15.1502 37.7902 14.2729C37.8286 14.2188 37.8442 14.1517 37.8337 14.0862C37.8232 14.0206 37.7873 13.9618 37.7338 13.9225C37.6935 13.8922 37.645 13.8747 37.5946 13.8721Z" fill="#00F9FF"/>
<path d="M35.251 20.7439H35.2186C35.1855 20.7434 35.1527 20.7495 35.1219 20.7617C35.0912 20.774 35.0631 20.7921 35.0394 20.8152C35.0157 20.8383 34.9967 20.8658 34.9836 20.8962C34.9705 20.9266 34.9635 20.9592 34.963 20.9923C34.9626 21.0254 34.9686 21.0583 34.9808 21.0891C34.9931 21.1198 35.0112 21.1479 35.0343 21.1716C35.0574 21.1953 35.0849 21.2143 35.1153 21.2274C35.1457 21.2405 35.1783 21.2475 35.2114 21.248C36.5806 21.3116 37.8742 21.9404 38.671 22.9281C39.2782 23.683 39.6898 24.6682 39.8926 25.8551C39.9023 25.9139 39.9327 25.9674 39.9782 26.0059C40.0237 26.0444 40.0814 26.0654 40.141 26.0651H40.171H40.1866C40.2524 26.0537 40.3109 26.0168 40.3496 25.9624C40.3882 25.908 40.4038 25.8406 40.393 25.7747C40.1746 24.5014 39.7294 23.4381 39.073 22.6149C38.1778 21.512 36.7462 20.8123 35.251 20.7439Z" fill="#00F9FF"/>
<path d="M34.0931 21.2336C34.1598 21.2314 34.223 21.2034 34.2695 21.1556C34.3034 21.1192 34.3259 21.0737 34.3342 21.0246C34.3424 20.9756 34.336 20.9252 34.3158 20.8797C34.2956 20.8343 34.2624 20.7958 34.2205 20.7691C34.1785 20.7424 34.1296 20.7286 34.0799 20.7295C30.9311 20.8087 28.5719 23.4177 26.6759 25.5143L26.3087 25.9139C25.2683 27.0624 24.1931 28.2493 22.9883 29.2442C21.9358 30.1039 20.8287 30.8945 19.6739 31.6108C19.6279 31.6401 19.5927 31.6836 19.5736 31.7346C19.5544 31.7857 19.5523 31.8415 19.5676 31.8939C19.5829 31.9462 19.6147 31.9922 19.6583 32.0249C19.7019 32.0576 19.755 32.0752 19.8095 32.0752C19.8569 32.0748 19.9034 32.0615 19.9439 32.0368C21.1151 31.3111 22.2376 30.5093 23.3039 29.6366C24.5363 28.6202 25.6235 27.4201 26.6771 26.2572L27.0443 25.8515C28.8815 23.827 31.1603 21.3068 34.0931 21.2336Z" fill="#00F9FF"/>
<path d="M41.4695 20.1318L41.2595 19.0925C40.6904 16.7876 39.5293 14.6712 37.8911 12.9529L37.3583 12.4224C35.1812 10.3858 32.4019 9.11101 29.4383 8.78972L28.8911 8.74171C28.5971 8.72371 28.2995 8.71411 28.0067 8.71411C24.3503 8.71411 20.8715 10.2106 18.2111 12.93C18.0323 13.1161 17.2715 14.0269 17.2595 14.0413C15.1188 16.8486 14.1439 20.3737 14.5379 23.8821V23.8965L14.6315 24.5434C15.1567 27.6655 16.7509 30.5079 19.1411 32.584L19.6511 33.0113C21.2928 34.2967 23.2068 35.1895 25.2467 35.6215H25.2779H25.2959C25.3413 35.6218 25.386 35.6098 25.4251 35.5867C25.4642 35.5636 25.4963 35.5303 25.518 35.4904C25.5397 35.4504 25.5501 35.4054 25.5482 35.36C25.5463 35.3146 25.5321 35.2706 25.5071 35.2326C25.4896 35.2045 25.4665 35.1803 25.4393 35.1615C25.412 35.1427 25.3812 35.1297 25.3487 35.1234C23.3871 34.7086 21.5465 33.8502 19.9679 32.614L19.4627 32.1952C17.1674 30.201 15.6354 27.4719 15.1283 24.4738L15.0443 23.8953V23.8869V23.8641C14.6535 20.4774 15.5893 17.071 17.6555 14.3594C17.7755 14.2118 18.4343 13.4305 18.5747 13.2793C21.1355 10.6607 24.4883 9.21815 28.0151 9.21815C28.2947 9.21815 28.5791 9.22655 28.8551 9.24455L29.3963 9.28536C32.2443 9.59575 34.915 10.8211 37.0079 12.7776L37.5311 13.2985C39.1054 14.9514 40.222 16.986 40.7711 19.2017L40.9763 20.2218C41.4404 23.0334 40.9655 25.9195 39.6251 28.4341L39.3623 28.8937C38.4008 30.5433 37.0937 31.9652 35.5307 33.0617C34.0835 34.0721 32.4323 34.767 30.4907 35.1822C30.4103 35.1966 30.1391 35.2374 29.3063 35.3442H29.2763C28.8635 35.3838 28.4471 35.403 28.0367 35.403C27.9698 35.403 27.9057 35.4296 27.8585 35.4769C27.8112 35.5241 27.7847 35.5882 27.7847 35.6551C27.7847 35.7219 27.8112 35.786 27.8585 35.8333C27.9057 35.8805 27.9698 35.9071 28.0367 35.9071C28.4615 35.9071 28.8959 35.8867 29.3327 35.8447H29.3711C30.0587 35.7571 30.4511 35.7019 30.5891 35.6767C32.6051 35.2458 34.3163 34.5258 35.8199 33.4757C37.4437 32.3367 38.8016 30.8595 39.8003 29.1457L40.0679 28.6765C41.462 26.0595 41.9551 23.056 41.4707 20.1306L41.4695 20.1318Z" fill="#00F9FF"/>
<path d="M15.2807 22.6976C15.304 22.7214 15.3318 22.7403 15.3625 22.7532C15.3932 22.7662 15.4261 22.773 15.4595 22.7732C15.4922 22.7733 15.5247 22.7669 15.555 22.7543C15.5853 22.7418 15.6128 22.7233 15.6359 22.7C16.4123 21.9355 17.4359 21.2779 18.8675 20.6298C20.4008 19.9471 21.9951 19.4103 23.6291 19.0265C26.6039 18.3065 29.8091 17.8396 33.7091 17.5744C33.7421 17.5721 33.7743 17.5633 33.8039 17.5486C33.8336 17.5339 33.86 17.5134 33.8817 17.4885C33.9035 17.4635 33.9201 17.4345 33.9306 17.4031C33.9411 17.3717 33.9453 17.3386 33.9431 17.3056C33.939 17.2386 33.9088 17.1759 33.859 17.131C33.8092 17.0861 33.7437 17.0626 33.6767 17.0656C29.7443 17.3332 26.5127 17.7988 23.5079 18.5321C21.8436 18.9233 20.2197 19.4698 18.6575 20.1642C17.1743 20.8375 16.1015 21.5275 15.2819 22.3352C15.2573 22.3585 15.2378 22.3866 15.2243 22.4177C15.2109 22.4488 15.204 22.4823 15.2039 22.5161C15.2037 22.55 15.2105 22.5835 15.2237 22.6147C15.2369 22.6459 15.2563 22.6741 15.2807 22.6976Z" fill="#00F9FF"/>
<path d="M27.9311 14.0581C27.4511 13.8781 26.8979 13.6729 26.3531 13.5061C25.0947 13.1178 23.7856 12.9184 22.4687 12.9144C21.1918 12.9063 19.923 13.1174 18.7175 13.5385C18.6866 13.5506 18.6583 13.5687 18.6345 13.5918C18.6106 13.6148 18.5915 13.6424 18.5783 13.6729C18.564 13.7026 18.5558 13.7349 18.5541 13.7679C18.5525 13.8009 18.5574 13.8338 18.5687 13.8649C18.5866 13.9146 18.6196 13.9575 18.663 13.9876C18.7065 14.0177 18.7582 14.0335 18.8111 14.0329H18.8651L18.8951 14.0221C20.0459 13.6184 21.2575 13.4155 22.4771 13.4221C23.744 13.426 25.0034 13.6181 26.2139 13.9921C26.7467 14.1565 27.2939 14.3581 27.7739 14.5381C28.3367 14.7482 28.9199 14.9654 29.5271 15.1454C30.4199 15.407 31.4591 15.6866 32.4995 15.6866C32.7403 15.6871 32.9808 15.671 33.2195 15.6386C33.2827 15.6298 33.3402 15.5974 33.3805 15.5478C33.4207 15.4982 33.4406 15.4353 33.4362 15.3716C33.4318 15.3079 33.4033 15.2482 33.3567 15.2047C33.31 15.1612 33.2485 15.137 33.1847 15.137H33.1619H33.1499C32.9351 15.1664 32.7186 15.1809 32.5019 15.1802C31.5287 15.1802 30.5303 14.9114 29.6711 14.6594C29.0711 14.4817 28.4951 14.2729 27.9311 14.0581Z" fill="#00F9FF"/>
<path d="M30.3731 9.51576C30.3319 9.48825 30.2834 9.47363 30.2339 9.47376C30.1923 9.47387 30.1514 9.48422 30.1148 9.5039C30.0782 9.52357 30.0469 9.55196 30.0239 9.58656C30.0056 9.61398 29.9929 9.64474 29.9865 9.67707C29.9801 9.7094 29.9801 9.74268 29.9866 9.77501C29.993 9.80733 30.0058 9.83806 30.0241 9.86544C30.0425 9.89283 30.0661 9.91632 30.0935 9.93459C30.1271 9.95739 33.4535 12.2688 34.1975 18.4625C35.0183 25.3414 33.6491 31.5063 30.6239 34.5438C30.5771 34.5911 30.5508 34.6549 30.5507 34.7214C30.5513 34.788 30.5781 34.8518 30.6252 34.8989C30.6723 34.946 30.7361 34.9728 30.8027 34.9734C30.8359 34.9734 30.8688 34.9668 30.8995 34.9541C30.9302 34.9413 30.9581 34.9226 30.9815 34.899C34.1123 31.7499 35.5415 25.4266 34.7015 18.3977C33.9311 11.9316 30.4079 9.53856 30.3731 9.51576Z" fill="#00F9FF"/>
<path d="M28.0355 35.727C28.018 35.727 28.0012 35.7201 27.9888 35.7077C27.9764 35.6953 27.9695 35.6785 27.9695 35.661C27.9695 35.6524 27.9712 35.6439 27.9745 35.6359C27.9778 35.628 27.9827 35.6208 27.9889 35.6148C27.995 35.6087 28.0023 35.604 28.0103 35.6008C28.0183 35.5976 28.0269 35.596 28.0355 35.5962C28.4519 35.5962 28.8755 35.5758 29.2919 35.535H29.3291C30.1619 35.4294 30.4379 35.3874 30.5231 35.3718C32.4959 34.9506 34.1687 34.2473 35.6375 33.2212C37.2224 32.1088 38.5482 30.667 39.5243 28.9945L39.7859 28.5336C41.1465 25.9808 41.6289 23.051 41.1587 20.1966L40.9511 19.1693C40.3973 16.9199 39.266 14.8541 37.6691 13.176L37.1435 12.6504C35.0208 10.6627 32.3109 9.41706 29.4203 9.10048L28.8731 9.05968C24.9719 8.81006 21.2651 10.2598 18.4403 13.1496C18.2855 13.3116 17.6003 14.1325 17.5115 14.2369C15.413 16.9878 14.462 20.4448 14.8583 23.8821C14.8588 23.8877 14.8588 23.8933 14.8583 23.8989L14.9459 24.4989C15.459 27.5441 17.014 30.3163 19.3451 32.3415L19.8539 32.764C21.4564 34.0182 23.3244 34.8896 25.3151 35.3118C25.3306 35.3168 25.3438 35.3274 25.3519 35.3416C25.3601 35.3558 25.3627 35.3725 25.3593 35.3885C25.3559 35.4045 25.3466 35.4186 25.3333 35.4282C25.3201 35.4377 25.3037 35.442 25.2875 35.4402C23.2751 35.0148 21.3869 34.1342 19.7675 32.866L19.2563 32.4412C16.9023 30.396 15.3327 27.5959 14.8163 24.5205L14.7263 23.9085C14.7256 23.9017 14.7256 23.8949 14.7263 23.8881C14.329 20.4183 15.2902 16.9295 17.4083 14.1529C17.4179 14.1421 18.1739 13.2372 18.3467 13.056C21.1991 10.1398 24.9395 8.67205 28.8815 8.92527L29.4323 8.96727C32.3513 9.28616 35.0882 10.5431 37.2323 12.5496L37.7603 13.0764C39.3737 14.7726 40.517 16.8602 41.0771 19.1333L41.2847 20.1666C41.7607 23.0504 41.2736 26.0108 39.8987 28.59L39.6347 29.0533C38.6492 30.7421 37.3107 32.1982 35.7107 33.322C34.2263 34.3577 32.5379 35.0682 30.5507 35.493C30.4235 35.517 30.0083 35.5734 29.3507 35.6586H29.3123C28.8827 35.7066 28.4555 35.727 28.0355 35.727ZM19.8095 31.8939C19.7983 31.8939 19.7874 31.8911 19.7775 31.8859C19.7677 31.8807 19.7593 31.8731 19.7531 31.8639C19.744 31.849 19.741 31.8312 19.7448 31.8142C19.7486 31.7972 19.7589 31.7823 19.7735 31.7727C20.9351 31.053 22.0487 30.2585 23.1071 29.3941C24.3215 28.392 25.4015 27.1991 26.4467 26.047L26.8139 25.6414C28.6859 23.5712 31.0139 20.9958 34.0847 20.9178C34.1022 20.9178 34.119 20.9248 34.1313 20.9372C34.1437 20.9495 34.1507 20.9663 34.1507 20.9838C34.1507 21.0013 34.1437 21.0181 34.1313 21.0305C34.119 21.0429 34.1022 21.0498 34.0847 21.0498C31.0715 21.1254 28.7627 23.6781 26.9075 25.7302L26.5403 26.1346C25.4927 27.2915 24.4091 28.4868 23.1875 29.4949C22.1248 30.3638 21.0068 31.1627 19.8407 31.8867C19.8309 31.8914 19.8203 31.8939 19.8095 31.8939ZM40.1411 25.8802C40.1254 25.8804 40.1102 25.8749 40.0983 25.8648C40.0864 25.8546 40.0786 25.8405 40.0763 25.825C39.8675 24.6057 39.4439 23.5916 38.8163 22.8116C37.9859 21.7807 36.6419 21.1254 35.2163 21.0594C35.199 21.0585 35.1827 21.0508 35.1711 21.038C35.1594 21.0252 35.1532 21.0083 35.1539 20.991C35.154 20.9824 35.1559 20.9738 35.1595 20.9659C35.163 20.958 35.1682 20.9509 35.1746 20.9451C35.181 20.9392 35.1885 20.9347 35.1967 20.9319C35.2049 20.9291 35.2136 20.928 35.2223 20.9286C36.6815 20.9958 38.0615 21.6691 38.9159 22.7288C39.5567 23.5256 39.9959 24.5601 40.2023 25.8022C40.205 25.8194 40.2009 25.837 40.1908 25.8511C40.1807 25.8653 40.1654 25.8749 40.1483 25.8778L40.1411 25.8802ZM15.4595 22.586C15.4465 22.5861 15.4337 22.5824 15.4229 22.5752C15.412 22.568 15.4036 22.5577 15.3987 22.5457C15.3938 22.5336 15.3926 22.5204 15.3953 22.5077C15.398 22.495 15.4045 22.4833 15.4139 22.4744C16.2167 21.6823 17.2727 21.0042 18.7355 20.3406C20.287 19.6484 21.9 19.1036 23.5535 18.7133C26.5535 17.9836 29.7683 17.5132 33.6911 17.2527C33.7002 17.251 33.7097 17.2513 33.7187 17.2535C33.7278 17.2557 33.7363 17.2598 33.7436 17.2656C33.751 17.2713 33.757 17.2785 33.7614 17.2868C33.7658 17.295 33.7683 17.3041 33.7689 17.3134C33.7695 17.3227 33.7681 17.332 33.7649 17.3408C33.7616 17.3495 33.7565 17.3575 33.75 17.3641C33.7434 17.3707 33.7355 17.3759 33.7268 17.3792C33.7181 17.3826 33.7088 17.3841 33.6995 17.3835C29.7851 17.65 26.5715 18.1132 23.5847 18.8417C21.9397 19.2281 20.3347 19.7681 18.7907 20.4546C17.3411 21.1134 16.2983 21.7867 15.5051 22.568C15.4928 22.5797 15.4764 22.5862 15.4595 22.586ZM39.9311 18.2332C39.9227 18.2344 39.9142 18.2344 39.9059 18.2332C38.2151 17.548 36.4019 17.4099 34.8503 17.3655C34.833 17.3649 34.8166 17.3575 34.8047 17.345C34.7928 17.3324 34.7863 17.3156 34.7867 17.2983C34.7876 17.2808 34.7952 17.2643 34.8079 17.2523C34.8207 17.2402 34.8375 17.2335 34.8551 17.2335C36.4151 17.2791 38.2451 17.4184 39.9551 18.1108C39.9669 18.1177 39.9763 18.1281 39.982 18.1406C39.9876 18.1531 39.9893 18.1671 39.9866 18.1806C39.984 18.194 39.9772 18.2063 39.9673 18.2158C39.9573 18.2252 39.9446 18.2313 39.9311 18.2332ZM32.4911 15.4958C31.4759 15.4958 30.4511 15.2198 29.5703 14.9618C28.9703 14.7841 28.3883 14.5669 27.8255 14.3617C27.3455 14.1817 26.7995 13.9777 26.2655 13.8133C23.7095 13.0332 21.0695 13.0428 18.8255 13.8409C18.8174 13.8439 18.8087 13.8453 18.8001 13.8449C18.7914 13.8446 18.7829 13.8425 18.7751 13.8388C18.7673 13.8351 18.7603 13.8299 18.7545 13.8234C18.7487 13.817 18.7443 13.8094 18.7415 13.8013C18.7386 13.7931 18.7374 13.7844 18.7379 13.7757C18.7384 13.7671 18.7407 13.7586 18.7445 13.7508C18.7482 13.743 18.7535 13.736 18.76 13.7303C18.7665 13.7245 18.7741 13.7201 18.7823 13.7173C21.0479 12.9096 23.7179 12.8988 26.3003 13.6873C26.8403 13.8541 27.3875 14.0581 27.8711 14.2381C28.4303 14.4469 29.0099 14.6629 29.6063 14.8381C30.4787 15.0938 31.4927 15.3662 32.4863 15.3662C32.7114 15.3671 32.9364 15.3522 33.1595 15.3218C33.168 15.3204 33.1767 15.3208 33.1851 15.3228C33.1935 15.3249 33.2013 15.3286 33.2083 15.3337C33.2152 15.3389 33.221 15.3454 33.2254 15.3528C33.2298 15.3602 33.2327 15.3684 33.2339 15.377C33.235 15.3856 33.2345 15.3943 33.2323 15.4027C33.2301 15.4111 33.2263 15.419 33.2211 15.4259C33.2158 15.4328 33.2093 15.4386 33.2018 15.443C33.1943 15.4474 33.1861 15.4502 33.1775 15.4514C32.95 15.4822 32.7206 15.4971 32.4911 15.4958ZM34.5971 15.4262C34.5179 15.4262 34.4375 15.4262 34.3571 15.4262C34.3397 15.4253 34.3233 15.4176 34.3114 15.4048C34.2996 15.3921 34.2931 15.3752 34.2935 15.3578C34.2934 15.3491 34.2952 15.3405 34.2986 15.3326C34.302 15.3246 34.3071 15.3174 34.3133 15.3115C34.3196 15.3055 34.3271 15.3009 34.3352 15.2979C34.3434 15.295 34.352 15.2937 34.3607 15.2942C34.4387 15.2942 34.5167 15.2942 34.5947 15.2942C35.9555 15.2942 36.9731 14.8753 37.5383 14.0857C37.5426 14.0774 37.5487 14.0701 37.5562 14.0643C37.5636 14.0585 37.5721 14.0544 37.5813 14.0522C37.5904 14.05 37.5999 14.0498 37.6092 14.0516C37.6184 14.0534 37.6271 14.0571 37.6348 14.0625C37.6425 14.0679 37.6489 14.075 37.6537 14.0831C37.6584 14.0912 37.6614 14.1002 37.6623 14.1096C37.6633 14.1189 37.6623 14.1284 37.6593 14.1373C37.6563 14.1462 37.6515 14.1544 37.6451 14.1613C37.0571 14.993 36.0035 15.4262 34.5983 15.4262H34.5971Z" fill="white"/>
<path d="M30.8026 34.7946C30.7855 34.7944 30.7692 34.7875 30.757 34.7754C30.7509 34.7693 30.746 34.762 30.7426 34.754C30.7393 34.7459 30.7376 34.7373 30.7376 34.7286C30.7376 34.7199 30.7393 34.7113 30.7426 34.7033C30.746 34.6952 30.7509 34.688 30.757 34.6818C33.8218 31.6 35.2114 25.3775 34.3846 18.4421C33.6298 12.1224 30.2326 9.80143 30.199 9.78223C30.1917 9.7776 30.1853 9.77154 30.1803 9.76441C30.1754 9.75727 30.1719 9.74921 30.1701 9.7407C30.1683 9.73219 30.1682 9.7234 30.1699 9.71487C30.1716 9.70633 30.175 9.69822 30.1798 9.69102C30.1896 9.67659 30.2047 9.66661 30.2217 9.66324C30.2388 9.65987 30.2565 9.66338 30.271 9.67302C30.3058 9.69582 33.751 12.042 34.5142 18.4265C35.347 25.4015 33.943 31.6648 30.8506 34.7742C30.8444 34.7807 30.8369 34.7858 30.8287 34.7893C30.8205 34.7928 30.8116 34.7946 30.8026 34.7946Z" fill="white"/>
<defs>
<filter id="filter0_f_20_617" x="0.912476" y="2.13818" width="45.4337" height="45.4337" filterUnits="userSpaceOnUse" color-interpolation-filters="sRGB">
<feFlood flood-opacity="0" result="BackgroundImageFix"/>
<feBlend mode="normal" in="SourceGraphic" in2="BackgroundImageFix" result="shape"/>
<feGaussianBlur stdDeviation="9" result="effect1_foregroundBlur_20_617"/>
</filter>
<filter id="filter1_f_20_617" x="15.3809" y="0.239014" width="34.5787" height="34.5787" filterUnits="userSpaceOnUse" color-interpolation-filters="sRGB">
<feFlood flood-opacity="0" result="BackgroundImageFix"/>
<feBlend mode="normal" in="SourceGraphic" in2="BackgroundImageFix" result="shape"/>
<feGaussianBlur stdDeviation="6" result="effect1_foregroundBlur_20_617"/>
</filter>
</defs>
</svg>
