<svg width="50" height="48" viewBox="0 0 50 48" fill="none" xmlns="http://www.w3.org/2000/svg">
<g filter="url(#filter0_f_20_655)">
<circle cx="23.6293" cy="24.855" r="4.71683" fill="#6B10FF"/>
</g>
<g filter="url(#filter1_f_20_655)">
<circle cx="32.6702" cy="17.5284" r="5.28935" fill="#00A3FF"/>
</g>
<path opacity="0.1" d="M21.1143 33.7638C20.2644 33.7649 19.4347 33.506 18.7371 33.0222L14.8479 30.3296C14.397 30.018 14.0121 29.6208 13.7153 29.1608C13.4186 28.7007 13.2157 28.1869 13.1183 27.6487C13.0208 27.1104 13.0308 26.5583 13.1477 26.0239C13.2645 25.4895 13.4858 24.9833 13.7991 24.5343L15.1959 22.5283C15.4338 22.1855 15.7583 21.9115 16.1367 21.7341C16.1756 21.4443 16.2676 21.1642 16.4079 20.9075L17.0223 19.7927C19.3863 15.4925 21.4287 11.7796 23.8479 10.0356C26.4879 8.14931 29.1951 7.19238 31.9179 7.19238C33.3672 7.19382 34.8034 7.4669 36.1515 7.9974C39.3027 9.23183 41.7363 11.7796 42.6615 14.8155C43.3995 17.2341 43.0707 19.6994 41.7615 21.5786C40.3719 23.5749 38.7963 24.6228 37.0815 24.6886H36.9147C36.1312 24.683 35.3635 24.4686 34.6911 24.0678C33.6519 25.7496 31.5711 26.496 29.5575 27.2196C27.8559 27.8309 27.3867 28.0797 27.2619 28.1766C27.0272 28.4974 26.7152 28.7541 26.3547 28.923C26.305 29.2938 26.1676 29.6476 25.9539 29.9552L24.5511 31.9756C24.165 32.5274 23.6509 32.9782 23.0525 33.2896C22.4542 33.6009 21.7892 33.7636 21.1143 33.7638ZM20.9679 28.7782L21.3159 28.2782L18.3999 26.2603L18.0519 26.7603L20.9679 28.7782ZM24.2403 24.5127C25.0479 23.8668 26.0799 23.4362 27.1899 23.0235C27.1455 22.9685 27.1035 22.9123 27.0699 22.8537C26.8944 22.5949 26.7722 22.3041 26.7104 21.9979C26.6486 21.6918 26.6484 21.3764 26.7099 21.0702H26.7327C26.8047 20.2771 27.4947 18.6468 27.8127 18.0547C28.0983 17.4375 29.1615 15.4518 31.2819 14.7413C31.7505 14.5977 32.2376 14.5232 32.7279 14.52C33.5435 14.5237 34.3447 14.7345 35.0559 15.1325C37.1415 16.2724 37.6119 17.9111 37.6527 19.136C37.7175 19.0523 37.7847 18.9614 37.8543 18.8609C38.3343 18.1719 38.4243 17.2246 38.1087 16.1935C37.6047 14.5368 36.2259 13.1277 34.4199 12.4208C33.6228 12.103 32.7727 11.9378 31.9143 11.9339C30.2343 11.9339 28.4607 12.5918 26.6559 13.8897C25.1079 15.0009 23.2227 18.4279 21.2271 22.0558L21.0843 22.3154L24.2403 24.5127Z" fill="#1DC5FF"/>
<path opacity="0.2" d="M21.1143 33.2399C20.3715 33.2414 19.6463 33.015 19.0371 32.5916L15.1443 29.899C14.7502 29.6266 14.4138 29.2794 14.1543 28.8774C13.8949 28.4753 13.7175 28.0262 13.6322 27.5558C13.547 27.0853 13.5556 26.6028 13.6575 26.1356C13.7594 25.6685 13.9527 25.226 14.2263 24.8333L15.6243 22.8274C15.8677 22.4758 16.2261 22.2195 16.6383 22.1025C16.6287 21.7731 16.7078 21.4472 16.8675 21.1587L17.4807 20.0439C19.8159 15.7999 21.8319 12.1349 24.1599 10.4603C26.6967 8.63615 29.3067 7.71631 31.9179 7.71631C33.3016 7.71728 34.6727 7.97821 35.9595 8.48544C38.9595 9.66126 41.2803 12.0847 42.1587 14.9662C42.8499 17.2305 42.5475 19.5319 41.3307 21.2783C40.0395 23.1324 38.6019 24.1061 37.0563 24.1694H36.9111C36.032 24.1611 35.1814 23.8577 34.4967 23.3082C34.4667 23.3764 34.4343 23.4434 34.4007 23.5116C33.5331 25.2388 31.4199 25.9984 29.3763 26.7316C28.7535 26.9553 27.0963 27.5486 26.8563 27.8416C26.612 28.1893 26.2553 28.4427 25.8459 28.5593C25.8562 28.9529 25.7406 29.3396 25.5159 29.6634L24.1203 31.6777C23.7821 32.1598 23.3323 32.5535 22.809 32.8254C22.2857 33.0974 21.7044 33.2395 21.1143 33.2399ZM21.1011 29.5067L22.0479 28.1455L18.2691 25.5319L17.3223 26.8919L21.1011 29.5067ZM24.2787 25.1754C25.2087 24.2867 26.6259 23.7795 28.1187 23.246L28.2459 23.1994C27.8722 23.0225 27.5683 22.7266 27.3823 22.3583C27.1962 21.99 27.1387 21.5704 27.2187 21.1659C27.435 20.1625 27.79 19.194 28.2735 18.2879C28.4715 17.8561 29.4615 15.8956 31.4379 15.2377C31.8525 15.1112 32.2835 15.0459 32.7171 15.044C33.4441 15.048 34.1582 15.2366 34.7919 15.5918C37.4931 17.0679 37.1859 19.3729 37.0167 20.4255C37.2267 20.3298 37.6863 20.0056 38.2755 19.1587C38.8479 18.337 38.9631 17.2293 38.6007 16.0404C38.0487 14.2378 36.5535 12.7031 34.5999 11.9375C33.7414 11.5968 32.8263 11.4199 31.9023 11.416C30.1023 11.416 28.2327 12.1062 26.3367 13.4686C24.6879 14.6504 22.7787 18.1277 20.7543 21.8094L20.3835 22.4805L24.2787 25.1754ZM31.0743 21.1587C30.9912 21.3991 30.9215 21.6439 30.8655 21.892C30.8521 21.9583 30.8349 22.0238 30.8139 22.0881C30.9163 22.0276 31.0047 21.9461 31.0731 21.8489C31.2579 21.4793 31.1931 21.2664 31.1607 21.2209C31.1307 21.2054 31.1019 21.1814 31.0743 21.1587Z" fill="#1DC5FF"/>
<path opacity="0.3" d="M21.1143 32.716C20.4786 32.717 19.8579 32.5237 19.3359 32.1622L15.4479 29.4696C15.1106 29.2362 14.8227 28.9389 14.6008 28.5946C14.3788 28.2503 14.227 27.8658 14.1541 27.463C14.0813 27.0603 14.0887 26.6471 14.176 26.2472C14.2633 25.8473 14.4288 25.4685 14.6631 25.1324L16.0599 23.1252C16.1827 22.9486 16.3466 22.8043 16.5377 22.7048C16.7287 22.6052 16.9411 22.5533 17.1567 22.5534C17.1939 22.5534 17.2311 22.5534 17.2683 22.5534C17.1923 22.3696 17.1585 22.1712 17.1695 21.9727C17.1805 21.7742 17.236 21.5807 17.3319 21.4063L17.9463 20.2915C20.2479 16.105 22.2363 12.4902 24.4683 10.8849C26.9127 9.12898 29.4195 8.24023 31.9179 8.24023C33.2358 8.24152 34.5417 8.48986 35.7675 8.97228C38.6223 10.0907 40.8243 12.3885 41.6571 15.1181C42.3003 17.2294 42.0231 19.3657 40.8987 20.9793C39.7071 22.6922 38.4063 23.5893 37.0347 23.6455C36.9927 23.6455 36.9519 23.6455 36.9147 23.6455C35.9283 23.6455 34.9719 23.1814 34.2747 22.3692C34.1933 22.6833 34.0783 22.9877 33.9315 23.2771C33.1587 24.8178 31.1463 25.5403 29.1999 26.2388C28.2063 26.5977 26.7135 27.1323 26.4303 27.5378C26.3074 27.7144 26.1435 27.8587 25.9525 27.9583C25.7614 28.0579 25.549 28.1098 25.3335 28.1096C25.2963 28.1096 25.2603 28.1096 25.2231 28.1096C25.3073 28.3147 25.339 28.5375 25.3151 28.7578C25.2912 28.9782 25.2125 29.1891 25.0863 29.3715L23.6895 31.3811C23.3997 31.7938 23.0143 32.1306 22.5659 32.363C22.1176 32.5954 21.6196 32.7165 21.1143 32.716ZM16.8507 26.6503C16.7817 26.7497 16.755 26.8722 16.7763 26.9912C16.7869 27.0499 16.8092 27.106 16.8417 27.1561C16.8743 27.2062 16.9165 27.2493 16.9659 27.2831L20.8587 29.9756C20.9347 30.0284 21.0252 30.0568 21.1179 30.0569C21.1919 30.0569 21.2648 30.039 21.3304 30.0049C21.396 29.9707 21.4523 29.9213 21.4947 29.8608L22.7799 28.0139C22.7529 27.9983 22.7268 27.9811 22.7019 27.9625L18.3339 24.941C18.2679 24.894 18.2061 24.8416 18.1491 24.7843L16.8507 26.6503ZM19.6899 22.6539C19.7473 22.6831 19.8027 22.7163 19.8555 22.7532L24.2247 25.7747C24.2679 25.8058 24.3099 25.8381 24.3447 25.8728C25.1511 24.862 26.6775 24.3178 28.2903 23.7388C29.3955 23.3405 31.2435 22.6767 31.5375 22.0905C31.8651 21.4338 31.6875 20.9733 31.4883 20.8238C31.2199 20.6243 31.0376 20.3305 30.9783 20.002C30.7018 20.57 30.4901 21.167 30.3471 21.7819C30.2773 22.1267 30.0733 22.4298 29.7798 22.6251C29.4863 22.8203 29.1272 22.8918 28.7811 22.8238C28.4351 22.7558 28.1303 22.554 27.9331 22.2627C27.7359 21.9713 27.6624 21.614 27.7287 21.2688C27.9371 20.3098 28.2771 19.3841 28.7391 18.5176C28.8507 18.2712 29.7735 16.3442 31.6011 15.7318C31.9631 15.6261 32.3386 15.5729 32.7159 15.5739C33.3544 15.5765 33.9817 15.7411 34.5387 16.0523C36.9771 17.3837 36.6447 19.4303 36.4863 20.4135C36.4719 20.4996 36.4467 20.6528 36.4323 20.7724C36.5633 20.8946 36.7331 20.9674 36.9123 20.9781C37.2867 20.9638 37.9419 20.5559 38.7123 19.4542C39.3783 18.4973 39.5187 17.2294 39.1083 15.8849C38.5083 13.9256 36.9003 12.2653 34.7979 11.4423C33.8784 11.0768 32.8981 10.8873 31.9083 10.8837C29.9991 10.8837 28.0239 11.6014 26.0355 13.0368C24.2883 14.2952 22.3479 17.8226 20.2935 21.5547L19.6899 22.6539ZM32.2971 18.4291C32.5866 18.4287 32.8683 18.5233 33.0987 18.6982C33.4254 18.9467 33.7008 19.2558 33.9099 19.6085C33.9867 19.0104 33.9099 18.7497 33.2547 18.3896C33.0844 18.284 32.8907 18.2216 32.6907 18.2078C32.6232 18.2077 32.5563 18.2207 32.4939 18.2461L32.4591 18.2592C32.3372 18.3022 32.2227 18.3635 32.1195 18.4411C32.1784 18.4335 32.2377 18.4295 32.2971 18.4291Z" fill="#1DC5FF"/>
<path opacity="0.65" d="M19.6358 31.7316L15.743 29.039C15.4623 28.8451 15.2227 28.5979 15.0379 28.3116C14.853 28.0253 14.7266 27.7055 14.6657 27.3705C14.6049 27.0355 14.6109 26.6918 14.6833 26.3591C14.7557 26.0264 14.8932 25.7112 15.0878 25.4314L16.4858 23.4243C16.6082 23.2485 16.7956 23.1284 17.0068 23.0904C17.218 23.0524 17.4357 23.0996 17.612 23.2215C17.7884 23.3435 17.9088 23.5303 17.947 23.7408C17.9851 23.9514 17.9378 24.1684 17.8154 24.3441L16.4198 26.3525C16.271 26.5646 16.2126 26.827 16.2576 27.082C16.3026 27.337 16.4473 27.5637 16.6598 27.7125L20.5586 30.4062C20.6647 30.48 20.7843 30.5321 20.9106 30.5596C21.0369 30.5871 21.1674 30.5895 21.2946 30.5666C21.4218 30.5437 21.5433 30.496 21.6519 30.4262C21.7606 30.3564 21.8544 30.2659 21.9278 30.1598L23.3234 28.1527C23.4458 27.9766 23.6333 27.8562 23.8448 27.818C24.0562 27.7797 24.2742 27.8268 24.4508 27.9487C24.6275 28.0707 24.7483 28.2576 24.7866 28.4684C24.825 28.6791 24.7778 28.8965 24.6554 29.0725L23.2562 31.0809C22.8616 31.6444 22.2592 32.0291 21.5808 32.1511C20.9023 32.273 20.203 32.1222 19.6358 31.7316ZM24.8714 27.4446C24.7841 27.3842 24.7095 27.3072 24.652 27.218C24.5945 27.1288 24.5552 27.0292 24.5364 26.9249C24.5175 26.8206 24.5195 26.7136 24.5422 26.61C24.5649 26.5064 24.6079 26.4084 24.6686 26.3214C25.3418 25.3537 26.8622 24.807 28.4726 24.2317C29.8754 23.7269 31.6238 23.0977 32.0114 22.3238C32.453 21.441 32.2166 20.7102 31.8086 20.41C31.7191 20.348 31.643 20.2687 31.5849 20.1768C31.5268 20.0849 31.488 19.9822 31.4707 19.8749C31.4533 19.7677 31.4579 19.658 31.4841 19.5526C31.5103 19.4471 31.5576 19.348 31.6231 19.2612C31.6886 19.1743 31.771 19.1016 31.8654 19.0473C31.9598 18.993 32.0642 18.9582 32.1724 18.9451C32.2806 18.932 32.3904 18.9407 32.4951 18.9709C32.5998 19.001 32.6973 19.0519 32.7818 19.1205C33.7082 19.8143 34.3166 21.3418 33.461 23.0511C32.7818 24.4027 30.8702 25.0845 29.021 25.7532C27.7826 26.1982 26.381 26.7029 25.9994 27.2472C25.8759 27.4222 25.6878 27.5412 25.4764 27.5782C25.2649 27.6152 25.0474 27.5671 24.8714 27.4446ZM37.013 23.1228C36.1238 23.1575 35.255 22.7413 34.6286 21.9793C34.1486 21.4016 34.2686 20.697 34.3694 20.0762C34.5134 19.1827 34.619 18.538 33.5078 17.9303C33.071 17.6911 32.6678 17.6086 32.2922 17.7629C31.4702 18.0368 30.8402 19.0882 30.6662 19.4698C30.2932 20.1648 30.0144 20.9061 29.837 21.6743C29.7963 21.8843 29.6735 22.0696 29.4958 22.1894C29.318 22.3092 29.0997 22.3537 28.889 22.313C28.6784 22.2724 28.4925 22.1501 28.3723 21.9729C28.2521 21.7956 28.2075 21.5781 28.2482 21.3681C28.4478 20.4557 28.7733 19.5754 29.2154 18.7521C29.2802 18.6014 30.1346 16.7808 31.7714 16.2318C32.1882 16.1035 32.627 16.062 33.0605 16.11C33.494 16.1579 33.913 16.2942 34.2914 16.5105C36.4046 17.666 36.1334 19.3346 35.9714 20.331C35.9354 20.5547 35.8802 20.8932 35.9102 20.9937C36.0302 21.1265 36.4178 21.526 36.953 21.5056C37.595 21.4793 38.375 20.8597 39.1418 19.7569C39.9086 18.654 40.0682 17.2449 39.6098 15.7366C38.9678 13.6289 37.2338 11.8443 34.9826 10.9639C31.9958 9.79407 28.8806 10.3503 25.7222 12.6194C23.8814 13.9352 21.911 17.5236 19.8218 21.325L19.2074 22.4422C19.1039 22.6299 18.9297 22.7688 18.7234 22.8285C18.517 22.8882 18.2953 22.8637 18.107 22.7604C17.9188 22.6571 17.7794 22.4836 17.7195 22.2779C17.6597 22.0722 17.6843 21.8512 17.7878 21.6635L18.4022 20.5475C20.675 16.4112 22.6382 12.8467 24.7754 11.3096C29.3054 8.05725 33.1466 8.51059 35.5754 9.46034C38.2814 10.5201 40.367 12.69 41.153 15.2713C41.753 17.227 41.4986 19.1983 40.4654 20.6803C39.635 21.8765 38.4674 23.063 37.013 23.1228ZM23.7182 27.6348C23.5985 27.6748 23.471 27.6864 23.346 27.6685C23.221 27.6507 23.1019 27.6039 22.9982 27.5319L18.6326 24.508C18.5453 24.4476 18.4708 24.3707 18.4134 24.2815C18.3559 24.1924 18.3166 24.0929 18.2977 23.9887C18.2788 23.8844 18.2807 23.7775 18.3033 23.674C18.3259 23.5705 18.3687 23.4724 18.4292 23.3854C18.5516 23.2097 18.739 23.0896 18.9502 23.0515C19.0548 23.0327 19.1621 23.0346 19.2659 23.0571C19.3698 23.0796 19.4681 23.1223 19.5554 23.1827L23.9246 26.2053C24.1011 26.3274 24.2216 26.5142 24.2599 26.7248C24.2982 26.9355 24.2509 27.1526 24.1286 27.3285C24.0283 27.4718 23.8844 27.5791 23.7182 27.6348Z" fill="#1DC5FF"/>
<path d="M36.9999 22.7999C35.8815 22.8442 35.1447 22.0977 34.8795 21.7736C34.4967 21.3083 34.5951 20.709 34.6887 20.1277C34.8363 19.221 34.9755 18.3645 33.6627 17.6469C33.1443 17.3634 32.6631 17.3 32.1927 17.4555C31.0659 17.8323 30.3819 19.3203 30.3747 19.3346C29.9905 20.0535 29.7044 20.8202 29.5239 21.6145C29.5117 21.6769 29.4874 21.7364 29.4522 21.7894C29.417 21.8425 29.3717 21.8881 29.3188 21.9237C29.2659 21.9593 29.2065 21.9842 29.144 21.9969C29.0815 22.0096 29.0171 22.01 28.9545 21.9979C28.8918 21.9858 28.8322 21.9615 28.7789 21.9264C28.7257 21.8914 28.6799 21.8462 28.6442 21.7935C28.6085 21.7408 28.5836 21.6816 28.5708 21.6193C28.558 21.5569 28.5577 21.4927 28.5699 21.4303C28.7645 20.5504 29.0791 19.7013 29.5047 18.9064C29.5227 18.8633 30.3447 17.0524 31.8807 16.538H31.8915C32.6223 16.2988 33.3771 16.3849 34.1355 16.7988C36.0483 17.8454 35.8095 19.3107 35.6523 20.2832C35.5923 20.6528 35.5323 21.0356 35.6355 21.1624C35.8095 21.3729 36.2847 21.8597 36.9675 21.8334C37.7223 21.8023 38.5695 21.1492 39.4095 19.9459C40.2255 18.7736 40.4067 17.2461 39.9195 15.6481C39.2487 13.4436 37.4487 11.5811 35.1063 10.6637C32.0079 9.44959 28.7847 10.0214 25.5279 12.3562C23.6283 13.7223 21.6399 17.3394 19.5339 21.1683L18.9279 22.2867C18.8621 22.3928 18.758 22.4696 18.637 22.5012C18.516 22.5329 18.3874 22.5169 18.2779 22.4566C18.1684 22.3964 18.0863 22.2964 18.0487 22.1775C18.0111 22.0586 18.0208 21.9298 18.0759 21.8178L18.6879 20.7042C20.9403 16.605 22.8879 13.062 24.9651 11.5728C29.3679 8.40295 33.1047 8.83835 35.4579 9.76059C38.0739 10.7845 40.0863 12.8802 40.8447 15.3646C41.4111 17.2258 41.1771 19.0954 40.2027 20.4973C39.4323 21.6025 38.3451 22.7413 36.9999 22.7999Z" fill="#00F9FF"/>
<path d="M25.0563 27.1766C25.0035 27.1407 24.9584 27.0946 24.9237 27.0411C24.889 26.9876 24.8654 26.9278 24.8542 26.865C24.843 26.8023 24.8445 26.738 24.8586 26.6758C24.8727 26.6137 24.8991 26.555 24.9363 26.5032C25.5519 25.6204 27.0243 25.0917 28.5843 24.5331C30.1191 23.9805 31.8579 23.3573 32.3043 22.4661C32.8299 21.4183 32.5179 20.5295 32.0067 20.1456C31.9037 20.0685 31.8357 19.9538 31.8176 19.8267C31.7995 19.6996 31.8327 19.5706 31.9101 19.468C31.9874 19.3653 32.1025 19.2975 32.23 19.2795C32.3575 19.2614 32.4869 19.2946 32.5899 19.3717C33.4131 19.9877 33.9471 21.3561 33.1731 22.8991C32.5527 24.136 30.7023 24.7998 28.9131 25.4422C27.5655 25.9206 26.1723 26.4266 25.7343 27.0546C25.6984 27.1077 25.6523 27.1532 25.5985 27.1882C25.5447 27.2233 25.4844 27.2472 25.4212 27.2585C25.3579 27.2699 25.2931 27.2685 25.2304 27.2545C25.1677 27.2404 25.1085 27.2139 25.0563 27.1766Z" fill="#00F9FF"/>
<path d="M19.8206 31.4672L15.9278 28.7723C15.4346 28.4287 15.0977 27.9047 14.9905 27.3145C14.8833 26.7243 15.0144 26.1158 15.3554 25.6216L16.7534 23.6145C16.7897 23.5623 16.836 23.5178 16.8896 23.4835C16.9432 23.4492 17.003 23.4257 17.0657 23.4144C17.1284 23.4031 17.1927 23.4043 17.2549 23.4178C17.3171 23.4313 17.3761 23.4569 17.4284 23.4931C17.4807 23.5293 17.5254 23.5754 17.5598 23.6288C17.5943 23.6822 17.6178 23.7419 17.6291 23.8043C17.6404 23.8668 17.6393 23.9309 17.6257 23.9929C17.6122 24.055 17.5865 24.1138 17.5502 24.1659L16.1534 26.1671C15.9559 26.4507 15.8795 26.8009 15.9409 27.1408C16.0024 27.4806 16.1966 27.7821 16.481 27.9793L20.3738 30.6718C20.6585 30.8677 21.0094 30.9432 21.3498 30.8821C21.6902 30.8209 21.9925 30.6279 22.1906 30.3453L23.5874 28.3357C23.6238 28.2835 23.6702 28.2389 23.7239 28.2045C23.7775 28.1702 23.8375 28.1467 23.9003 28.1354C23.9631 28.1241 24.0275 28.1253 24.0898 28.1388C24.1522 28.1524 24.2112 28.178 24.2636 28.2143C24.316 28.2506 24.3607 28.2968 24.3952 28.3503C24.4297 28.4038 24.4532 28.4636 24.4646 28.5262C24.4759 28.5888 24.4747 28.653 24.4611 28.7151C24.4475 28.7772 24.4218 28.8361 24.3854 28.8883L22.9898 30.8967C22.645 31.3907 22.1177 31.7281 21.5236 31.8351C20.9294 31.9421 20.317 31.8098 19.8206 31.4672Z" fill="#00F9FF"/>
<path d="M23.6174 27.3285C23.5456 27.3518 23.4694 27.3584 23.3947 27.3476C23.32 27.3368 23.2488 27.309 23.1866 27.2663L18.8174 24.2424C18.7651 24.2062 18.7204 24.1601 18.686 24.1067C18.6516 24.0532 18.628 23.9936 18.6167 23.9311C18.5939 23.8049 18.6223 23.6749 18.6956 23.5696C18.769 23.4642 18.8813 23.3923 19.0079 23.3695C19.1345 23.3467 19.265 23.375 19.3706 23.4481L23.741 26.4708C23.8148 26.5221 23.8729 26.5927 23.9089 26.6749C23.9449 26.7571 23.9574 26.8476 23.945 26.9364C23.9326 27.0252 23.8957 27.1088 23.8385 27.178C23.7814 27.2472 23.7061 27.2993 23.621 27.3285H23.6174Z" fill="#00F9FF"/>
<path d="M36.9879 22.4769C36.0147 22.5164 35.3643 21.8561 35.1303 21.5702C34.8399 21.2114 34.9215 20.7126 35.0103 20.1791C35.1603 19.2473 35.3319 18.1911 33.8199 17.3645C33.2199 17.0392 32.6451 16.9674 32.0919 17.1492H32.0835C30.8199 17.5715 30.0831 19.1827 30.0759 19.2018C29.6793 19.9432 29.3854 20.7346 29.2023 21.5547C29.1933 21.5962 29.1685 21.6326 29.1331 21.6562C29.0978 21.6799 29.0546 21.6889 29.0127 21.6815C28.9704 21.6733 28.9331 21.6489 28.9089 21.6135C28.8846 21.5782 28.8753 21.5347 28.8831 21.4925C29.0715 20.6448 29.3751 19.8266 29.7855 19.0607C29.8119 19.0009 30.5787 17.3143 31.9779 16.8454H31.9887C32.6295 16.6337 33.2991 16.7126 33.9747 17.0846C35.6883 18.0212 35.4795 19.3011 35.3283 20.2353C35.2503 20.7138 35.1831 21.1289 35.3799 21.3705C35.5767 21.6121 36.1467 22.1922 36.9759 22.1587C37.8483 22.1241 38.7579 21.441 39.6699 20.1348C40.5435 18.8777 40.7415 17.2509 40.2243 15.5572C39.5247 13.2593 37.6539 11.3192 35.2203 10.3658C32.0163 9.11226 28.6923 9.69598 25.3443 12.1003C23.3847 13.5034 21.4707 16.9842 19.2543 21.0152L18.6387 22.13C18.6293 22.15 18.6158 22.1679 18.5992 22.1825C18.5826 22.1971 18.5632 22.2082 18.5421 22.215C18.521 22.2218 18.4988 22.2243 18.4767 22.2222C18.4547 22.2201 18.4333 22.2135 18.4139 22.2029C18.3944 22.1922 18.3774 22.1777 18.3639 22.1602C18.3503 22.1428 18.3405 22.1227 18.335 22.1013C18.3296 22.0799 18.3286 22.0576 18.3321 22.0358C18.3356 22.014 18.3435 21.9931 18.3555 21.9745L18.9699 20.8585C21.2079 16.794 23.1363 13.2845 25.1547 11.8335C28.5987 9.35986 32.0247 8.76179 35.3391 10.0608C37.8639 11.05 39.8079 13.062 40.5339 15.4543C41.0727 17.2198 40.8555 18.9889 39.9339 20.3071C39.2391 21.3155 38.2143 22.4291 36.9879 22.4769Z" fill="white"/>
<path d="M25.2398 26.9146C25.2047 26.89 25.1808 26.8525 25.1733 26.8103C25.1659 26.7682 25.1756 26.7248 25.2002 26.6897C25.7558 25.8907 27.1826 25.3739 28.691 24.8381C30.3614 24.24 32.087 23.618 32.5922 22.6132C33.1994 21.4003 32.8142 20.3501 32.1986 19.8896C32.1815 19.8769 32.167 19.8611 32.1561 19.8428C32.1452 19.8246 32.138 19.8043 32.135 19.7833C32.132 19.7623 32.1332 19.7408 32.1385 19.7203C32.1439 19.6997 32.1533 19.6804 32.1662 19.6635C32.1788 19.6464 32.1946 19.632 32.2128 19.6212C32.231 19.6103 32.2512 19.6031 32.2722 19.6001C32.2933 19.5971 32.3146 19.5983 32.3352 19.6037C32.3557 19.609 32.375 19.6184 32.3918 19.6312C33.1118 20.1707 33.5714 21.38 32.8814 22.7568C32.3186 23.8776 30.5306 24.5211 28.8014 25.1419C27.341 25.6658 25.9622 26.1598 25.4666 26.8727C25.4419 26.908 25.4043 26.9321 25.3618 26.94C25.3194 26.9478 25.2756 26.9387 25.2398 26.9146Z" fill="white"/>
<path d="M20.0078 31.2017L16.1114 28.5091C15.9007 28.3633 15.721 28.1776 15.5823 27.9625C15.4437 27.7474 15.349 27.5072 15.3035 27.2556C15.258 27.004 15.2628 26.7459 15.3174 26.4962C15.372 26.2464 15.4754 26.0098 15.6218 25.7999L17.0186 23.7939C17.0297 23.7745 17.0447 23.7575 17.0626 23.7442C17.0806 23.7308 17.1012 23.7213 17.123 23.7163C17.1449 23.7113 17.1675 23.7108 17.1895 23.715C17.2116 23.7191 17.2325 23.7278 17.251 23.7404C17.2695 23.753 17.2852 23.7693 17.297 23.7883C17.3089 23.8073 17.3166 23.8285 17.3198 23.8506C17.323 23.8727 17.3216 23.8953 17.3156 23.9168C17.3096 23.9383 17.2992 23.9584 17.285 23.9757L15.8882 25.9805C15.6416 26.3342 15.546 26.7711 15.6225 27.1951C15.6991 27.619 15.9414 27.9953 16.2962 28.2412L20.189 30.9338C20.5441 31.179 20.9822 31.2738 21.4073 31.1976C21.8325 31.1214 22.2099 30.8802 22.457 30.5271L23.8538 28.5187C23.8653 28.5 23.8805 28.4839 23.8985 28.4712C23.9165 28.4586 23.9368 28.4497 23.9584 28.4452C23.9799 28.4406 24.0021 28.4405 24.0237 28.4448C24.0453 28.4491 24.0657 28.4577 24.0838 28.4702C24.102 28.4826 24.1173 28.4986 24.129 28.5172C24.1408 28.5357 24.1486 28.5565 24.152 28.5782C24.1554 28.5998 24.1543 28.622 24.1488 28.6432C24.1434 28.6644 24.1336 28.6844 24.1202 28.7017L22.7234 30.7113C22.4274 31.1338 21.9757 31.4224 21.467 31.5143C20.9583 31.6062 20.4337 31.4938 20.0078 31.2017Z" fill="white"/>
<path d="M23.5143 27.0223C23.4902 27.03 23.4647 27.032 23.4398 27.0283C23.4148 27.0246 23.391 27.0151 23.3703 27.0008L19.0011 23.9781C18.9661 23.9537 18.9421 23.9165 18.9345 23.8746C18.9269 23.8327 18.9361 23.7895 18.9603 23.7544C18.9848 23.7189 19.0225 23.6945 19.065 23.6867C19.1075 23.6788 19.1514 23.6881 19.1871 23.7125L23.5563 26.7352C23.5914 26.7598 23.6154 26.7973 23.6228 26.8395C23.6302 26.8817 23.6205 26.925 23.5959 26.9601C23.5769 26.9898 23.548 27.0118 23.5143 27.0223Z" fill="white"/>
<defs>
<filter id="filter0_f_20_655" x="0.912476" y="2.13818" width="45.4337" height="45.4337" filterUnits="userSpaceOnUse" color-interpolation-filters="sRGB">
<feFlood flood-opacity="0" result="BackgroundImageFix"/>
<feBlend mode="normal" in="SourceGraphic" in2="BackgroundImageFix" result="shape"/>
<feGaussianBlur stdDeviation="9" result="effect1_foregroundBlur_20_655"/>
</filter>
<filter id="filter1_f_20_655" x="15.3809" y="0.239014" width="34.5787" height="34.5787" filterUnits="userSpaceOnUse" color-interpolation-filters="sRGB">
<feFlood flood-opacity="0" result="BackgroundImageFix"/>
<feBlend mode="normal" in="SourceGraphic" in2="BackgroundImageFix" result="shape"/>
<feGaussianBlur stdDeviation="6" result="effect1_foregroundBlur_20_655"/>
</filter>
</defs>
</svg>
