<svg width="31" height="15" viewBox="0 0 31 15" fill="none" xmlns="http://www.w3.org/2000/svg">
<path d="M16 0H29C30.1046 0 31 0.895431 31 2V13C31 14.1046 30.1046 15 29 15H16V0Z" fill="green"/>
<path d="M15 0H2C0.89543 0 0 0.895431 0 2V13C0 14.1046 0.895431 15 2 15H15V0Z" fill="green"/>
<path fill-rule="evenodd" clip-rule="evenodd" d="M16 0H15V3.02746C12.75 3.27619 11 5.18372 11 7.5C11 9.81628 12.75 11.7238 15 11.9725V15H16V11.9725C18.25 11.7238 20 9.81628 20 7.5C20 5.18372 18.25 3.27619 16 3.02746V0ZM15 4.03544C13.3039 4.27806 12 5.73676 12 7.5C12 9.26324 13.3039 10.7219 15 10.9646V4.03544ZM16 10.9646V4.03544C17.6961 4.27806 19 5.73676 19 7.5C19 9.26324 17.6961 10.7219 16 10.9646Z" fill="white"/>
<path d="M4 3.5H4.5V3H4V3.5ZM4 11.5V12H4.5V11.5H4ZM3.5 3.5V11.5H4.5V3.5H3.5ZM0 4H4V3H0V4ZM4 11H0V12H4V11Z" fill="#ffffff"/>
<path d="M27 3.5V3H26.5V3.5H27ZM27 11.5H26.5V12H27V11.5ZM26.5 3.5V11.5H27.5V3.5H26.5ZM31 3H27V4H31V3ZM27 12H31V11H27V12Z" fill="#ffffff"/>
</svg>
