<svg width="50" height="48" viewBox="0 0 50 48" fill="none" xmlns="http://www.w3.org/2000/svg">
<g filter="url(#filter0_f_20_576)">
<circle cx="23.6293" cy="24.855" r="4.71683" fill="#6B10FF"/>
</g>
<g filter="url(#filter1_f_20_576)">
<circle cx="32.6702" cy="17.5284" r="5.28935" fill="#00A3FF"/>
</g>
<path opacity="0.1" d="M28.0333 37.3944C27.3647 37.3947 26.6968 37.3493 26.0341 37.2586L25.7521 37.2169C25.7305 37.2169 25.6045 37.1937 25.5697 37.1863L25.2313 37.1239V37.1398L24.7729 37.0247L24.3013 36.9121L24.1885 36.8815C24.1405 36.868 24.0781 36.8509 24.0157 36.8313C23.9953 36.8313 23.7361 36.7481 23.7097 36.7395C23.6833 36.7309 23.5897 36.7015 23.4865 36.6673L23.4037 36.6403C23.2837 36.5987 23.1637 36.5571 23.0437 36.5179L22.7329 36.4028L22.4329 36.2804C22.3753 36.2572 22.3129 36.229 22.2493 36.2021C22.1185 36.147 22.0093 36.1005 21.9145 36.0552C21.8785 36.0405 21.8389 36.0221 21.7885 35.9988L21.7573 35.9829C21.7381 35.9756 21.6505 35.934 21.5617 35.8911L21.2905 35.7552L21.0337 35.6218C20.9305 35.5679 20.8441 35.5202 20.7613 35.4737L20.6101 35.3867L20.5993 35.4002L20.2285 35.1737L19.9153 34.9656L19.6621 34.7881L18.3325 33.8198L18.3493 33.7647C16.699 32.3233 15.3719 30.5367 14.458 28.526C13.5441 26.5153 13.0648 24.3277 13.0525 22.1114C13.0497 18.679 14.1798 15.3456 16.2605 12.6483C18.3412 9.95098 21.2514 8.04679 24.5223 7.24256C27.7931 6.43832 31.2341 6.78086 34.2909 8.21499C37.3477 9.64913 39.8422 12.0913 41.3725 15.1481C41.4925 15.3807 41.6053 15.6243 41.7145 15.8692L41.8957 16.305C41.9233 16.3736 41.9413 16.4274 41.9557 16.4642C41.9701 16.5009 42.0193 16.6257 42.0577 16.7323L42.5869 18.194L42.5281 18.2184C42.8881 19.5234 43.1977 21.3022 42.9817 23.0639C42.5305 31.0861 35.9797 37.3798 28.0609 37.3944H28.0333ZM24.8257 31.9051L24.9133 31.9443C24.9817 31.9749 25.0453 32.003 25.1077 32.0287L25.3345 32.1193L25.4869 32.1756L25.5793 32.2075L25.7641 32.2699L25.9117 32.3164L26.1625 32.3862L26.3929 32.4437L26.5249 32.4743L26.6449 32.5001C26.8273 32.5356 26.9869 32.5625 27.1621 32.5882C27.2065 32.5882 27.2545 32.6017 27.3013 32.6066L27.4489 32.6237C27.4897 32.6237 27.6985 32.6506 27.7177 32.6531L27.8905 32.6678C28.8157 32.5613 29.4505 32.2907 29.8549 32.0324C29.7073 31.3921 29.5837 30.8608 29.4817 30.4311C28.3577 30.2297 27.2645 29.879 26.2297 29.3881C25.6753 29.6587 24.8413 30.0651 24.0997 30.4189L23.3725 30.8033C23.4157 30.9429 23.4673 31.0885 23.5261 31.2403C23.6607 31.2861 23.7893 31.3485 23.9089 31.4264L23.9245 31.435L24.1237 31.5476L24.2785 31.6333L24.4069 31.7007C24.4885 31.7423 24.5677 31.7827 24.6469 31.8231C24.6505 31.8194 24.8017 31.8916 24.8257 31.9051ZM32.8237 29.617C32.9281 30.0504 33.0361 30.5168 33.1321 30.9355C34.5589 30.6295 35.4121 30.2916 35.7469 30.0676L35.7757 30.0272C36.1549 29.2902 36.4562 28.5142 36.6745 27.7122L35.5201 27.1686C34.8073 27.8787 33.7189 28.9266 32.8237 29.6134V29.617ZM19.7065 24.9651C20.1049 25.6873 20.8321 26.8332 21.8305 27.6767L22.5733 27.2813C23.1229 27.0181 23.6857 26.7451 24.1585 26.5149C23.9185 25.4707 23.6077 24.0444 23.4061 23.0871L20.7517 22.4628C20.2771 23.2355 19.9244 24.0795 19.7065 24.9638V24.9651ZM27.6109 26.177C28.5088 26.6157 29.4698 26.905 30.4573 27.034C30.7957 26.8197 31.8205 25.975 33.2533 24.528C33.0301 23.1055 32.7901 21.8348 32.6041 21.1002C32.1025 20.8786 30.8041 20.4881 29.0113 20.1356L26.7325 22.1849C26.9269 23.1275 27.3565 25.1389 27.6109 26.1758V26.177ZM37.8433 24.4019C38.1475 23.8094 38.4106 23.1958 38.6305 22.5656C38.6377 22.4824 38.6425 22.3954 38.6437 22.3073C38.6329 20.9864 37.9861 19.3496 37.6645 18.5759C37.5169 18.5061 37.3369 18.4278 37.1317 18.3458L35.9317 20.2347C36.1393 21.0696 36.3901 22.3734 36.6205 23.8229L37.8433 24.4019ZM17.7325 17.8169C17.1821 19.1788 16.9011 20.6383 16.9057 22.1114C16.9057 22.2253 16.9057 22.3404 16.9057 22.4542C17.2035 21.6968 17.5814 20.9747 18.0325 20.3008L17.7325 17.8169ZM24.2977 19.6997L26.6977 17.5439C26.5777 16.4825 26.4193 15.2179 26.3101 14.394C25.6289 14.1739 24.925 14.0346 24.2125 13.979L24.1381 13.9717C23.0103 14.6943 21.9682 15.5475 21.0325 16.5143L21.3397 19.0044L24.2977 19.6997ZM30.0685 16.7788C31.1257 16.9955 32.4349 17.3064 33.4609 17.6871L34.5649 15.9488C33.9578 15.0848 33.2407 14.3072 32.4325 13.6362C31.5238 13.7354 30.6258 13.9182 29.7493 14.1822C29.8525 15.0012 29.9821 16.0393 30.0685 16.7788ZM26.6461 10.8487C27.0162 10.9408 27.3798 11.0582 27.7345 11.2001C28.1079 11.0435 28.4893 10.9075 28.8769 10.7924C28.5973 10.7716 28.3153 10.7606 28.0369 10.7606C27.5719 10.7603 27.1074 10.7897 26.6461 10.8487Z" fill="#1DC5FF"/>
<path opacity="0.2" d="M28.0333 36.8962C27.3863 36.8965 26.74 36.8523 26.0989 36.764C26.0065 36.7517 25.9177 36.7395 25.8277 36.7248C25.8277 36.7248 25.6981 36.704 25.6645 36.6966L25.3681 36.644C25.2781 36.6256 25.2121 36.6134 25.1449 36.5975C25.0777 36.5816 24.9721 36.5608 24.8809 36.5387L24.9397 36.2743L24.8737 36.5375L24.6217 36.4763C24.5197 36.4506 24.4369 36.4298 24.3565 36.4077L24.3157 36.3955C24.2677 36.3832 24.2125 36.3673 24.1561 36.3502C24.1213 36.3404 23.8837 36.2694 23.8609 36.2608C23.8189 36.2498 23.7289 36.2204 23.6389 36.1898L23.5537 36.1617C23.4337 36.1213 23.3137 36.0821 23.2021 36.0392L22.8925 35.9242L22.6081 35.8103L22.4317 35.7356C22.3009 35.6806 22.1989 35.6353 22.1005 35.5912L21.9877 35.5385L21.9565 35.5239C21.9217 35.5092 21.8449 35.4724 21.7681 35.4345L21.4981 35.2998L21.2581 35.1774L20.9917 35.0329L20.8357 34.9424C20.7241 34.8762 20.6125 34.8089 20.5021 34.7391L20.4925 34.7514L20.1853 34.5494L19.9453 34.3792L18.9145 33.6288L18.9241 33.6006C16.5942 31.6786 14.9058 29.0669 14.0916 26.1252C13.2773 23.1835 13.3772 20.0566 14.3775 17.1752C15.3778 14.2938 17.2293 11.7998 19.6769 10.0366C22.1245 8.27347 25.0478 7.32795 28.0441 7.33033C30.711 7.32784 33.3267 8.07836 35.6014 9.49879C37.8761 10.9192 39.721 12.9542 40.9321 15.3783C41.0461 15.6035 41.1577 15.8386 41.2621 16.0761L41.4397 16.5021C41.4637 16.5621 41.4805 16.6049 41.4937 16.6453C41.5069 16.6857 41.5549 16.8008 41.5933 16.9073L41.9605 17.9112L41.9329 17.9222C42.3217 19.2137 42.7297 21.137 42.4957 23.021C42.0661 30.7874 35.7325 36.8815 28.0609 36.8962H28.0333ZM26.1973 32.9053C26.2333 32.9138 26.2645 32.9224 26.2957 32.9285L26.4337 32.9604L26.5609 32.9861C26.7469 33.0228 26.9125 33.0522 27.0961 33.0779L27.2533 33.0987L27.3937 33.1158L27.6745 33.1452L27.8989 33.166C29.1493 33.0301 29.9389 32.6164 30.4093 32.2454C30.1873 31.2734 30.0145 30.5315 29.8825 29.9855C28.6152 29.7931 27.3842 29.4042 26.2321 28.8323C25.6981 29.0931 24.7369 29.5669 23.8969 29.9635L22.8013 30.5487C22.893 30.9312 23.0175 31.3048 23.1733 31.6651C23.347 31.6916 23.5132 31.7559 23.6605 31.8537L23.6893 31.8708L23.8969 31.9871L24.0493 32.0716L24.1885 32.1438C24.2773 32.1903 24.3649 32.2344 24.4513 32.2748L24.6313 32.3593L24.7177 32.3972L24.9253 32.4878L25.1653 32.5845L25.3213 32.6421L25.4281 32.68L25.6081 32.74C25.6729 32.7608 25.7209 32.7767 25.7701 32.7902C25.8601 32.8171 25.9501 32.8428 26.0365 32.8649L26.1973 32.9053ZM32.2717 29.4077C32.4349 30.0835 32.6317 30.9086 32.7637 31.5158C34.3417 31.211 35.5885 30.8058 36.0853 30.4311C36.1265 30.3806 36.1646 30.3275 36.1993 30.272C36.665 29.3732 37.0177 28.4182 37.2493 27.4294C36.6829 27.1637 35.9917 26.8393 35.4841 26.5994L35.4181 26.5688C34.6777 27.318 33.2821 28.6867 32.2717 29.4077ZM17.3917 26.8663C18.1957 28.7454 19.5133 30.1839 20.3917 30.998C20.3391 30.7504 20.3014 30.4998 20.2789 30.2475C18.9865 29.2633 18.0301 27.9521 17.3869 26.8663H17.3917ZM19.1917 25.0299C19.5841 25.7645 20.4853 27.2751 21.7825 28.2643L22.8061 27.7195C23.4841 27.3951 24.2029 27.045 24.7333 26.7867C24.4525 25.6286 24.0409 23.7017 23.8237 22.6684L20.5405 21.896C19.8978 22.8442 19.438 23.9086 19.1857 25.0324L19.1917 25.0299ZM27.1933 26.5186C28.2442 27.0622 29.3822 27.4088 30.5533 27.542H30.5605C30.9205 27.3951 32.2405 26.2786 33.7801 24.7019C33.5197 23.0014 33.2329 21.5067 33.0241 20.755C32.5825 20.4845 30.9397 19.9886 28.8721 19.6006L26.1949 22.0025C26.3857 22.9341 26.9269 25.4853 27.1933 26.5186ZM38.0437 25.0495C38.4735 24.2978 38.8308 23.5053 39.1105 22.6831C39.1239 22.5632 39.1311 22.4427 39.1321 22.322C39.1201 20.8346 38.3941 19.0546 38.0425 18.216C37.6814 18.0361 37.3108 17.8767 36.9325 17.7386L35.4037 20.1527C35.6293 20.9949 35.9185 22.4946 36.1801 24.1693L38.0437 25.0495ZM16.7833 24.0702H16.8925C17.2244 22.7645 17.7845 21.5308 18.5461 20.4281L18.1309 17.0616H17.5309C16.7924 18.6383 16.4102 20.364 16.4125 22.1114C16.4128 22.6255 16.4448 23.1391 16.5085 23.649L16.7833 24.0702ZM24.4321 20.2384L27.2125 17.7459C27.0925 16.6723 26.8813 14.9437 26.7541 14.0402C26.0941 13.7317 25.0129 13.5505 24.2473 13.482C24.1767 13.4769 24.1068 13.465 24.0385 13.4465C22.7488 14.2537 21.5656 15.2259 20.5177 16.3393L20.8969 19.4182L24.4321 20.2384ZM29.6257 17.1926C30.7609 17.4154 32.4973 17.8047 33.6553 18.2943L35.1481 15.9439C34.5709 15.0061 33.7081 14.0549 32.5849 13.1135C30.9373 13.2947 29.8369 13.6032 29.2105 13.8358C29.3437 14.8029 29.5237 16.3234 29.6257 17.1975V17.1926ZM22.5577 11.1756C20.996 11.99 19.628 13.1432 18.5497 14.5544H18.7897C19.9176 13.3696 21.1783 12.3243 22.5457 11.44L22.5577 11.1756ZM25.0189 11.0531C25.7725 11.1499 26.8597 11.3494 27.7369 11.746C28.2409 11.5147 29.4169 11.0556 31.3501 10.7581C29.2925 10.1347 27.1062 10.103 25.0321 10.6663L25.0189 11.0531Z" fill="#1DC5FF"/>
<path opacity="0.3" d="M28.0332 36.4849C27.4045 36.4872 26.7762 36.4463 26.1528 36.3625L25.8888 36.3245L25.7424 36.3L25.4376 36.2449C25.3584 36.229 25.2948 36.2168 25.23 36.2021L24.972 36.1445L24.7128 36.0821L24.462 36.0172L24.4212 36.005L24.2712 35.9621L23.9856 35.8764C23.9328 35.8605 23.8488 35.8336 23.766 35.8054L23.6772 35.7761C23.5572 35.7381 23.4492 35.6989 23.3364 35.6536L23.0292 35.5386L22.758 35.4296L22.5876 35.3586L22.2648 35.2105L22.158 35.1615L22.1256 35.1456C22.0812 35.1272 22.0128 35.0942 21.9432 35.0599L21.6756 34.9252C21.6756 34.9252 21.4572 34.8138 21.4356 34.8028L21.1764 34.6608L21.0264 34.5751C20.82 34.4527 20.6148 34.3303 20.4132 34.1919L20.406 34.2005L20.166 34.0303L19.3812 33.4599V33.4464C17.7171 32.125 16.3649 30.4392 15.4247 28.5135C14.4844 26.5878 13.98 24.4712 13.9487 22.3201C13.9174 20.1689 14.3599 18.038 15.2437 16.0846C16.1274 14.1313 17.4299 12.4053 19.0548 11.034C20.6798 9.66272 22.5859 8.68119 24.6324 8.16182C26.6788 7.64246 28.8135 7.59851 30.8789 8.03322C32.9442 8.46793 34.8876 9.37021 36.5654 10.6735C38.2433 11.9767 39.613 13.6477 40.5732 15.5631C40.6836 15.7823 40.7916 16.01 40.8948 16.2426L41.0688 16.66C41.0892 16.7139 41.1048 16.7519 41.1168 16.7898C41.1288 16.8278 41.1756 16.9367 41.2152 17.0481L41.4444 17.6737H41.4336C41.4396 17.6884 41.4732 17.7961 41.4732 17.7961C41.484 17.8279 41.4984 17.872 41.5116 17.9185L41.5392 18.0091C41.9196 19.2652 42.324 21.148 42.0936 22.9782C41.6832 30.5267 35.5188 36.4677 28.0596 36.4824L28.0332 36.4849ZM31.8576 33.7414L31.914 33.7218H31.8852L31.8576 33.7414ZM24.4704 32.7339L24.5568 32.7719C24.6324 32.8061 24.7044 32.838 24.774 32.8661L24.9348 32.931L25.0392 32.9714L25.1916 33.0277C25.2408 33.0461 25.2756 33.0583 25.3116 33.0693L25.4868 33.1281C25.5504 33.1489 25.6068 33.1673 25.662 33.1832C25.7556 33.2113 25.8504 33.2371 25.9404 33.2615L26.0928 33.3007L26.2128 33.3301L26.3568 33.3619C26.418 33.3766 26.4516 33.3827 26.4852 33.3889C26.6736 33.4256 26.8452 33.455 27.036 33.4831C27.0912 33.4905 27.156 33.499 27.2088 33.5052L27.342 33.5211L27.6336 33.5529L27.8988 33.5762C29.4336 33.4182 30.3408 32.86 30.8328 32.4181L30.8556 32.3985C30.5664 31.1241 30.3516 30.2071 30.204 29.6109C28.8195 29.4359 27.4754 29.0163 26.232 28.3708L26.214 28.3806C25.7688 28.5985 24.6696 29.1372 23.7228 29.5877L22.3452 30.3222C22.4532 30.9157 22.6376 31.492 22.8936 32.0361C22.8981 32.0432 22.9021 32.0505 22.9056 32.0581H22.9884C23.1521 32.0579 23.3121 32.1073 23.448 32.2001L23.49 32.2246C23.5548 32.2614 23.6292 32.3042 23.7036 32.3471L23.8548 32.4315L24.0024 32.5074C24.096 32.5564 24.1884 32.6029 24.2796 32.6458L24.4704 32.7339ZM31.8108 29.2241C32.0232 30.081 32.3088 31.3285 32.4576 31.9871C33.9648 31.7215 35.6976 31.2673 36.3672 30.7262C36.4379 30.6435 36.5014 30.5546 36.5568 30.4605C37.0912 29.4289 37.4817 28.3263 37.7172 27.1846C37.6668 27.1674 37.6188 27.1466 37.5696 27.1246L35.6496 26.2236L35.3292 26.0718C34.608 26.8161 32.8812 28.5385 31.8108 29.2265V29.2241ZM16.8168 26.5247C17.862 29.3955 20.124 31.364 20.8392 31.932L21.0672 31.9247C20.8555 31.3534 20.7207 30.7554 20.6664 30.1471C20.664 30.1092 20.664 30.0712 20.6664 30.0333C19.0884 28.8825 17.9988 27.1735 17.4348 26.1281L16.8444 26.1709L16.8168 26.5247ZM18.7584 25.0887C19.1748 25.9016 20.1984 27.6718 21.744 28.7491L22.986 28.0868C23.7876 27.7036 24.666 27.2764 25.1988 27.0144C24.9024 25.8538 24.3756 23.3663 24.1584 22.3293L20.3724 21.4381C19.944 21.989 19.1784 23.1961 18.7584 25.0887ZM26.8524 26.8026C26.8776 26.8136 26.9028 26.8259 26.9268 26.8393C28.0762 27.449 29.329 27.8292 30.618 27.9595H30.63L30.7044 27.9191L30.7188 27.913C31.1988 27.7183 32.6808 26.4072 34.2096 24.8341C34.2012 24.8049 34.1952 24.775 34.1916 24.7447C33.9168 22.9402 33.6096 21.3439 33.3912 20.5824C33.384 20.5579 33.378 20.5322 33.372 20.5065C33.366 20.4808 33.3264 20.4722 33.3048 20.4526C32.832 20.1025 30.8532 19.5418 28.7448 19.1586L25.7448 21.8519C25.9068 22.617 26.5824 25.8318 26.8524 26.8075V26.8026ZM36.2952 24.6688L38.1912 25.5613C38.7216 24.7912 39.2244 23.5927 39.5052 22.7664V22.7419C39.5216 22.6009 39.5304 22.4591 39.5316 22.3171C39.5184 20.6803 38.7132 18.7669 38.37 17.9491L38.3532 17.9112C37.8422 17.6458 37.3123 17.4199 36.768 17.2354L34.968 20.0793C34.968 20.0878 34.968 20.0976 34.9764 20.1074C35.2164 20.9313 35.5344 22.5901 35.8164 24.4423L36.2952 24.6688ZM16.5732 24.5035L17.2104 24.457C17.682 22.5081 18.4728 21.208 18.966 20.5396L18.486 16.649H17.2704C16.4375 18.3441 16.0071 20.2153 16.014 22.1114C16.0141 22.6741 16.0514 23.236 16.1256 23.7935L16.5732 24.5035ZM24.5436 20.6914L27.642 17.9124C27.522 16.8926 27.2628 14.678 27.126 13.7672L27.09 13.7476C26.3988 13.3681 25.188 13.1502 24.2844 13.0719C24.1858 13.0642 24.0894 13.038 24 12.9948C22.557 13.8702 21.2421 14.9487 20.094 16.1985L20.532 19.7487L24.5436 20.6914ZM29.2596 17.5451C30.264 17.7361 32.586 18.2185 33.8064 18.8171L35.6244 15.9549C35.0028 14.869 34.0236 13.7709 32.7096 12.6899C30.6336 12.9029 29.3616 13.3253 28.7652 13.5714C28.9104 14.5605 29.1528 16.6184 29.2596 17.5451ZM37.3116 15.6513C37.7664 15.8141 38.1852 15.9806 38.5332 16.141C37.3929 14.0091 35.6411 12.2838 33.5124 11.1964C33.5519 11.222 33.5899 11.2498 33.6264 11.2796C35.2716 12.614 36.4788 14.0023 37.2144 15.404C37.2556 15.4826 37.2882 15.5655 37.3116 15.6513ZM22.9836 10.5096C20.865 11.466 19.0528 13.011 17.754 14.9682H18.966C20.148 13.7 21.4854 12.5927 22.9452 11.6738L22.9836 10.5096ZM24.6024 11.4106C25.272 11.4792 26.7156 11.68 27.7368 12.1917L27.7884 12.1672C28.2468 11.9432 29.5572 11.3972 31.8612 11.0923V10.4802C29.524 9.68352 27.0036 9.63695 24.6396 10.3468L24.6024 11.4106Z" fill="#1DC5FF"/>
<path opacity="0.65" d="M28.0333 36.1604C27.4185 36.1609 26.8043 36.12 26.1949 36.038L25.9381 36C25.9381 36 25.8313 35.9829 25.8037 35.9768L25.4929 35.9217L25.2973 35.8813L25.0453 35.825L24.7873 35.7625C24.6961 35.7405 24.6217 35.7209 24.5473 35.7001L24.5065 35.6891L24.3637 35.6474L24.0877 35.5654C24.0265 35.5471 23.9473 35.5214 23.8693 35.4944L23.7769 35.4638C23.6665 35.4271 23.5549 35.3891 23.4457 35.3487L23.1397 35.2349L22.8781 35.1308L22.7125 35.0598C22.5853 35.006 22.4881 34.9631 22.3945 34.9215L22.2925 34.875L22.2601 34.8591C22.2097 34.837 22.1401 34.8064 22.0825 34.7746L21.8125 34.6387L21.5845 34.5163C21.4897 34.4661 21.4081 34.4208 21.3301 34.3779L21.1837 34.2935C20.9029 34.127 20.6245 33.9495 20.3545 33.7646L19.7545 33.3312C18.1009 32.0606 16.7495 30.4258 15.8009 28.5487C14.8522 26.6716 14.3307 24.6003 14.2752 22.4892C14.2197 20.378 14.6316 18.2812 15.4802 16.3549C16.3288 14.4286 17.5923 12.7223 19.1767 11.363C20.7611 10.0037 22.6256 9.0264 24.6314 8.50385C26.6372 7.98131 28.7327 7.92694 30.7619 8.34482C32.7912 8.76269 34.7019 9.64203 36.352 10.9174C38.0021 12.1928 39.349 13.8314 40.2925 15.7112C40.4017 15.9254 40.5072 16.1495 40.6068 16.376L40.7725 16.7873C40.7881 16.8277 40.8013 16.8607 40.8109 16.8926C40.8361 16.9538 40.8745 17.0542 40.9129 17.1607L41.0329 17.49L41.0725 17.6063C41.0833 17.6357 41.1289 17.7728 41.1397 17.8095L41.1685 17.8989C41.1793 17.9319 41.1925 17.9711 41.2045 18.0115L41.2332 18.1058C41.604 19.33 41.9989 21.1663 41.7757 22.9389C41.3737 30.3307 35.3473 36.1457 28.0573 36.1604H28.0333ZM26.3317 35.0096C26.8957 35.0871 27.4641 35.1259 28.0333 35.1259C28.0445 35.0529 28.0711 34.9831 28.1113 34.9215L27.9193 34.9411H27.8809L27.6553 34.9215L27.3589 34.8933L27.0349 34.8566H27.0205C26.9869 34.8566 26.9185 34.8456 26.8489 34.8358C26.7133 34.8162 26.5873 34.7966 26.4661 34.7746L26.0473 34.6926L25.9273 34.6644C25.8901 34.6571 25.8277 34.6424 25.7653 34.6265L25.5973 34.5836C25.5001 34.5579 25.3921 34.5273 25.2829 34.4942C25.2145 34.4747 25.1473 34.4526 25.0777 34.4306C25.0081 34.4085 24.9577 34.3914 24.8941 34.3694L24.7405 34.3155L24.5845 34.258C24.5545 34.247 24.5089 34.2298 24.4645 34.2102C24.4381 34.2017 24.3925 34.1833 24.3445 34.1637L24.2893 34.1417C24.1909 34.1013 24.1081 34.0658 24.0241 34.0278L23.8525 33.9507L23.7133 33.8846C23.6077 33.8356 23.5009 33.7818 23.3929 33.7254L23.3473 33.7022L23.3305 33.6924H23.3161L23.2429 33.6508L23.2057 33.6251L23.1481 33.5944L23.0665 33.5479C22.9633 33.4916 22.8517 33.4255 22.7389 33.3594L22.7005 33.3349L22.6693 33.3117C22.6114 33.2615 22.5648 33.1993 22.5325 33.1292C22.4536 33.1924 22.3595 33.2326 22.2601 33.2455L21.4717 33.2737L21.6925 33.3998L21.8281 33.4781L22.0897 33.6189L22.4125 33.7842L22.5325 33.843C22.5817 33.8674 22.6285 33.8907 22.6777 33.9115C22.6777 33.9115 22.7773 33.958 22.7977 33.9666L23.0809 34.089C23.1493 34.1184 23.2009 34.1429 23.2597 34.1649L23.5477 34.28L23.7877 34.3706C23.8873 34.4073 23.9881 34.4416 24.0901 34.4759L24.1873 34.5077C24.2581 34.5322 24.3253 34.553 24.3937 34.5738C24.3937 34.5738 24.5917 34.635 24.6457 34.6497L24.8113 34.6962C24.8785 34.7158 24.9433 34.7317 25.0081 34.7477L25.2577 34.8089C25.3501 34.8297 25.4269 34.848 25.5049 34.864L25.6705 34.8982L25.9513 34.9496L26.3317 35.0096ZM31.7869 33.3618C31.7661 33.3905 31.7424 33.4168 31.7161 33.4402C31.1204 33.9611 30.426 34.3511 29.6761 34.5861C31.2846 34.3698 32.8347 33.8288 34.2361 32.9946C33.3637 33.2125 32.5693 33.3459 32.1769 33.4047H32.1601H32.1277C32.0125 33.4095 31.8974 33.3951 31.7869 33.3618ZM24.6553 33.1696L24.8269 33.2382C24.8737 33.2566 24.9049 33.27 24.9373 33.2811L25.0849 33.3361C25.1353 33.3533 25.1761 33.3692 25.2157 33.3814L25.3897 33.4402C25.4521 33.4598 25.5097 33.4794 25.5733 33.4965C25.6705 33.5259 25.7677 33.5528 25.8625 33.5785L26.0125 33.6189C26.0593 33.6312 26.1037 33.6422 26.1481 33.6508C26.1925 33.6593 26.2537 33.6765 26.2957 33.6838C26.3377 33.6912 26.3881 33.7046 26.4241 33.712C26.6161 33.7487 26.7937 33.7793 26.9893 33.8075C27.0493 33.816 27.1093 33.8246 27.1717 33.8307L27.3013 33.8479L27.6001 33.8785L27.8989 33.9066C29.5393 33.7414 30.5149 33.1415 31.0525 32.664C31.1025 32.6174 31.1619 32.5823 31.2265 32.5612C31.0441 31.752 30.6829 30.163 30.4645 29.3146C29.013 29.1608 27.6029 28.7297 26.3077 28.0439C26.2868 28.0331 26.2668 28.0208 26.2477 28.0072C26.2357 28.0148 26.2232 28.0218 26.2105 28.028L26.0905 28.0904C25.6465 28.3083 24.5485 28.8457 23.6029 29.2963L22.1377 30.0687C22.0943 30.0927 22.0489 30.1128 22.0021 30.1287C22.0597 30.7225 22.2589 31.3933 22.6021 32.1768C22.6545 32.2664 22.6948 32.3627 22.7221 32.4633C22.8067 32.4095 22.9049 32.3823 23.0046 32.3852C23.1043 32.388 23.2009 32.4207 23.2825 32.4792C23.3617 32.5233 23.4589 32.5808 23.5561 32.6334L23.7061 32.7167L23.8609 32.7963C23.9569 32.8477 24.0529 32.8954 24.1477 32.9395L24.3457 33.0325L24.4285 33.0693C24.5089 33.1072 24.5821 33.1403 24.6553 33.1696ZM31.4437 29.0698C31.6897 30.0369 32.0881 31.7973 32.2153 32.3604C33.0457 32.2246 35.6545 31.7483 36.5905 30.9624C36.6844 30.8544 36.7676 30.7371 36.8389 30.6123C37.4357 29.4598 37.8573 28.2214 38.0893 26.9397C37.9556 26.9247 37.8251 26.8879 37.7029 26.8307C37.1089 26.5528 36.3325 26.188 35.7829 25.926L35.2681 25.6812C34.8001 26.1623 32.5465 28.4662 31.4437 29.0698ZM16.4989 26.5185C16.4956 26.5533 16.4997 26.5883 16.5109 26.6214C17.5909 29.6207 19.9705 31.6602 20.6713 32.2135C20.7121 32.2457 20.7625 32.2626 20.8141 32.2613L21.5257 32.2368C21.2372 31.5668 21.0546 30.8545 20.9845 30.1263C20.9788 30.0466 20.9907 29.9667 21.0193 29.8924C19.2805 28.6952 18.1165 26.7474 17.6125 25.7901L16.5445 25.866L16.4989 26.5185ZM18.4309 25.1523C18.8413 25.9725 19.9777 27.9851 21.7237 29.1285L23.1325 28.3744C24.0565 27.9325 25.0957 27.4244 25.5733 27.1906C25.2781 26.1194 24.5881 22.8361 24.4261 22.0587L20.2453 21.0794C19.8565 21.5482 18.9325 22.8361 18.4525 25.0225C18.4415 25.0638 18.4343 25.106 18.4309 25.1486V25.1523ZM26.5969 27.0755C26.6595 27.0829 26.7202 27.1024 26.7757 27.1331C27.9634 27.7634 29.2582 28.1565 30.5905 28.2912C30.6271 28.2947 30.6633 28.3021 30.6985 28.3132C30.7418 28.2794 30.788 28.2495 30.8365 28.2238C31.4557 27.9717 33.1801 26.3765 34.5853 24.9185C34.5432 24.8555 34.516 24.7834 34.5061 24.7079C34.2289 22.89 33.9193 21.2801 33.6961 20.5003C33.6784 20.4404 33.6719 20.3778 33.6769 20.3155C33.6134 20.2917 33.5551 20.2555 33.5053 20.209C32.9281 19.7658 30.5953 19.1671 28.6825 18.8256H28.6525L25.3945 21.749C25.4005 21.7698 25.4053 21.7906 25.4101 21.8114C25.5589 22.5239 26.3113 26.117 26.5741 27.007C26.5827 27.0282 26.5903 27.0499 26.5969 27.0719V27.0755ZM39.0505 26.6299C39.1124 26.7359 39.135 26.861 39.114 26.9825C39.0396 27.4073 38.9521 27.8039 38.8573 28.1712C39.3974 27.1667 39.7995 26.0911 40.0525 24.9748C39.8154 25.4887 39.5343 25.9803 39.2125 26.4438C39.165 26.5104 39.1107 26.5715 39.0505 26.6263V26.6299ZM35.5117 24.6712C35.5417 24.6822 35.5717 24.6945 35.6005 24.7079L36.1609 24.9723C36.7177 25.2343 37.5181 25.6114 38.1265 25.8954C38.1572 25.9102 38.1908 25.9177 38.2249 25.9174C38.2579 25.9181 38.2907 25.9107 38.3205 25.8961C38.3503 25.8814 38.3763 25.8598 38.3965 25.833C38.9725 25.025 39.5209 23.7249 39.8125 22.8459L39.8197 22.7859C39.838 22.6344 39.8476 22.4819 39.8485 22.3293C39.8353 20.6154 39.0085 18.664 38.6604 17.8291L38.6329 17.7618C38.6147 17.717 38.5827 17.6796 38.5417 17.6553C38.2021 17.4508 37.4749 17.1448 36.6361 16.8534L34.6657 19.9543C34.6393 19.987 34.6129 20.0176 34.5865 20.0461C34.6214 20.0941 34.6478 20.148 34.6645 20.2053C34.9045 21.0243 35.2201 22.688 35.5045 24.5463C35.5114 24.5863 35.5139 24.627 35.5117 24.6675V24.6712ZM17.2165 16.3282C17.1761 16.3271 17.1363 16.3373 17.1014 16.3578C17.0664 16.3784 17.0377 16.4084 17.0185 16.4445C16.1419 18.1993 15.6874 20.1418 15.6925 22.1114C15.6935 22.6954 15.7336 23.2786 15.8125 23.8571C15.8176 23.8919 15.8299 23.9253 15.8485 23.955L16.3789 24.801L16.4041 24.8438L17.4649 24.7679C17.9449 22.6023 18.8437 21.2177 19.3081 20.6191C19.2951 20.5835 19.2862 20.5465 19.2817 20.5089L18.7657 16.327L17.2165 16.3282ZM39.5293 17.266C39.5437 17.2941 39.5569 17.3223 39.5689 17.3516L39.5977 17.4178C39.9253 18.1976 40.6381 19.8943 40.8229 21.5801C40.7731 20.5054 40.5859 19.4419 40.2661 18.4167L40.1797 18.1364L40.0597 17.7777L39.9721 17.5328C39.9325 17.4263 39.8976 17.3333 39.864 17.2488C39.8533 17.217 39.8485 17.2047 39.8437 17.1925L39.7489 16.9623L39.5557 17.2341L39.5293 17.266ZM20.3725 20.0449L24.6277 21.0451C26.9785 18.9345 27.7309 18.2612 27.9733 18.0433C27.8617 17.064 27.5365 14.3021 27.4057 13.5138C27.3461 13.5061 27.2883 13.4874 27.2353 13.4587C26.5033 13.0547 25.2433 12.8257 24.3073 12.745C24.1873 12.7353 24.0748 12.6819 23.9905 12.5944C23.9483 12.6348 23.902 12.6705 23.8525 12.7009C22.3642 13.6016 21.0097 14.7146 19.8301 16.0062C19.8061 16.0319 19.7809 16.0564 19.7557 16.0797L20.2525 20.0425H20.2753L20.3725 20.0449ZM28.9717 17.8266C29.8189 17.9809 32.7553 18.5526 33.9145 19.2467L35.9965 15.9658C35.3485 14.7637 34.2781 13.5493 32.8141 12.3593H32.7649C30.3133 12.6042 28.9453 13.1245 28.4125 13.373C28.5613 14.2838 28.8793 17.015 28.9717 17.8266ZM37.0321 15.8997C37.6192 16.1 38.1946 16.3346 38.7553 16.6024L38.9725 16.289C37.7329 13.8014 35.7433 11.8733 33.1909 10.6785V11.3983C33.2749 11.4316 33.3534 11.4778 33.4237 11.5354C35.0401 12.8417 36.2197 14.1956 36.9325 15.5594C36.9886 15.6628 37.0225 15.7771 37.0321 15.8948V15.8997ZM23.3377 10.0101C20.7757 11.0457 18.6114 12.8998 17.1685 15.295H19.0885H19.1029C20.3237 13.9604 21.7202 12.8051 23.2525 11.8623L23.3113 10.2365C23.3132 10.1604 23.322 10.0846 23.3377 10.0101ZM24.3577 11.7166C25.4233 11.806 26.8489 12.0716 27.7177 12.5503L27.7417 12.565C27.7966 12.5271 27.8549 12.4943 27.9157 12.4671C28.3957 12.2357 29.7529 11.6713 32.1805 11.3824V10.4214C32.1785 10.3709 32.1613 10.3223 32.1313 10.2822C32.1012 10.2421 32.0597 10.2125 32.0125 10.1974C29.5825 9.35372 26.9553 9.30281 24.4957 10.0517C24.4485 10.0659 24.4067 10.0945 24.376 10.1337C24.3454 10.1729 24.3272 10.2208 24.3241 10.2708L24.2737 11.724C24.3014 11.719 24.3295 11.7165 24.3577 11.7166Z" fill="#1DC5FF"/>
<path d="M28.0333 35.9069C27.4313 35.9066 26.83 35.8657 26.2333 35.7845L25.9813 35.7466L25.8613 35.727L25.5469 35.6694C25.4809 35.656 25.4269 35.645 25.3609 35.6315C25.2793 35.6144 25.1953 35.596 25.1125 35.5752C25.0957 35.5752 24.8569 35.514 24.8569 35.514C24.7681 35.4919 24.6949 35.4736 24.6241 35.4528L24.5833 35.4417C24.5377 35.4295 24.4921 35.4173 24.4477 35.4026C24.4033 35.3879 24.1981 35.3291 24.1777 35.323C24.1105 35.3022 24.0337 35.2777 23.9593 35.252L23.8645 35.2202C23.7565 35.1847 23.6473 35.1479 23.5405 35.1088L23.2357 34.9949L22.9813 34.8933L22.8193 34.8247L22.5061 34.6876L22.4089 34.6423L22.3753 34.6264C22.3213 34.6032 22.2613 34.575 22.2025 34.5456L21.9325 34.4146L21.7069 34.2922C21.6121 34.242 21.5317 34.198 21.4549 34.1551L21.3121 34.0731C20.9725 33.8723 20.6377 33.6556 20.3149 33.4255L20.0569 33.2357C18.4072 32.0075 17.0518 30.4139 16.0923 28.5746C15.1329 26.7354 14.5944 24.6983 14.5172 22.6163C14.4401 20.5343 14.8263 18.4616 15.6469 16.5537C16.4675 14.6458 17.7011 12.9523 19.2551 11.6005C20.8092 10.2487 22.6432 9.27363 24.6196 8.74854C26.5959 8.22345 28.6632 8.16198 30.6662 8.56875C32.6692 8.97552 34.5558 9.83995 36.1843 11.0971C37.8129 12.3543 39.1411 13.9716 40.0693 15.8275C40.1773 16.0393 40.2805 16.2584 40.3777 16.48L40.5469 16.8864C40.5601 16.9182 40.5709 16.9452 40.5793 16.9721C40.6093 17.0468 40.6465 17.1447 40.6837 17.2488L40.7233 17.3553L40.5457 17.4361L40.7341 17.3859C40.7533 17.4385 40.8409 17.6919 40.8409 17.6919C40.8529 17.7225 40.8949 17.8523 40.9057 17.8866L40.9357 17.9796C40.9465 18.0115 40.9585 18.0482 40.9681 18.0837L40.9981 18.1816C41.3581 19.3838 41.7493 21.1797 41.5321 22.9071C41.1361 30.1776 35.2177 35.8935 28.0585 35.9069H28.0333ZM26.0557 35.2251C26.1361 35.2385 26.2165 35.2495 26.2957 35.2606C26.8708 35.3407 27.4504 35.3816 28.0309 35.383H28.3405C28.303 35.3385 28.2815 35.2824 28.2793 35.2238C28.2767 35.1538 28.3013 35.0855 28.3478 35.0339C28.3944 34.9823 28.459 34.9516 28.5277 34.9484C31.0638 34.8543 33.5118 33.9751 35.5465 32.4277C35.5909 32.3941 35.6448 32.3761 35.7001 32.3763C35.7403 32.3765 35.7799 32.3861 35.8159 32.4044C35.8518 32.4226 35.8833 32.449 35.9077 32.4816C35.939 32.5255 35.9569 32.5779 35.9593 32.6322C36.8342 31.9457 37.6205 31.1489 38.2993 30.2609C38.2444 30.2615 38.1911 30.2429 38.1481 30.2083C38.0939 30.1662 38.0581 30.104 38.0487 30.0352C38.0393 29.9664 38.0569 29.8966 38.0977 29.841C39.5464 27.8754 40.4089 25.5253 40.5817 23.0723C40.5865 23.0063 40.6154 22.9445 40.6627 22.8991C40.7101 22.8538 40.7723 22.8282 40.8373 22.8275H40.8697C40.9234 22.832 40.9742 22.8549 41.0137 22.8924C41.0131 22.8863 41.0131 22.8801 41.0137 22.874C41.2201 21.2164 40.8481 19.4989 40.5001 18.3444L40.4125 18.0629C40.3993 18.0225 40.2925 17.6956 40.2925 17.6956L40.2049 17.4508C40.1629 17.3381 40.1269 17.2439 40.0933 17.1582C40.0837 17.1288 40.0765 17.1117 40.0693 17.0945L40.0321 17.0015L39.9037 16.6967C39.8689 16.6171 39.8329 16.5375 39.7969 16.4592C39.7898 16.4732 39.7817 16.4867 39.7729 16.4996L39.3529 17.0896C39.3329 17.118 39.3075 17.142 39.2782 17.1601C39.249 17.1782 39.2164 17.19 39.1825 17.1949C39.2478 17.2732 39.3012 17.3611 39.3409 17.4557L39.3685 17.523C39.7393 18.402 40.6045 20.4611 40.6189 22.306V22.3354C40.6174 22.5166 40.6061 22.6977 40.5853 22.8777L40.5685 23.0283L40.5493 23.0772C40.2445 23.9954 39.6529 25.4032 39.0145 26.2957C38.9062 26.4464 38.758 26.5623 38.5873 26.6299H38.6305H38.6569C38.6905 26.6357 38.7228 26.6482 38.7517 26.6667C38.7806 26.6852 38.8057 26.7094 38.8254 26.7379C38.8452 26.7663 38.8592 26.7984 38.8667 26.8324C38.8743 26.8664 38.8751 26.9016 38.8693 26.9359C38.6303 28.3466 38.1747 29.71 37.5193 30.9758C37.4116 31.1701 37.2833 31.3515 37.1365 31.5169C35.9593 32.5453 32.7685 33.0717 32.1409 33.1672H32.1025C32.0119 33.171 31.9216 33.1538 31.8385 33.1169C31.7554 33.08 31.6815 33.0243 31.6225 32.9542C31.6377 32.993 31.6443 33.0348 31.6417 33.0766C31.637 33.1464 31.6055 33.2115 31.5541 33.2578C30.9337 33.816 29.7997 34.5187 27.9265 34.6938H27.9097L27.6841 34.6754L27.3913 34.6472L27.0877 34.613H27.0757C27.0217 34.613 26.9557 34.5995 26.8897 34.5897C26.6797 34.5591 26.4901 34.5273 26.3089 34.4918V34.291L26.2729 34.4856L26.1445 34.4587C26.1013 34.4501 26.0449 34.4367 25.9897 34.4232C25.9345 34.4097 25.8877 34.4012 25.8301 34.3853L25.6657 34.3436C25.5673 34.3179 25.4617 34.2885 25.3561 34.2567C25.2889 34.2371 25.2241 34.2163 25.1557 34.1943L24.9781 34.1343C24.9313 34.1196 24.8797 34.1012 24.8269 34.0816L24.6769 34.0253C24.6421 34.0143 24.6001 33.9972 24.5569 33.98L24.4369 33.9335L24.3829 33.9115C24.2857 33.8723 24.2053 33.8368 24.1225 33.8001L23.9521 33.7242L23.8177 33.6605C23.7157 33.6116 23.6113 33.5601 23.5057 33.5038L23.4073 33.4536L23.3905 33.4451H23.3845L23.3353 33.4108L23.2657 33.3741L23.1889 33.3312C23.0857 33.2749 22.9777 33.2088 22.8673 33.1464L22.8517 33.1366L22.8217 33.1133C22.7956 33.091 22.7743 33.0636 22.7591 33.0327C22.7438 33.0017 22.7349 32.9679 22.7329 32.9333C22.7302 32.8988 22.7342 32.864 22.7447 32.831C22.7552 32.798 22.772 32.7675 22.7941 32.7411C22.8186 32.7125 22.8489 32.6895 22.8828 32.6737C22.9167 32.6579 22.9536 32.6496 22.9909 32.6493C23.0443 32.6494 23.0963 32.6665 23.1397 32.6983C23.2393 32.7571 23.3401 32.8146 23.4385 32.8685L23.5885 32.9505L23.7469 33.0337C23.8465 33.0864 23.9449 33.1353 24.0433 33.1819C24.0433 33.1819 24.2245 33.2676 24.2485 33.2773L24.3301 33.3141C24.4117 33.3508 24.4873 33.3839 24.5617 33.4145L24.7429 33.4867L24.8557 33.5295L25.0021 33.5846C25.0537 33.603 25.0981 33.6189 25.1413 33.6324L25.3153 33.6911L25.5037 33.7499C25.6033 33.7793 25.7041 33.8074 25.8001 33.8331L25.9573 33.8735L26.1037 33.9078C26.1613 33.9225 26.2081 33.9335 26.2537 33.9421L26.3833 33.969C26.5777 34.007 26.7589 34.0376 26.9593 34.067L27.1501 34.0914L27.2701 34.1074L27.5737 34.1392L27.8989 34.1686C29.6137 34.0033 30.6421 33.3679 31.2037 32.8636C31.2509 32.8207 31.312 32.7972 31.3753 32.7975C31.4431 32.7976 31.5081 32.8249 31.5565 32.8734C31.5274 32.8202 31.5079 32.7621 31.4989 32.702L31.4929 32.6787C31.3249 31.9295 30.9097 30.0981 30.6781 29.1995C30.6595 29.1536 30.6466 29.1055 30.6397 29.0563C30.6082 29.0702 30.5743 29.0773 30.5401 29.0771H30.5209C29.0851 28.9323 27.6896 28.5089 26.4097 27.8296C26.3791 27.814 26.3521 27.7922 26.3302 27.7654C26.3083 27.7387 26.2921 27.7076 26.2825 27.6741C26.278 27.6614 26.2748 27.6483 26.2729 27.635C26.2249 27.7097 26.1598 27.7715 26.0833 27.8149L25.9957 27.859C25.5733 28.0659 24.4477 28.618 23.4757 29.0832L22.0129 29.863C21.9183 29.9145 21.8129 29.9418 21.7057 29.9426H21.6925C21.7219 29.9824 21.7394 30.03 21.7429 30.0797C21.7909 30.7249 21.9973 31.4508 22.3765 32.3004C22.4965 32.5159 22.5229 32.702 22.4569 32.8379C22.4339 32.8842 22.3999 32.924 22.358 32.9535C22.316 32.983 22.2675 33.0013 22.2169 33.0068L20.8009 33.0558C20.7458 33.0556 20.6908 33.0511 20.6365 33.0423C20.9353 33.2529 21.2437 33.4524 21.5557 33.636L21.6925 33.7156L21.9649 33.8625L22.2925 34.0094L22.4125 34.0706C22.4641 34.0963 22.5157 34.122 22.5685 34.1441L22.6093 34.1637L22.6921 34.2016L22.9741 34.324C23.0437 34.3546 23.0941 34.3779 23.1577 34.4012L23.4469 34.5175L23.6977 34.6105L24.0085 34.7182L24.1045 34.7501C24.1765 34.7746 24.2461 34.7966 24.3181 34.8186C24.3181 34.8186 24.5209 34.8798 24.5749 34.8945L24.7429 34.9423C24.8101 34.9619 24.8785 34.979 24.9457 34.9949C25.0129 35.0108 25.1857 35.0549 25.2025 35.0573C25.2913 35.0782 25.3717 35.0965 25.4509 35.1124L25.6177 35.1479L25.9045 35.2006L26.0557 35.2251ZM31.1641 28.9253C31.1641 28.9253 31.1413 28.94 31.1641 29.0024L31.1701 29.0147V29.0306C31.4509 30.1115 32.0005 32.5698 32.0101 32.5942C32.0197 32.6187 32.0449 32.6359 32.0929 32.6359C32.6713 32.5465 35.7109 32.0446 36.7621 31.1435C36.8747 31.0159 36.9736 30.8764 37.0573 30.7273C37.6876 29.5097 38.1262 28.1984 38.3569 26.8417C38.363 26.8045 38.3769 26.7691 38.3976 26.7378C38.4183 26.7066 38.4454 26.6802 38.4769 26.6605C38.2518 26.7215 38.013 26.7007 37.8013 26.6017C37.1437 26.2945 36.2629 25.8794 35.7061 25.6224L35.2741 25.4179C35.2565 25.409 35.2373 25.404 35.2177 25.4032C35.197 25.4033 35.1772 25.4117 35.1625 25.4265C35.0365 25.5575 32.1937 28.5127 31.1569 28.9302L31.1641 28.9253ZM16.2517 26.494C16.2457 26.5657 16.2547 26.6379 16.2781 26.7058C17.3857 29.7663 19.8049 31.8475 20.5201 32.4106C20.6042 32.4769 20.7078 32.5123 20.8141 32.511L21.8941 32.4743C21.4945 31.5708 21.2785 30.7983 21.2269 30.103C21.2227 30.0467 21.2363 29.9906 21.2657 29.9428C21.2951 29.895 21.3386 29.8581 21.3901 29.8373C21.3626 29.8211 21.3361 29.8031 21.3109 29.7835C19.4293 28.569 18.2029 26.4157 17.7433 25.4987C17.7091 25.5189 17.671 25.531 17.6317 25.5342L16.3117 25.6285L16.2517 26.494ZM20.2669 20.821C20.2286 20.8165 20.1898 20.8217 20.154 20.8362C20.1182 20.8508 20.0864 20.8741 20.0617 20.9043L20.0425 20.9312C19.6561 21.3988 18.7009 22.7259 18.2053 24.9711C18.1837 25.0545 18.1788 25.1415 18.1909 25.2269C18.6109 26.0729 19.7893 28.1797 21.6217 29.3636C21.6481 29.3869 21.6815 29.4007 21.7165 29.4027C21.74 29.4021 21.763 29.3958 21.7837 29.3844L23.2525 28.5996C24.2689 28.11 25.4377 27.5407 25.8217 27.3522L25.8601 27.3338C25.8745 27.3203 25.8601 27.2579 25.8481 27.231C25.5709 26.2932 24.8137 22.6794 24.6649 21.9669C24.6502 21.9287 24.6263 21.8949 24.5955 21.8686C24.5647 21.8423 24.5279 21.8243 24.4885 21.8163L20.2753 20.8247L20.2669 20.821ZM26.5345 27.3203C26.5764 27.3207 26.6177 27.3316 26.6545 27.3522C27.8726 27.9983 29.2003 28.4017 30.5665 28.5409C30.632 28.5458 30.6931 28.5765 30.7369 28.6266C30.7917 28.5495 30.8642 28.4873 30.9481 28.4454C31.6153 28.1748 33.4021 26.5038 34.7881 25.0617C34.8436 25.0006 34.911 24.952 34.986 24.9191C35.0611 24.8862 35.142 24.8697 35.2237 24.8707C35.3179 24.8718 35.4108 24.8935 35.4961 24.9344L35.9125 25.1302C36.4681 25.3922 37.3585 25.8121 38.0209 26.1218C38.0844 26.1519 38.1536 26.1673 38.2237 26.1671C38.2959 26.1679 38.3672 26.1512 38.4319 26.1185C38.4965 26.0857 38.5527 26.0378 38.5957 25.9786C39.1957 25.1425 39.7585 23.802 40.0597 22.8985L40.0693 22.8116C40.0885 22.6519 40.0989 22.4913 40.1005 22.3305V22.3023C40.0861 20.5639 39.2497 18.5758 38.8921 17.7262L38.8645 17.6589C38.825 17.5652 38.7574 17.4867 38.6713 17.4349C38.3113 17.2194 37.5493 16.8974 36.6793 16.5975C36.6321 16.5811 36.5905 16.5514 36.5593 16.5118L34.4605 19.8172C34.4031 19.9034 34.3268 19.9748 34.2377 20.0256C34.1485 20.0764 34.0489 20.1052 33.9469 20.1098C33.89 20.1101 33.8335 20.1002 33.7801 20.0804C33.7351 20.0688 33.6938 20.0456 33.6601 20.013C32.9905 19.4842 30.3433 18.8635 28.7185 18.5734C28.6727 18.5653 28.628 18.5517 28.5853 18.533L28.5697 18.5501L25.0897 21.6718C25.1229 21.7293 25.1471 21.7917 25.1617 21.8567C25.3105 22.5692 26.0641 26.1696 26.3305 27.0706C26.368 27.1674 26.3824 27.2719 26.3725 27.3754C26.4189 27.339 26.4759 27.3196 26.5345 27.3203ZM15.2269 24.408C15.3456 25.0898 15.5165 25.7611 15.7381 26.4157L15.8077 25.5183C15.8156 25.4129 15.79 25.3077 15.7345 25.2184L15.2269 24.408ZM17.2153 16.0748C17.1291 16.074 17.0445 16.0974 16.9706 16.1426C16.8967 16.1877 16.8364 16.2528 16.7965 16.3306C15.9055 18.1215 15.4448 20.103 15.4525 22.1113C15.4523 22.7068 15.4924 23.3015 15.5725 23.8913C15.5822 23.9625 15.6072 24.0307 15.6457 24.0909L16.1725 24.9331C16.2069 24.9882 16.2362 25.0464 16.2601 25.107H16.2973L17.6041 25.0127C17.6279 25.0131 17.6516 25.0159 17.6749 25.0213C17.6809 24.9635 17.6909 24.9062 17.7049 24.8499C18.2137 22.5459 19.1893 21.1589 19.6153 20.6398C19.5693 20.5974 19.5396 20.5397 19.5313 20.477L18.9913 16.1127C18.9913 16.098 18.9913 16.0846 18.9913 16.0711L17.2153 16.0748ZM20.3413 20.2971L24.6013 21.2972C24.6355 21.3055 24.6692 21.3161 24.7021 21.3291C24.7149 21.3107 24.7298 21.2938 24.7465 21.2789L28.2481 18.1376C28.2366 18.1026 28.2289 18.0665 28.2253 18.0298C28.1053 17.0064 27.7453 13.9532 27.6325 13.3558C27.6209 13.3161 27.6161 13.2747 27.6181 13.2334C27.5759 13.2602 27.5273 13.2746 27.4777 13.275C27.4357 13.2747 27.3945 13.2638 27.3577 13.2432C26.5921 12.822 25.2937 12.5833 24.3337 12.5013C24.2996 12.4988 24.2663 12.4895 24.2358 12.4739C24.2053 12.4582 24.1781 12.4366 24.1558 12.4102C24.1335 12.3838 24.1165 12.3532 24.1058 12.3201C24.0952 12.287 24.091 12.252 24.0937 12.2173C24.0994 12.1505 24.1294 12.0883 24.1778 12.043C24.2262 11.9977 24.2895 11.9725 24.3553 11.9724C25.3849 12.0594 26.7637 12.3164 27.5953 12.7755C27.6532 12.8094 27.6961 12.8646 27.7153 12.9298C27.7906 12.8285 27.8914 12.7499 28.0069 12.7021C28.4965 12.4633 29.9005 11.8855 32.4289 11.6101C32.4231 11.5898 32.4202 11.5688 32.4205 11.5476V10.4214C32.4196 10.3187 32.3872 10.219 32.3278 10.1361C32.2684 10.0533 32.1849 9.99165 32.0893 9.95984C29.6099 9.09943 26.9295 9.04766 24.4201 9.81171C24.3228 9.84001 24.2368 9.89892 24.1743 9.98004C24.1118 10.0612 24.076 10.1603 24.0721 10.2634L24.0181 11.8366C24.0277 11.959 24.0049 12.3262 23.7265 12.4891C22.2196 13.4022 20.8478 14.5296 19.6525 15.8373C19.6046 15.8907 19.5492 15.9365 19.4881 15.9732C19.4975 15.9954 19.504 16.0189 19.5073 16.0429L20.0353 20.3277C20.1134 20.3058 20.1942 20.2951 20.2753 20.2958L20.3413 20.2971ZM32.7877 12.1047C32.7689 12.1031 32.75 12.1031 32.7313 12.1047C30.1273 12.3617 28.7173 12.9396 28.2325 13.1758C28.1557 13.2101 28.1389 13.2395 28.1377 13.2456C28.2781 13.9495 28.6909 17.5499 28.7377 17.9576C28.7395 17.9791 28.7481 17.9993 28.7622 18.0154C28.7762 18.0315 28.795 18.0426 28.8157 18.047C29.2417 18.1229 32.9617 18.8035 33.9613 19.5723C33.994 19.5542 34.0227 19.5291 34.0453 19.4989L36.2125 16.0907C36.2389 16.0552 36.2809 15.9768 36.2617 15.934V15.9279C35.5969 14.6596 34.4845 13.3864 32.9533 12.1451C32.9036 12.114 32.8457 12.0999 32.7877 12.1047ZM36.7957 16.0833L36.8473 16.0968C37.5485 16.3268 38.2306 16.6133 38.8873 16.9537C38.8824 16.8907 38.8994 16.8279 38.9353 16.7762L39.2629 16.3159L39.2557 16.3012C37.9573 13.608 35.7937 11.544 33.0001 10.3161C32.9748 10.3058 32.9516 10.2909 32.9317 10.272C32.9389 10.3206 32.9425 10.3697 32.9425 10.4189V11.544C32.9437 11.5599 32.9437 11.5758 32.9425 11.5917C33.0623 11.61 33.1755 11.6593 33.2713 11.7349C34.8565 13.0204 36.0157 14.3486 36.7129 15.6818C36.7799 15.8047 36.8012 15.9481 36.7729 16.0858L36.7957 16.0833ZM23.8729 9.53994C20.7829 10.6135 18.198 12.8269 16.6261 15.7455C16.7972 15.6193 17.0029 15.5512 17.2141 15.5508H19.0705H19.0849C19.0976 15.5522 19.1105 15.5522 19.1233 15.5508C19.1513 15.5507 19.1791 15.5445 19.2046 15.5324C19.23 15.5204 19.2527 15.5028 19.2709 15.481C20.503 14.1336 21.9172 12.9723 23.4709 12.0324C23.4995 11.9808 23.5117 11.9213 23.5057 11.8623L23.5597 10.2451C23.5638 10.1123 23.5937 9.98168 23.6474 9.86068C23.7012 9.73968 23.7778 9.63068 23.8729 9.53994ZM32.6449 9.70031C32.7315 9.78691 32.8019 9.88898 32.8525 10.0015C32.8557 9.98979 32.8597 9.97834 32.8645 9.96719C32.8882 9.91054 32.9307 9.86419 32.9845 9.83619C32.8705 9.78967 32.7577 9.74683 32.6449 9.70031ZM35.0125 24.8878C34.9505 24.8882 34.8906 24.8657 34.8436 24.8246C34.7966 24.7834 34.7658 24.7263 34.7569 24.6638C34.4785 22.8361 34.1665 21.2103 33.9397 20.4232C33.9207 20.3558 33.9286 20.2835 33.9616 20.222C33.9947 20.1606 34.0502 20.115 34.1161 20.0951L34.1425 20.0877H34.1893C34.2452 20.0879 34.2995 20.1067 34.3441 20.1411C34.3887 20.1755 34.4211 20.2238 34.4365 20.2787C34.6693 21.0879 34.9873 22.7381 35.2681 24.5867C35.2784 24.6558 35.2615 24.7263 35.221 24.7828C35.1805 24.8392 35.1198 24.877 35.0521 24.8878H35.0377H35.0125Z" fill="#00F9FF"/>
<path d="M28.0585 35.7087H28.0333C27.4381 35.7085 26.8436 35.6676 26.2537 35.5863L26.0053 35.5508H25.9657L25.8877 35.5373H25.8577L25.5709 35.4847L25.3909 35.4479L25.1509 35.3928L25.0825 35.3769L25.0609 35.3708L24.8965 35.3316C24.8101 35.3096 24.7381 35.2912 24.6685 35.2716L24.6277 35.2606L24.4981 35.2239L24.3301 35.1749L24.2905 35.1627L24.2341 35.1455C24.1609 35.1235 24.0877 35.099 24.0145 35.0745L23.9197 35.0427C23.8117 35.0072 23.7061 34.9705 23.5993 34.9325L23.4709 34.8848L23.3509 34.837L23.3029 34.8199L23.0545 34.7195C22.9933 34.695 22.9345 34.6681 22.8721 34.6424C22.7713 34.5995 22.6765 34.5579 22.5853 34.52L22.4905 34.4771L22.4569 34.4612C22.4005 34.4367 22.3441 34.4086 22.2877 34.3804L22.1677 34.3229L22.1005 34.2898L22.0249 34.2519L21.8377 34.1552L21.8005 34.1356C21.7069 34.0854 21.6265 34.0425 21.5509 33.9997L21.4105 33.9189C21.0289 33.6936 20.6509 33.4451 20.2897 33.1844L20.3113 33.1183L20.2729 33.1721C18.6386 31.9713 17.2924 30.408 16.3357 28.5998C15.3791 26.7916 14.8368 24.7857 14.7498 22.7329C14.6627 20.68 15.0331 18.6338 15.8331 16.7481C16.6331 14.8624 17.8419 13.1863 19.3685 11.846C20.895 10.5056 22.6997 9.5359 24.6467 9.00977C26.5937 8.48365 28.6322 8.41481 30.609 8.80844C32.5859 9.20208 34.4494 10.0479 36.0596 11.2824C37.6697 12.5168 38.9844 14.1076 39.9049 15.9353C40.0093 16.1422 40.1113 16.3588 40.2085 16.578L40.3357 16.8816C40.3441 16.8999 40.3525 16.922 40.3609 16.9428L40.3753 16.9783L40.4029 17.0517C40.4353 17.1362 40.4725 17.2329 40.5097 17.3345C40.5229 17.3713 40.5313 17.3945 40.5409 17.4166L40.5469 17.4374L40.5529 17.4533L40.5601 17.4741C40.5781 17.5231 40.5925 17.561 40.6045 17.5965L40.6345 17.6834C40.6405 17.6994 40.6465 17.7177 40.6525 17.7349L40.6657 17.7728C40.6765 17.8034 40.6873 17.8352 40.6969 17.8671C40.7065 17.8989 40.7185 17.9295 40.7281 17.9613C40.7377 17.9932 40.7401 17.9981 40.7461 18.0176L40.7581 18.0568C40.7689 18.0886 40.7797 18.1229 40.7893 18.156C40.7989 18.189 40.8013 18.1927 40.8073 18.2123L40.8193 18.2551C41.1793 19.439 41.5585 21.2043 41.3461 22.8973C41.1494 26.3583 39.6644 29.612 37.1946 31.9933C34.7248 34.3746 31.4568 35.7036 28.0585 35.7087ZM20.3569 33.0595C20.7169 33.3215 21.0901 33.5675 21.4681 33.794L21.6073 33.8748L21.8473 34.0034C21.8613 34.0115 21.8758 34.0188 21.8905 34.0254L22.0813 34.1246L22.1449 34.1564L22.2193 34.1931L22.3393 34.2519C22.3945 34.2788 22.4485 34.3057 22.5049 34.3302L22.5409 34.3474C22.5709 34.3608 22.6009 34.3755 22.6309 34.3878C22.7233 34.4294 22.8169 34.471 22.9117 34.5102C22.9777 34.5383 23.0317 34.564 23.0977 34.5885C23.1781 34.6228 23.2609 34.6546 23.3449 34.6889L23.3917 34.7061C23.4325 34.722 23.4733 34.7379 23.5117 34.7526L23.6401 34.8003C23.7445 34.8383 23.8501 34.8738 23.9557 34.9093L24.0517 34.9411C24.1237 34.9656 24.1957 34.9888 24.2701 35.0109C24.2874 35.0175 24.305 35.0232 24.3229 35.028L24.3649 35.0403L24.5305 35.0892L24.6577 35.126L24.6997 35.137C24.7681 35.1566 24.8377 35.1737 24.9073 35.1908C24.9769 35.208 25.0273 35.2227 25.0873 35.2349H25.1101C25.1317 35.2349 25.1521 35.2459 25.1749 35.2496L25.4149 35.3047L25.5913 35.3414L25.8733 35.3928H25.9093L25.9825 35.4051L26.0233 35.4112C26.1049 35.4247 26.1865 35.4357 26.2633 35.4467C26.8472 35.5274 27.4357 35.5683 28.0249 35.5691H28.0501C31.4163 35.5622 34.6528 34.2435 37.0975 31.8828C39.5423 29.5221 41.0106 26.2978 41.2021 22.8692C41.4133 21.1896 41.0341 19.4414 40.6801 18.2723L40.6501 18.1731C40.6405 18.1388 40.6297 18.107 40.6201 18.0764L40.6069 18.0336L40.5889 17.9809C40.5793 17.9479 40.5685 17.916 40.5577 17.8854C40.5469 17.8548 40.5385 17.823 40.5277 17.7948L40.5145 17.7544L40.4977 17.7067L40.4809 17.6602L40.4677 17.6186L40.4281 17.5071L40.4149 17.4716L40.4125 17.4594V17.4423L40.3873 17.3749C40.3453 17.2599 40.3093 17.1644 40.2745 17.0775C40.2673 17.055 40.2588 17.0329 40.2493 17.0113L40.2325 16.9697L40.2097 16.911L40.0825 16.6086C39.9877 16.3931 39.8857 16.1789 39.7825 15.9732C38.8743 14.156 37.5732 12.5731 35.9776 11.3438C34.382 10.1146 32.5335 9.27126 30.5717 8.87741C28.6098 8.48357 26.5859 8.54954 24.6528 9.07034C22.7196 9.59114 20.9276 10.5532 19.4122 11.8838C17.8967 13.2144 16.6974 14.8789 15.9047 16.7515C15.112 18.6241 14.7467 20.656 14.8363 22.6938C14.9259 24.7315 15.468 26.7219 16.4219 28.5146C17.3758 30.3073 18.7164 31.8555 20.3425 33.0424L20.3209 33.1085L20.3569 33.0595ZM28.5397 35.2704C28.523 35.2701 28.5071 35.2634 28.495 35.2516C28.483 35.2398 28.4758 35.2238 28.4749 35.2068C28.4746 35.1981 28.476 35.1894 28.4789 35.1813C28.4819 35.1731 28.4864 35.1656 28.4922 35.1593C28.498 35.1529 28.5049 35.1478 28.5127 35.1442C28.5204 35.1405 28.5288 35.1385 28.5373 35.1382C31.1124 35.0419 33.5979 34.1492 35.6641 32.5784C35.671 32.5731 35.6787 32.5693 35.687 32.5671C35.6953 32.5649 35.704 32.5644 35.7125 32.5657C35.721 32.5669 35.7291 32.5699 35.7365 32.5744C35.7438 32.5789 35.7502 32.5848 35.7553 32.5918C35.7652 32.6062 35.7693 32.6237 35.7668 32.641C35.7644 32.6583 35.7555 32.674 35.7421 32.6849C33.6545 34.2714 31.1435 35.1731 28.5421 35.2704H28.5397ZM27.9061 34.4894L27.6925 34.4759L27.5437 34.4624L27.4033 34.4477L27.2317 34.4294L27.1225 34.4159H27.0985C27.0445 34.4159 26.9785 34.4025 26.9089 34.3927C26.7037 34.3633 26.5165 34.3314 26.3377 34.2959H26.3185C26.2741 34.2874 26.2297 34.2788 26.1853 34.2678C26.1409 34.2568 26.0857 34.247 26.0329 34.2335C25.9801 34.22 25.9297 34.2103 25.8757 34.1968L25.8421 34.1882C25.8001 34.1772 25.7569 34.1674 25.7149 34.1552C25.6153 34.1295 25.5121 34.1001 25.4077 34.0695L25.2121 34.0083L25.0381 33.9495L24.8893 33.8981L24.8593 33.8871L24.7393 33.8442C24.7009 33.8307 24.6613 33.8148 24.6193 33.7989L24.4993 33.7512L24.4501 33.7304L24.4333 33.7242C24.3533 33.6916 24.2733 33.6573 24.1933 33.6214L24.1249 33.592L24.1081 33.5835L24.0253 33.5467L23.9629 33.5161L23.8933 33.4831C23.7925 33.4353 23.6905 33.3851 23.5861 33.3313L23.4469 33.2578L23.4301 33.2492H23.4205H23.4133L23.3449 33.2113L23.2717 33.1697C23.1673 33.1134 23.0605 33.0473 22.9525 32.986L22.9357 32.975C22.9291 32.9695 22.9237 32.9627 22.9198 32.9549C22.9158 32.9472 22.9134 32.9387 22.9128 32.9301C22.9121 32.9214 22.9131 32.9126 22.9158 32.9044C22.9186 32.8961 22.9229 32.8885 22.9285 32.882C22.9397 32.8687 22.9555 32.8605 22.9726 32.8591C22.9897 32.8577 23.0067 32.8633 23.0197 32.8746C23.1241 32.9359 23.2297 32.9971 23.3341 33.0546L23.4049 33.0938L23.4697 33.1293L23.6353 33.2162C23.7385 33.2701 23.8393 33.3203 23.9389 33.368L24.0061 33.3998L24.0373 33.4133L24.0733 33.4304L24.1501 33.4659L24.1693 33.4745C24.1897 33.4843 24.2113 33.4941 24.2341 33.5027C24.3145 33.5394 24.3925 33.5737 24.4741 33.6043L24.4933 33.6128L24.5293 33.6275L24.6589 33.6789L24.7789 33.723L24.8989 33.7659L24.9289 33.7769C24.9781 33.794 25.0261 33.8124 25.0741 33.8271L25.2481 33.8858C25.3129 33.9066 25.3765 33.9275 25.4401 33.9458C25.5433 33.9764 25.6453 34.0046 25.7437 34.0303L25.8637 34.0633L25.8973 34.0719C25.9489 34.0854 26.0005 34.0976 26.0509 34.1074C26.1013 34.1172 26.1553 34.1331 26.2033 34.1417C26.2513 34.1503 26.2909 34.1613 26.3329 34.1699H26.3533C26.5297 34.2041 26.7133 34.236 26.9173 34.2653L27.1141 34.291L27.2341 34.3057L27.4009 34.3241L27.5425 34.3388L27.6913 34.3523L27.8869 34.3694C29.6617 34.2029 30.7345 33.5406 31.3201 33.0142C31.3323 33.0019 31.3486 32.9951 31.3657 32.9951C31.3828 32.9951 31.3992 33.0019 31.4113 33.0142C31.4174 33.0202 31.4223 33.0275 31.4256 33.0355C31.4289 33.0435 31.4306 33.052 31.4306 33.0607C31.4306 33.0694 31.4289 33.078 31.4256 33.086C31.4223 33.094 31.4174 33.1012 31.4113 33.1072C30.8245 33.641 29.7325 34.3192 27.9061 34.4894ZM32.1061 32.9652C32.0138 32.9748 31.9214 32.9492 31.8465 32.8934C31.7716 32.8376 31.7196 32.7554 31.7005 32.6629C31.6789 32.5661 31.1437 30.1777 30.8713 29.1249C30.8291 29.0349 30.8234 28.9315 30.8556 28.8373C30.8877 28.743 30.955 28.6656 31.0429 28.6217C31.8205 28.3071 33.8533 26.3239 34.9321 25.194C34.9932 25.1276 35.0737 25.0833 35.1616 25.0679C35.2496 25.0524 35.34 25.0666 35.4193 25.1083L35.6509 25.2172C36.1741 25.4621 37.2025 25.9517 37.9453 26.2957C38.0834 26.3614 38.2393 26.3768 38.3871 26.3394C38.535 26.302 38.6658 26.214 38.7577 26.0901C39.3757 25.2331 39.9505 23.8534 40.2553 22.9365L40.2673 22.8276C40.287 22.6614 40.2978 22.4942 40.2997 22.3269V22.2963C40.2841 20.5175 39.4369 18.5012 39.0757 17.6443L39.0469 17.5769C38.9918 17.4449 38.8968 17.3342 38.7757 17.2611C38.4073 17.0395 37.6297 16.7114 36.7465 16.4041C36.7384 16.4014 36.7308 16.397 36.7244 16.3912C36.7179 16.3855 36.7126 16.3785 36.7088 16.3706C36.705 16.3628 36.7028 16.3542 36.7022 16.3455C36.7017 16.3367 36.7029 16.3279 36.7057 16.3197C36.7114 16.3031 36.7233 16.2894 36.7388 16.2816C36.7543 16.2739 36.7721 16.2726 36.7885 16.278C37.6789 16.5865 38.4685 16.9183 38.8417 17.1448C38.9867 17.2326 39.1005 17.365 39.1669 17.5231L39.1945 17.5904C39.5545 18.4584 40.4137 20.4893 40.4293 22.2963V22.3244C40.4278 22.4979 40.4165 22.6712 40.3957 22.8435L40.3825 22.9659C40.3818 22.9732 40.3798 22.9802 40.3765 22.9867C40.0681 23.9122 39.4873 25.3005 38.8621 26.1696C38.7523 26.3178 38.5959 26.4229 38.4192 26.4675C38.2425 26.512 38.0561 26.4933 37.8913 26.4145C37.1485 26.0668 36.1201 25.5833 35.5969 25.336L35.3653 25.227C35.3109 25.1973 35.2485 25.1866 35.1876 25.1966C35.1267 25.2065 35.0707 25.2366 35.0281 25.2821C34.9081 25.4045 32.0881 28.334 31.0957 28.7344C31.0388 28.7665 30.9962 28.8199 30.977 28.8833C30.9577 28.9468 30.9633 29.0154 30.9925 29.0747C31.2697 30.1385 31.8049 32.5294 31.8325 32.631C31.8445 32.6928 31.8794 32.7476 31.9299 32.7838C31.9804 32.8201 32.0426 32.8351 32.1037 32.8257H32.1109C32.7109 32.7339 35.8309 32.2221 36.9109 31.277C37.0363 31.1332 37.1472 30.977 37.2421 30.8106C37.8815 29.5752 38.327 28.245 38.5621 26.8687C38.563 26.8596 38.5658 26.8508 38.5701 26.8429C38.5745 26.835 38.5805 26.8281 38.5876 26.8226C38.5947 26.8171 38.6029 26.8132 38.6115 26.8111C38.6202 26.809 38.6292 26.8087 38.638 26.8103C38.6468 26.8119 38.6552 26.8153 38.6626 26.8204C38.67 26.8255 38.6763 26.832 38.6811 26.8397C38.686 26.8474 38.6892 26.8559 38.6906 26.8649C38.692 26.8739 38.6916 26.8831 38.6893 26.8919C38.4529 28.2815 38.0039 29.6246 37.3585 30.8718C37.2557 31.0505 37.1351 31.2179 36.9985 31.3713C35.8801 32.3507 32.7373 32.8636 32.1181 32.9628L32.1061 32.9652ZM20.8105 32.8416C20.6337 32.8418 20.4619 32.7819 20.3221 32.6714C19.5901 32.0948 17.1121 29.9647 15.9745 26.8197C15.9347 26.7073 15.9191 26.5875 15.9289 26.4684L16.0009 25.5343C16.0125 25.3858 15.9763 25.2375 15.8977 25.1119L15.3673 24.2648C15.3043 24.1643 15.2634 24.0511 15.2473 23.933C15.1666 23.3281 15.1265 22.7182 15.1273 22.1077C15.1207 20.0485 15.5941 18.0172 16.5085 16.1813C16.5749 16.049 16.676 15.9382 16.8007 15.8612C16.9253 15.7843 17.0684 15.7442 17.2141 15.7455H19.0525C19.1178 15.7588 19.1853 15.7545 19.2484 15.733C19.3116 15.7115 19.3681 15.6737 19.4125 15.6231C20.6307 14.2867 22.0296 13.1346 23.5669 12.2014C23.7169 12.1108 23.6977 11.8476 23.6977 11.8452L23.7529 10.2537C23.7588 10.0809 23.818 9.91435 23.922 9.77785C24.0261 9.64134 24.1698 9.54183 24.3325 9.49348C26.9066 8.70864 29.6565 8.7617 32.1997 9.64528C32.3584 9.70023 32.4965 9.80403 32.5949 9.94238C32.6933 10.0807 32.7473 10.2468 32.7493 10.4178L32.7553 11.5428C32.7553 11.5603 32.7485 11.5772 32.7363 11.5895C32.7242 11.6019 32.7077 11.6089 32.6905 11.6089C32.6735 11.6089 32.6572 11.6021 32.6451 11.59C32.633 11.5779 32.626 11.5613 32.6257 11.544V10.419C32.624 10.2754 32.5786 10.1358 32.4959 10.0196C32.4131 9.9034 32.2971 9.81624 32.1637 9.77015C29.6434 8.89593 26.9186 8.84501 24.3685 9.62447C24.2336 9.66619 24.1148 9.74984 24.0288 9.86374C23.9427 9.97765 23.8937 10.1161 23.8885 10.2598L23.8333 11.8513C23.8333 11.8513 23.8525 12.1818 23.6317 12.3177C22.1064 13.241 20.7176 14.3812 19.5073 15.7039C19.4499 15.7691 19.3771 15.8184 19.2959 15.8471C19.2146 15.8758 19.1276 15.8829 19.0429 15.8679L17.2153 15.8753C17.093 15.8742 16.9727 15.9079 16.8682 15.9728C16.7636 16.0377 16.679 16.1312 16.6237 16.2425C15.717 18.0602 15.2473 20.0719 15.2533 22.1114C15.2525 22.7158 15.2926 23.3195 15.3733 23.9183C15.3865 24.018 15.4214 24.1133 15.4753 24.1974L16.0045 25.0434C16.0967 25.1939 16.1388 25.3708 16.1245 25.5478L16.0525 26.4818C16.0439 26.5823 16.057 26.6834 16.0909 26.7781C17.2153 29.89 19.6705 31.9993 20.3953 32.571C20.5185 32.6676 20.6708 32.7174 20.8261 32.7118L22.1725 32.6629C22.1592 32.5789 22.1303 32.4983 22.0873 32.4254C21.6913 31.5341 21.4741 30.7715 21.4237 30.0883C21.4231 30.0797 21.4241 30.0709 21.4268 30.0626C21.4294 30.0544 21.4337 30.0467 21.4392 30.0401C21.4448 30.0335 21.4516 30.0281 21.4593 30.0242C21.4669 30.0203 21.4752 30.018 21.4837 30.0173C21.4923 30.0165 21.5009 30.0174 21.5091 30.0201C21.5173 30.0227 21.5248 30.0271 21.5313 30.0328C21.5378 30.0385 21.5431 30.0455 21.5469 30.0534C21.5507 30.0612 21.5529 30.0698 21.5533 30.0785C21.6025 30.7457 21.8149 31.4937 22.2037 32.3654C22.2433 32.4388 22.3369 32.631 22.2865 32.7326C22.2785 32.7499 22.2662 32.7647 22.2508 32.7757C22.2355 32.7866 22.2176 32.7933 22.1989 32.7951L20.8357 32.8416H20.8105ZM38.3065 30.0553C38.2923 30.055 38.2785 30.0503 38.2669 30.0418C38.2534 30.031 38.2447 30.0152 38.2424 29.9978C38.2402 29.9804 38.2447 29.9628 38.2549 29.9488C39.7255 27.9529 40.6005 25.5666 40.7749 23.0761C40.7762 23.0585 40.7842 23.0422 40.7973 23.0308C40.8103 23.0193 40.8273 23.0136 40.8445 23.0149C40.8617 23.0162 40.8777 23.0244 40.8889 23.0377C40.9002 23.051 40.9058 23.0683 40.9045 23.0859C40.7279 25.6021 39.8429 28.0129 38.3557 30.0284C38.3502 30.0365 38.3429 30.0432 38.3343 30.0479C38.3257 30.0526 38.3162 30.0551 38.3065 30.0553ZM21.7165 29.7284C21.6172 29.7276 21.5208 29.6941 21.4417 29.6329C19.5493 28.4087 18.3337 26.2419 17.8993 25.3666C17.8512 25.2129 17.8483 25.0482 17.8909 24.8928C18.4021 22.5754 19.3885 21.2092 19.7881 20.7305C19.7881 20.7305 19.9261 20.4746 20.3149 20.4954L24.5581 21.4919C24.6577 21.5134 24.7496 21.5625 24.8237 21.6338C24.8978 21.705 24.9512 21.7957 24.9781 21.8959C25.1269 22.6097 25.8805 26.2113 26.1505 27.1258C26.1899 27.2143 26.1962 27.3145 26.1681 27.4074C26.14 27.5004 26.0795 27.5796 25.9981 27.6301L25.9585 27.6497C25.5745 27.8395 24.3985 28.4124 23.4037 28.8898L21.9325 29.6721C21.866 29.7084 21.7919 29.7278 21.7165 29.7284ZM20.2669 20.624C20.1949 20.6181 20.1226 20.6317 20.0574 20.6633C19.9921 20.6949 19.9361 20.7434 19.8949 20.8039C19.4929 21.2936 18.5233 22.6403 18.0169 24.9234C17.9825 25.0491 17.9825 25.1821 18.0169 25.3078C18.4453 26.1721 19.6465 28.3157 21.5197 29.5264C21.5704 29.5667 21.6315 29.5909 21.6956 29.5959C21.7596 29.6009 21.8237 29.5865 21.8797 29.5546L23.3449 28.7735C24.3541 28.2924 25.5241 27.7183 25.9081 27.5297L25.9465 27.5114C25.9609 27.5028 26.1157 27.4073 26.0329 27.1649C25.7617 26.2431 25.0057 22.6354 24.8569 21.9229C24.8346 21.8469 24.7922 21.7786 24.7344 21.7255C24.6767 21.6724 24.6057 21.6365 24.5293 21.6217L20.2969 20.6264L20.2669 20.624ZM30.5461 28.869C29.1366 28.726 27.7666 28.3106 26.5093 27.6448C26.4942 27.6365 26.4829 27.6225 26.4778 27.6058C26.4726 27.5892 26.474 27.5711 26.4817 27.5555C26.4899 27.5401 26.5036 27.5285 26.5199 27.5233C26.5363 27.518 26.554 27.5195 26.5693 27.5273C27.8109 28.186 29.1643 28.5969 30.5569 28.738C30.5741 28.7388 30.5903 28.7466 30.6019 28.7596C30.6134 28.7725 30.6195 28.7897 30.6187 28.8072C30.6179 28.8247 30.6103 28.8412 30.5976 28.8531C30.5849 28.8649 30.5681 28.8711 30.5509 28.8703L30.5461 28.869ZM16.3129 25.4314C16.2957 25.4314 16.2792 25.4245 16.2671 25.4121C16.2549 25.3997 16.2481 25.3829 16.2481 25.3653C16.2481 25.3478 16.2549 25.331 16.2671 25.3186C16.2792 25.3062 16.2957 25.2992 16.3129 25.2992L17.6125 25.205C17.6296 25.2043 17.6463 25.2104 17.6591 25.2221C17.6719 25.2337 17.6797 25.25 17.6809 25.2674C17.6816 25.276 17.6805 25.2847 17.6778 25.2929C17.6752 25.3011 17.6709 25.3087 17.6653 25.3152C17.6597 25.3217 17.6529 25.327 17.6453 25.3308C17.6377 25.3345 17.6294 25.3367 17.6209 25.3372L16.3165 25.4314H16.3129ZM35.0125 24.6896C34.9971 24.6895 34.9822 24.6837 34.9705 24.6734C34.9589 24.6631 34.9512 24.6488 34.9489 24.6333C34.6693 22.797 34.3549 21.1626 34.1269 20.3681C34.1218 20.3595 34.1186 20.3499 34.1177 20.3398C34.1168 20.3298 34.1181 20.3197 34.1216 20.3103C34.1251 20.3009 34.1306 20.2924 34.1378 20.2855C34.145 20.2786 34.1536 20.2735 34.163 20.2705C34.1724 20.2675 34.1824 20.2668 34.1922 20.2683C34.2019 20.2699 34.2112 20.2737 34.2193 20.2794C34.2274 20.2852 34.2341 20.2927 34.2388 20.3015C34.2436 20.3103 34.2464 20.3201 34.2469 20.3302C34.4773 21.1308 34.7929 22.7786 35.0725 24.6149C35.0739 24.6234 35.0736 24.6322 35.0716 24.6406C35.0696 24.649 35.066 24.6569 35.0609 24.6638C35.0559 24.6708 35.0495 24.6767 35.0423 24.6811C35.035 24.6855 35.0269 24.6884 35.0185 24.6896H35.0125ZM24.9229 21.5434C24.9135 21.5434 24.9043 21.5414 24.8958 21.5374C24.8873 21.5333 24.8797 21.5274 24.8737 21.5201C24.8628 21.5068 24.8573 21.4897 24.8584 21.4724C24.8595 21.455 24.8671 21.4388 24.8797 21.4271L28.3669 18.298C28.3733 18.2922 28.3807 18.2878 28.3888 18.2849C28.3969 18.282 28.4054 18.2808 28.4139 18.2813C28.4225 18.2819 28.4308 18.2841 28.4385 18.2879C28.4462 18.2917 28.453 18.297 28.4587 18.3035C28.4644 18.31 28.4688 18.3176 28.4715 18.3258C28.4743 18.3341 28.4755 18.3428 28.475 18.3515C28.4745 18.3602 28.4724 18.3687 28.4686 18.3765C28.4649 18.3843 28.4597 18.3914 28.4533 18.3971L24.9601 21.5262C24.9482 21.537 24.9329 21.5431 24.9169 21.5434H24.9229ZM19.7917 20.504C19.7759 20.5041 19.7606 20.4984 19.7486 20.4878C19.7367 20.4772 19.729 20.4625 19.7269 20.4465L19.1833 16.0846C19.1816 16.0673 19.1865 16.05 19.197 16.0363C19.2075 16.0226 19.2228 16.0136 19.2397 16.0112C19.2482 16.01 19.2569 16.0105 19.2652 16.0128C19.2735 16.015 19.2813 16.0189 19.2881 16.0243C19.2949 16.0296 19.3007 16.0363 19.3049 16.044C19.3092 16.0516 19.3119 16.06 19.3129 16.0687L19.8505 20.4306C19.8522 20.4479 19.8473 20.4652 19.8368 20.4789C19.8263 20.4926 19.811 20.5016 19.7941 20.504H19.7917ZM33.9517 19.9078C33.9141 19.9078 33.8767 19.9012 33.8413 19.8882C33.8255 19.884 33.8113 19.8751 33.8005 19.8625C33.0649 19.2651 30.1909 18.6297 28.7605 18.3751C28.673 18.3583 28.593 18.3138 28.5318 18.2478C28.4706 18.1819 28.4313 18.0979 28.4197 18.0079C28.2997 16.9844 27.9397 13.9239 27.8197 13.3179C27.7921 13.2261 27.8113 13.007 28.0921 12.8821C28.5913 12.6372 30.0409 12.0435 32.6821 11.7803C32.8452 11.7544 33.0118 11.792 33.1489 11.8856C34.7089 13.1551 35.8561 14.4625 36.5413 15.7712C36.6745 16.0161 36.4861 16.2609 36.4777 16.2744L34.2973 19.7022C34.2587 19.7616 34.207 19.8112 34.1464 19.8469C34.0858 19.8826 34.0179 19.9034 33.9481 19.9078H33.9517ZM33.8917 19.7683C33.8917 19.7683 34.0369 19.8282 34.1989 19.6287L36.3793 16.2009C36.3793 16.2009 36.5245 16.0075 36.4333 15.8337C35.7553 14.5409 34.6261 13.2469 33.0733 11.9896C32.9639 11.9189 32.833 11.8911 32.7049 11.9113C30.0805 12.1708 28.6465 12.7584 28.1521 12.9996C27.9037 13.111 27.9517 13.2824 27.9517 13.2836C28.0969 14.0182 28.5517 17.9503 28.5517 17.9907C28.56 18.0525 28.587 18.1102 28.629 18.1556C28.6709 18.201 28.7257 18.232 28.7857 18.2441C28.9573 18.2747 32.9953 19.0007 33.8917 19.767V19.7683ZM39.1477 16.9954C39.134 16.9955 39.1206 16.9912 39.1093 16.9832C39.1024 16.9782 39.0965 16.9718 39.092 16.9645C39.0875 16.9571 39.0845 16.9489 39.0831 16.9404C39.0818 16.9318 39.0821 16.9231 39.0842 16.9147C39.0862 16.9062 39.0898 16.8983 39.0949 16.8914L39.4909 16.3331L39.4321 16.2107C38.1121 13.4807 35.9161 11.3788 33.0793 10.1325C33.0714 10.1291 33.0643 10.1242 33.0583 10.118C33.0523 10.1118 33.0475 10.1045 33.0443 10.0964C33.041 10.0883 33.0394 10.0797 33.0394 10.071C33.0395 10.0623 33.0412 10.0536 33.0445 10.0456C33.0478 10.0376 33.0527 10.0303 33.0587 10.0241C33.0648 10.018 33.072 10.0131 33.0799 10.0098C33.0878 10.0065 33.0963 10.0049 33.1048 10.0049C33.1134 10.005 33.1218 10.0067 33.1297 10.0101C35.9953 11.2698 38.2153 13.3938 39.5485 16.152L39.6253 16.3099C39.6315 16.3202 39.6347 16.3321 39.6347 16.3442C39.6347 16.3562 39.6315 16.3681 39.6253 16.3784L39.1969 16.9697C39.1908 16.978 39.1828 16.9847 39.1736 16.9891C39.1644 16.9936 39.1543 16.9958 39.1441 16.9954H39.1477ZM27.4813 13.078C27.4709 13.0779 27.4606 13.0754 27.4513 13.0706C26.6593 12.6348 25.3309 12.39 24.3517 12.3055C24.3347 12.3039 24.319 12.2956 24.308 12.2823C24.297 12.269 24.2916 12.2518 24.2929 12.2345C24.2947 12.2173 24.303 12.2014 24.3159 12.1903C24.3289 12.1791 24.3456 12.1735 24.3625 12.1745C25.3549 12.259 26.7037 12.5087 27.5125 12.9531C27.5277 12.9616 27.539 12.9759 27.5439 12.9929C27.5489 13.0098 27.5471 13.0281 27.5389 13.0437C27.5322 13.0536 27.523 13.0615 27.5122 13.0665C27.5014 13.0714 27.4895 13.0733 27.4777 13.0718L27.4813 13.078Z" fill="white"/>
<defs>
<filter id="filter0_f_20_576" x="0.912476" y="2.13818" width="45.4337" height="45.4337" filterUnits="userSpaceOnUse" color-interpolation-filters="sRGB">
<feFlood flood-opacity="0" result="BackgroundImageFix"/>
<feBlend mode="normal" in="SourceGraphic" in2="BackgroundImageFix" result="shape"/>
<feGaussianBlur stdDeviation="9" result="effect1_foregroundBlur_20_576"/>
</filter>
<filter id="filter1_f_20_576" x="15.3809" y="0.239014" width="34.5787" height="34.5787" filterUnits="userSpaceOnUse" color-interpolation-filters="sRGB">
<feFlood flood-opacity="0" result="BackgroundImageFix"/>
<feBlend mode="normal" in="SourceGraphic" in2="BackgroundImageFix" result="shape"/>
<feGaussianBlur stdDeviation="6" result="effect1_foregroundBlur_20_576"/>
</filter>
</defs>
</svg>
