<svg width="506" height="453" viewBox="0 0 506 453" fill="none" xmlns="http://www.w3.org/2000/svg">
<g clip-path="url(#clip0_92_38686)">
<path d="M221.593 330.55C222.98 330.482 223.836 330.677 224.45 330.376C233.839 325.752 241.953 319.424 248.903 311.606C251.1 309.134 249.305 307.529 247.302 306.391C239.789 302.126 231.612 300.137 223.037 300.279C218.536 300.354 217.771 302.216 220.524 305.787C224.496 310.939 225.346 316.533 223.646 322.68C222.982 325.081 222.386 327.501 221.593 330.55ZM258.705 328.104C246.535 335.889 234.658 343.801 222.447 351.156C216.877 354.511 210.935 353.141 206.49 348.713C203.339 345.574 202.126 342.019 203.68 337.544C205.013 333.701 206.107 329.735 206.86 325.739C207.96 319.896 206.435 314.515 203.066 309.648C202.349 308.612 201.574 307.607 200.963 306.51C195.778 297.22 198.559 288.481 208.601 285.329C224.09 280.468 238.991 282.425 252.743 291.423C254.452 292.54 256.048 293.829 257.709 295.02C257.786 295.075 257.991 294.95 258.708 294.744C258.708 292.167 258.74 289.398 258.7 286.631C258.65 283.156 260.238 281.3 263.779 281.299C277.155 281.296 290.531 281.298 303.907 281.297C307.235 281.296 308.7 282.958 308.694 286.295C308.657 309.977 308.649 333.659 308.704 357.341C308.713 360.928 307.228 362.522 303.63 362.49C289.479 362.369 290.563 363.951 290.583 350.162C290.604 335.005 290.608 319.849 290.574 304.692C290.562 299.31 290.319 299.348 283.357 299.151C279.148 299.03 277.093 299.935 277.175 304.869C277.454 321.916 277.294 338.97 277.275 356.021C277.268 361.363 276.217 362.439 271.019 362.463C258.173 362.525 258.584 363.551 258.694 350.237C258.757 342.559 258.705 334.881 258.705 328.104Z" fill="#444343"/>
<path d="M146.549 299.051C139.23 299.051 132.003 298.913 124.784 299.104C120.648 299.213 118.794 297.836 118.781 293.42C118.743 281.292 118.611 281.292 130.824 281.292C140.425 281.292 150.026 281.272 159.626 281.304C162.637 281.313 165.91 281.045 165.866 277.296C165.823 273.461 162.756 272.019 159.2 272.322C152.324 272.908 145.469 274.148 138.597 274.216C134.501 274.257 130.13 273.188 126.344 271.548C120.019 268.806 118.694 258.794 123.865 254.25C124.957 253.289 127.881 252.845 128.877 253.601C138.085 260.596 147.992 257.793 157.898 256.29C161.129 255.799 164.547 255.41 167.726 255.927C179.045 257.767 184.543 267.112 181.337 278.436C181.126 279.183 180.973 279.948 180.653 281.295C183.532 281.295 186.155 281.306 188.779 281.293C192.367 281.275 194.314 282.706 194.27 286.656C194.115 300.296 195.605 299.064 182.322 299.052C177.6 299.048 172.876 299.155 168.159 299.014C165.489 298.934 164.241 299.59 164.107 302.634C163.582 314.541 165.289 316.086 176.867 313.461C180.082 312.732 183.263 311.815 186.507 311.263C190.44 310.595 193.88 312.711 194.022 316.5C194.292 323.734 194.925 331.186 193.587 338.198C191.136 351.037 181.493 357.703 169.803 361.323C160.437 364.223 150.796 363.718 141.431 361.02C127.754 357.078 118.829 344.654 118.08 328.291C117.801 322.193 118.461 316.025 119.045 309.923C119.37 306.523 121.467 304.56 125.198 304.965C126.287 305.082 127.399 304.978 128.501 304.983C134.826 305.007 135.367 305.811 135.679 311.988C136.011 318.57 136.545 325.184 137.643 331.674C138.899 339.099 143.79 343.445 151.264 343.769C156.652 344.003 162.154 343.493 167.472 342.554C169.884 342.129 172.494 340.28 174.064 338.313C175.663 336.31 176.094 333.368 177.036 330.837C174.787 330.758 172.52 330.458 170.294 330.65C166.392 330.985 162.514 332.062 158.631 332.043C150.373 332.003 147.36 328.717 147.262 320.408C147.185 313.779 147.186 307.15 147.13 300.521C147.128 300.237 146.917 299.957 146.549 299.051Z" fill="#444343"/>
<path d="M351.933 299.054C348.159 299.054 344.379 298.935 340.614 299.123C339.412 299.183 338.249 300.057 337.069 300.56C337.745 301.739 338.139 303.42 339.155 303.997C341.446 305.293 344.047 306.037 346.517 307.016C356.623 311.028 358.287 322.026 349.65 328.711C347.072 330.705 343.844 331.833 341.151 333.702C339.753 334.673 338.875 336.396 337.761 337.78C339.308 338.51 340.806 339.728 342.409 339.889C350.201 340.675 358.029 341.095 365.829 341.819C369.012 342.115 370.206 340.747 370.05 337.786C369.885 334.642 369.58 331.503 369.488 328.356C369.266 320.791 369.161 313.223 368.953 305.658C368.834 301.39 367.02 298.822 362.312 299.025C358.858 299.173 355.393 299.054 351.933 299.054ZM387.856 318.754C387.855 328.86 387.919 338.967 387.837 349.073C387.758 358.828 380.707 364.662 371.536 361.788C357.587 357.416 343.434 357.086 329.077 357.879C318.874 358.441 315.433 355.028 315.308 344.719C315.304 344.402 315.308 344.087 315.307 343.771C315.263 329.752 315.312 329.88 328.37 324.73C330.88 323.739 334.696 321.279 334.662 319.559C334.583 315.459 330.275 315.518 327.028 315.094C318.045 313.92 315.543 311.251 315.355 302.276C315.245 297.068 315.403 291.854 315.366 286.644C315.339 282.844 317.224 281.27 320.911 281.276C341.373 281.314 361.835 281.33 382.297 281.262C386.335 281.249 387.931 283.041 387.892 287.014C387.788 297.593 387.856 308.173 387.856 318.754Z" fill="#444343"/>
<path d="M349.702 389C342.886 389.041 337.398 383.595 337.37 376.765C337.342 369.808 342.596 364.521 349.573 364.487C356.485 364.453 361.922 369.781 361.977 376.642C362.031 383.374 356.484 388.959 349.702 389Z" fill="#444343"/>
<path d="M359.969 195.569C359.932 195.626 359.914 195.654 359.914 195.654C349.052 209.659 334.94 221.457 318.562 230.146C301.211 238.513 280.811 241.545 261.542 241.915C271.271 237.727 278.09 227.976 278.09 216.624C278.09 202.714 267.851 191.219 254.562 189.381C290.34 188.102 319.091 162.129 320.49 129.807C320.527 128.992 320.546 128.167 320.546 127.334C320.546 125.609 320.471 123.903 320.309 122.226C320.3 119.327 320.347 116.048 320.546 113.29C321.018 106.582 330.265 101.882 330.265 101.882C330.265 101.882 359.648 101.882 367.544 101.882C375.761 103.151 378.283 112.021 378.283 112.021C382.893 158.831 361.197 193.636 359.969 195.569Z" fill="#26479A"/>
<path d="M187.036 51.6353C187.036 69.1068 172.918 83.2703 155.503 83.2703C138.089 83.2703 123.971 69.1068 123.971 51.6353C123.971 34.1639 138.089 20.0004 155.503 20.0004C172.918 20.0004 187.036 34.1639 187.036 51.6353Z" fill="#FAD506"/>
<path d="M378.926 51.6353C378.926 69.1068 364.808 83.2703 347.393 83.2703C329.978 83.2703 315.861 69.1068 315.861 51.6353C315.861 34.1639 329.978 20.0004 347.393 20.0004C364.808 20.0004 378.926 34.1639 378.926 51.6353Z" fill="#26479A"/>
<path d="M278.09 216.624C278.09 227.976 271.271 237.727 261.542 241.915C253.627 242.076 245.901 241.782 238.647 241.223C212.825 239.243 193.056 233.946 192.3 233.747C192.291 233.737 192.282 233.737 192.282 233.737C165.996 221.722 144.763 201.993 132.248 177.84H132.239C132.126 177.631 132.012 177.413 131.899 177.195C122.445 158.604 124.078 112.172 124.078 112.172C124.277 104.582 133.467 101.711 133.467 101.711H170.652C177.85 102.516 181.448 111.139 181.448 111.139L183.025 122.624C181.807 128.272 182.978 135.104 184.688 140.969C184.688 140.979 184.698 140.988 184.698 140.998C185.83 145.565 187.522 149.943 189.712 154.065C189.731 154.112 189.76 154.15 189.778 154.197C189.807 154.245 189.826 154.292 189.845 154.321C189.854 154.349 189.863 154.359 189.863 154.359C200.414 174.059 222.137 187.95 247.62 189.324C248.999 189.4 250.387 189.438 251.786 189.438C252.721 189.438 253.647 189.419 254.562 189.381C267.851 191.219 278.09 202.714 278.09 216.624Z" fill="#FAD506"/>
</g>
<defs>
<clipPath id="clip0_92_38686">
<rect width="409" height="369" fill="white" transform="translate(48.5 20)"/>
</clipPath>
</defs>
</svg>
