<svg width="50" height="48" viewBox="0 0 50 48" fill="none" xmlns="http://www.w3.org/2000/svg">
<g filter="url(#filter0_f_20_586)">
<circle cx="23.6294" cy="24.855" r="4.71683" fill="#6B10FF"/>
</g>
<g filter="url(#filter1_f_20_586)">
<circle cx="32.6703" cy="17.5284" r="5.28935" fill="#00A3FF"/>
</g>
<g opacity="0.1">
<path d="M35.2048 16.985C35.2052 16.6272 35.1004 16.2773 34.9038 15.9797C34.7072 15.682 34.4276 15.4499 34.1003 15.3127C33.773 15.1755 33.4127 15.1394 33.065 15.2089C32.7174 15.2784 32.398 15.4505 32.1472 15.7033L30.9148 16.9426L30.2884 16.309C29.9503 15.981 29.4982 15.7999 29.0292 15.8046C28.5603 15.8094 28.1119 15.9995 27.7803 16.3343C27.4486 16.669 27.2603 17.1217 27.2556 17.5951C27.2509 18.0685 27.4303 18.5249 27.7552 18.8662L28.3816 19.4986L27.8656 20.0207L27.238 19.3883C26.8999 19.0603 26.4478 18.8793 25.9788 18.884C25.5099 18.8887 25.0615 19.0789 24.7299 19.4136C24.3982 19.7484 24.2099 20.201 24.2052 20.6744C24.2005 21.1478 24.3799 21.6042 24.7048 21.9456L25.3324 22.5779L24.8104 23.1049L24.184 22.4725C24.0178 22.3046 23.8204 22.1714 23.6031 22.0805C23.3859 21.9896 23.153 21.9428 22.9178 21.9427C22.6827 21.9427 22.4498 21.9894 22.2325 22.0802C22.0152 22.171 21.8177 22.3041 21.6514 22.4719C21.4851 22.6398 21.3531 22.839 21.2631 23.0583C21.173 23.2776 21.1267 23.5127 21.1266 23.7501C21.1265 23.9875 21.1728 24.2226 21.2628 24.442C21.3527 24.6613 21.4846 24.8607 21.6508 25.0286L22.282 25.6645L21.082 26.8759C20.9054 27.0412 20.7636 27.2406 20.665 27.4624C20.5665 27.6842 20.5132 27.9238 20.5085 28.1668C20.5037 28.4099 20.5475 28.6514 20.6373 28.877C20.7271 29.1025 20.861 29.3075 21.0311 29.4796C21.2011 29.6518 21.4038 29.7875 21.6269 29.8788C21.8501 29.9701 22.0892 30.015 22.33 30.0109C22.5708 30.0068 22.8083 29.9537 23.0283 29.8549C23.2482 29.756 23.4462 29.6134 23.6104 29.4356L24.8104 28.2242L25.4368 28.8578C25.775 29.1858 26.2271 29.3668 26.696 29.3621C27.165 29.3574 27.6134 29.1672 27.945 28.8325C28.2766 28.4977 28.465 28.0451 28.4696 27.5717C28.4743 27.0983 28.2949 26.6419 27.97 26.3005L27.3484 25.6645L27.8656 25.1424L28.492 25.7748C28.6583 25.9427 28.8557 26.0759 29.0729 26.1668C29.2902 26.2577 29.523 26.3045 29.7582 26.3046C29.9934 26.3046 30.2262 26.2579 30.4435 26.1671C30.6608 26.0763 30.8583 25.9432 31.0246 25.7754C31.191 25.6076 31.3229 25.4083 31.413 25.189C31.503 24.9697 31.5494 24.7346 31.5494 24.4972C31.5495 24.2598 31.5032 24.0247 31.4133 23.8053C31.3233 23.586 31.1915 23.3867 31.0252 23.2188L30.3976 22.5852L30.9148 22.0631L31.5412 22.6954C31.7075 22.8633 31.9049 22.9966 32.1221 23.0875C32.3394 23.1784 32.5722 23.2252 32.8074 23.2252C33.0426 23.2253 33.2754 23.1786 33.4927 23.0878C33.71 22.997 33.9075 22.8639 34.0738 22.696C34.2402 22.5282 34.3721 22.3289 34.4622 22.1096C34.5522 21.8903 34.5986 21.6553 34.5986 21.4178C34.5987 21.1804 34.5524 20.9454 34.4625 20.726C34.3725 20.5066 34.2407 20.3073 34.0744 20.1394L33.4504 19.5034L34.6792 18.2642C34.8464 18.0967 34.9789 17.8974 35.0691 17.6778C35.1594 17.4582 35.2055 17.2227 35.2048 16.985Z" fill="#1DC5FF"/>
<path d="M42.6234 9.00792C42.5268 8.61233 42.3013 8.26099 41.9831 8.01032C41.665 7.75966 41.2726 7.62421 40.869 7.62572L40.6974 7.63299L40.5846 7.65237C40.4 7.55645 40.2002 7.49412 39.9942 7.46824C38.8978 7.33711 37.7946 7.27198 36.6906 7.27321C31.9794 7.27321 25.2174 8.42524 19.7634 13.9152C10.6506 23.0927 13.4502 35.4077 13.4802 35.5288C13.5719 35.9254 13.7942 36.2789 14.1107 36.5315C14.4272 36.7841 14.8191 36.9208 15.2226 36.9195H15.2658L15.4122 36.911L15.5142 36.894C15.6969 36.9875 15.8942 37.0486 16.0974 37.0745C17.1989 37.2072 18.3073 37.2732 19.4166 37.272C24.1278 37.272 30.8874 36.12 36.3426 30.63C45.4506 21.4646 42.6534 9.13269 42.6234 9.00792ZM39.3222 11.0334C39.4504 12.1671 39.4934 13.3091 39.4506 14.4495L35.9358 10.9001C36.1934 10.8904 36.445 10.8856 36.6906 10.8856C37.5698 10.8872 38.4482 10.9365 39.3222 11.0334ZM19.4166 33.6596C18.5375 33.6587 17.659 33.6105 16.785 33.5155C16.6591 32.4018 16.6149 31.2802 16.653 30.1599L20.1102 33.65C19.8738 33.6524 19.6422 33.6596 19.4166 33.6596ZM33.8166 28.0727C30.975 30.9328 27.6798 32.3925 24.6234 33.0891L17.2506 25.6427C17.9598 22.6578 19.4226 19.3653 22.2906 16.4761C25.1166 13.6318 28.3914 12.1721 31.4334 11.4707L38.8506 18.9534C38.0438 22.4063 36.2983 25.5633 33.8106 28.0691L33.8166 28.0727Z" fill="#1DC5FF"/>
</g>
<g opacity="0.2">
<path d="M34.3228 16.0643C34.0816 15.8208 33.7544 15.684 33.4132 15.684C33.072 15.684 32.7449 15.8208 32.5036 16.0643L30.9148 17.6694L29.932 16.6773C29.6903 16.4336 29.3626 16.2968 29.021 16.297C28.6793 16.2972 28.3518 16.4345 28.1104 16.6785C27.869 16.9225 27.7335 17.2533 27.7337 17.5982C27.734 17.943 27.8699 18.2737 28.1116 18.5173L29.0956 19.5095L27.8656 20.7463L26.8816 19.753C26.7625 19.631 26.6206 19.534 26.4642 19.4676C26.3077 19.4013 26.1398 19.3668 25.9701 19.3662C25.8005 19.3656 25.6323 19.3989 25.4755 19.4642C25.3186 19.5294 25.176 19.6254 25.056 19.7465C24.936 19.8677 24.841 20.0116 24.7763 20.1699C24.7117 20.3283 24.6787 20.498 24.6793 20.6693C24.6799 20.8406 24.714 21.0101 24.7798 21.168C24.8455 21.3259 24.9416 21.4691 25.0624 21.5894L26.0464 22.5828L24.8104 23.8256L23.8264 22.8323C23.7073 22.7103 23.5654 22.6134 23.409 22.547C23.2525 22.4806 23.0846 22.4461 22.9149 22.4455C22.7453 22.4449 22.5771 22.4782 22.4203 22.5435C22.2634 22.6088 22.1208 22.7048 22.0008 22.8259C21.8808 22.947 21.7858 23.0909 21.7211 23.2493C21.6565 23.4076 21.6235 23.5774 21.6241 23.7487C21.6247 23.92 21.6588 24.0894 21.7246 24.2474C21.7903 24.4053 21.8864 24.5485 22.0072 24.6688L22.9912 25.6621L21.4312 27.2369C21.1898 27.4804 21.0541 27.8108 21.054 28.1553C21.054 28.3259 21.0872 28.4948 21.1518 28.6525C21.2164 28.8101 21.3112 28.9533 21.4306 29.074C21.5501 29.1946 21.6919 29.2904 21.848 29.3557C22.0041 29.421 22.1714 29.4547 22.3404 29.4548C22.6817 29.4549 23.009 29.3181 23.2504 29.0746L24.8104 27.4998L25.7944 28.4919C25.9136 28.6139 26.0554 28.7108 26.2119 28.7772C26.3683 28.8436 26.5362 28.8781 26.7059 28.8787C26.8756 28.8793 27.0437 28.846 27.2006 28.7807C27.3575 28.7154 27.5 28.6195 27.62 28.4983C27.74 28.3772 27.835 28.2333 27.8997 28.075C27.9644 27.9166 27.9973 27.7469 27.9968 27.5756C27.9962 27.4043 27.962 27.2348 27.8962 27.0769C27.8305 26.9189 27.7344 26.7757 27.6136 26.6554L26.6344 25.6645L27.8656 24.4217L28.8484 25.415C29.0896 25.6587 29.4169 25.7956 29.7582 25.7958C30.0995 25.7959 30.4268 25.6591 30.6682 25.4156C30.9096 25.1721 31.0453 24.8417 31.0454 24.4972C31.0455 24.1527 30.9101 23.8222 30.6688 23.5785L29.6848 22.5852L30.9148 21.3423L31.8988 22.3356C32.018 22.4576 32.1598 22.5546 32.3163 22.621C32.4727 22.6873 32.6406 22.7218 32.8103 22.7224C32.98 22.723 33.1481 22.6897 33.305 22.6244C33.4619 22.5592 33.6044 22.4632 33.7244 22.3421C33.8444 22.2209 33.9394 22.0771 34.0041 21.9187C34.0688 21.7603 34.1017 21.5906 34.1012 21.4193C34.1006 21.248 34.0664 21.0785 34.0006 20.9206C33.9349 20.7627 33.8388 20.6195 33.718 20.4992L32.734 19.5058L34.3204 17.9056C34.4402 17.785 34.5353 17.6417 34.6001 17.4839C34.665 17.3261 34.6984 17.157 34.6984 16.9862C34.6984 16.8153 34.665 16.6462 34.6001 16.4884C34.5353 16.3307 34.4402 16.1873 34.3204 16.0667L34.3228 16.0643Z" fill="#1DC5FF"/>
<path d="M42.1336 9.12787C42.0638 8.84313 41.9011 8.5904 41.6716 8.41042C41.4422 8.23044 41.1594 8.13368 40.8688 8.13574H40.7488L40.6408 8.1527L40.5844 8.16482C40.5568 8.17208 40.5316 8.1842 40.5052 8.19268C40.3336 8.07538 40.1364 8.00181 39.9304 7.97826C38.8552 7.84923 37.7732 7.78491 36.6904 7.78565C32.074 7.78565 25.4512 8.91224 20.1196 14.2799C11.1964 23.2587 13.942 35.2926 13.9708 35.4113C14.037 35.696 14.1967 35.9497 14.424 36.1309C14.6513 36.3122 14.9327 36.4104 15.2224 36.4095H15.2512H15.358L15.4624 36.3926L15.5248 36.3792C15.5488 36.3732 15.5704 36.3623 15.5944 36.355C15.7628 36.4704 15.9563 36.5431 16.1584 36.567C17.2395 36.6982 18.3275 36.7633 19.4164 36.762C24.0316 36.762 30.6532 35.6354 35.986 30.2678C44.896 21.3035 42.1624 9.25022 42.1336 9.12787ZM39.67 10.5573H39.6904H39.7756C39.9988 12.2332 40.0391 13.9288 39.8956 15.6136L34.7788 10.4519C35.4472 10.401 36.0868 10.3792 36.6892 10.3792C37.6854 10.3789 38.6808 10.4383 39.67 10.5573ZM19.4164 34.166C18.4182 34.166 17.4208 34.1062 16.4296 33.9867H16.4104H16.33C16.108 32.3303 16.0649 30.6544 16.2016 28.9886L21.2704 34.097C20.6224 34.1442 20.0008 34.166 19.4164 34.166ZM34.1704 28.4289C31.1644 31.4574 27.6688 32.9534 24.46 33.6379L16.7236 25.8341C16.7128 25.822 16.6984 25.8147 16.6876 25.8038C17.3896 22.6712 18.892 19.18 21.9364 16.1127C24.9304 13.1049 28.4008 11.6124 31.5964 10.9122L39.4072 18.7984C38.7004 21.9092 37.1968 25.3823 34.1704 28.4289Z" fill="#1DC5FF"/>
</g>
<g opacity="0.3">
<path d="M33.4133 16.1043C33.2991 16.1037 33.186 16.1261 33.0805 16.1702C32.975 16.2143 32.8792 16.2792 32.7989 16.3611L30.9149 18.2617L29.6369 16.9716C29.4708 16.8232 29.2548 16.7444 29.0331 16.7514C28.8114 16.7584 28.6007 16.8505 28.4441 17.0091C28.2875 17.1677 28.1968 17.3806 28.1905 17.6045C28.1843 17.8283 28.263 18.0461 28.4105 18.2133L29.6885 19.5034L27.8693 21.3411L26.5865 20.051C26.422 19.8929 26.2029 19.8059 25.9759 19.8087C25.7488 19.8115 25.5319 19.9038 25.3713 20.0659C25.2107 20.228 25.1193 20.447 25.1165 20.6762C25.1138 20.9054 25.1999 21.1266 25.3565 21.2926L26.6357 22.5828L24.8105 24.4204L23.5373 23.1291C23.4573 23.0443 23.3612 22.9765 23.2549 22.9297C23.1485 22.8829 23.0339 22.858 22.9179 22.8566C22.8019 22.8552 22.6867 22.8772 22.5792 22.9213C22.4718 22.9655 22.3741 23.0309 22.2921 23.1138C22.21 23.1966 22.1452 23.2952 22.1015 23.4036C22.0577 23.5121 22.0359 23.6284 22.0373 23.7455C22.0388 23.8626 22.0634 23.9783 22.1097 24.0857C22.1561 24.193 22.2232 24.29 22.3073 24.3708L23.5853 25.6645L21.7301 27.5349C21.646 27.6156 21.5787 27.7125 21.5323 27.8198C21.4858 27.9271 21.4611 28.0428 21.4595 28.1599C21.458 28.277 21.4797 28.3933 21.5234 28.5018C21.567 28.6103 21.6317 28.709 21.7137 28.7919C21.7957 28.8748 21.8932 28.9403 22.0007 28.9846C22.1081 29.0288 22.2232 29.051 22.3392 29.0497C22.4552 29.0484 22.5698 29.0236 22.6763 28.9769C22.7827 28.9302 22.8788 28.8625 22.9589 28.7778L24.8105 26.9038L26.0885 28.1939C26.1685 28.2787 26.2645 28.3465 26.3709 28.3933C26.4773 28.4401 26.5918 28.465 26.7079 28.4664C26.8239 28.4678 26.939 28.4458 27.0465 28.4016C27.154 28.3575 27.2516 28.2921 27.3337 28.2092C27.4157 28.1264 27.4805 28.0278 27.5243 27.9193C27.568 27.8109 27.5898 27.6946 27.5884 27.5775C27.587 27.4604 27.5624 27.3447 27.516 27.2373C27.4697 27.1299 27.4025 27.033 27.3185 26.9522L26.0453 25.6645L27.8657 23.8268L29.1437 25.117C29.3081 25.2751 29.5272 25.362 29.7543 25.3592C29.9813 25.3564 30.1983 25.2641 30.3589 25.102C30.5194 24.9399 30.6108 24.7209 30.6136 24.4917C30.6164 24.2625 30.5303 24.0413 30.3737 23.8753L29.0957 22.5852L30.9149 20.7475L32.1941 22.0388C32.3585 22.1969 32.5776 22.2838 32.8047 22.2811C33.0317 22.2783 33.2487 22.186 33.4093 22.0239C33.5698 21.8618 33.6612 21.6428 33.664 21.4136C33.6668 21.1844 33.5807 20.9632 33.4241 20.7972L32.1449 19.5058L34.0265 17.604C34.1488 17.4815 34.2322 17.3251 34.2663 17.1547C34.3003 16.9842 34.2834 16.8074 34.2177 16.6467C34.152 16.4859 34.0404 16.3486 33.8972 16.252C33.754 16.1554 33.5855 16.104 33.4133 16.1043Z" fill="#1DC5FF"/>
<path d="M41.7305 9.22717C41.6829 9.03402 41.5723 8.86271 41.4164 8.74092C41.2604 8.61914 41.0684 8.55401 40.8713 8.55606H40.7921L40.7309 8.56575L40.6829 8.57665C40.5947 8.59952 40.5105 8.63588 40.4333 8.68446C40.2936 8.52065 40.0985 8.41526 39.8861 8.38889C38.8255 8.26232 37.7584 8.20002 36.6905 8.20233C32.1521 8.20233 25.6505 9.30833 20.4137 14.5742C11.6537 23.3895 14.3477 35.1969 14.3765 35.3144C14.4212 35.5068 14.5292 35.6783 14.6828 35.8008C14.8365 35.9233 15.0267 35.9897 15.2225 35.9891H15.2393H15.3149L15.3749 35.9806L15.4265 35.9697C15.5111 35.9471 15.592 35.912 15.6665 35.8656C15.8062 36.0252 15.9984 36.1285 16.2077 36.1563C17.2725 36.285 18.344 36.3489 19.4165 36.3477C23.9537 36.3477 30.4565 35.2417 35.6921 29.9758C44.4401 21.1654 41.7569 9.34588 41.7305 9.22717ZM39.7217 10.1393H39.7817C39.8986 10.1389 40.0142 10.1141 40.1213 10.0667C40.4597 12.2106 40.4964 14.392 40.2305 16.5464L33.8597 10.1139C35.8082 9.8965 37.7749 9.90422 39.7217 10.1369V10.1393ZM19.4165 34.5863C18.4014 34.5867 17.3872 34.526 16.3793 34.4046H16.3157C16.2024 34.4049 16.0903 34.4275 15.9857 34.4713C15.6535 32.3467 15.616 30.1859 15.8741 28.0509L22.1933 34.4349C21.271 34.5357 20.3441 34.5863 19.4165 34.5863ZM34.4633 28.7269C31.3169 31.8946 27.6497 33.4246 24.3125 34.1042C24.2921 34.0762 24.2701 34.0495 24.2465 34.0243L16.4285 26.1309C16.3653 26.0687 16.2933 26.0164 16.2149 25.9758C16.9049 22.716 18.4397 19.0406 21.6425 15.8171C24.7733 12.6675 28.4189 11.1351 31.7441 10.4507C31.7669 10.4797 31.7885 10.51 31.8149 10.5379L39.7193 18.5173C39.7672 18.5637 39.8204 18.6044 39.8777 18.6384C39.1805 21.8825 37.6505 25.5252 34.4633 28.7269Z" fill="#1DC5FF"/>
</g>
<g opacity="0.65">
<path d="M33.4132 16.436C33.3421 16.4356 33.2716 16.4495 33.2058 16.477C33.1401 16.5045 33.0804 16.5449 33.0304 16.5959L30.9148 18.7316L29.404 17.2065C29.3025 17.1043 29.1651 17.047 29.0218 17.047C28.8785 17.047 28.7411 17.1043 28.6396 17.2065C28.5891 17.2572 28.5491 17.3176 28.5218 17.384C28.4944 17.4504 28.4804 17.5216 28.4804 17.5935C28.4804 17.6654 28.4944 17.7367 28.5218 17.8031C28.5491 17.8695 28.5891 17.9298 28.6396 17.9806L30.1504 19.5045L27.8704 21.8061L26.3596 20.281C26.3094 20.2302 26.2497 20.1899 26.184 20.1624C26.1183 20.135 26.0479 20.1209 25.9768 20.1211C25.8697 20.121 25.765 20.1531 25.676 20.2131C25.587 20.2731 25.5176 20.3585 25.4766 20.4583C25.4356 20.5582 25.4249 20.6681 25.4458 20.7741C25.4667 20.8801 25.5183 20.9774 25.594 21.0539L27.1048 22.579L24.8848 24.8201C24.8633 24.8422 24.8436 24.8661 24.826 24.8915L23.3044 23.3628C23.2029 23.2603 23.0652 23.2027 22.9216 23.2027C22.778 23.2027 22.6403 23.2603 22.5388 23.3628C22.4373 23.4652 22.3802 23.6042 22.3802 23.7492C22.3802 23.8941 22.4373 24.0331 22.5388 24.1356L24.0496 25.6644L21.9616 27.7722C21.8601 27.8747 21.803 28.0137 21.803 28.1586C21.803 28.3036 21.8601 28.4426 21.9616 28.5451C22.0631 28.6476 22.2008 28.7051 22.3444 28.7051C22.488 28.7051 22.6257 28.6476 22.7272 28.5451L24.8104 26.4348L26.326 27.966C26.4275 28.0685 26.5652 28.1261 26.7088 28.1261C26.8524 28.1261 26.9901 28.0685 27.0916 27.966C27.1931 27.8635 27.2502 27.7245 27.2502 27.5796C27.2502 27.4347 27.1931 27.2957 27.0916 27.1932L25.5748 25.6608C25.5998 25.6432 25.6234 25.6237 25.6456 25.6026L27.8656 23.3615L29.3764 24.8867C29.4779 24.9892 29.6156 25.0467 29.7592 25.0467C29.9028 25.0467 30.0405 24.9892 30.142 24.8867C30.2435 24.7842 30.3006 24.6452 30.3006 24.5002C30.3006 24.3553 30.2435 24.2163 30.142 24.1138L28.6312 22.5887L30.9112 20.287L32.422 21.8122C32.5235 21.9147 32.6612 21.9722 32.8048 21.9722C32.9484 21.9722 33.0861 21.9147 33.1876 21.8122C33.2891 21.7097 33.3462 21.5707 33.3462 21.4257C33.3462 21.2808 33.2891 21.1418 33.1876 21.0393L31.6768 19.5142L33.7912 17.3797C33.8669 17.3034 33.9184 17.2061 33.9394 17.1002C33.9603 16.9943 33.9497 16.8845 33.9088 16.7847C33.868 16.6849 33.7988 16.5996 33.7099 16.5395C33.6211 16.4793 33.5166 16.4471 33.4096 16.4469L33.4132 16.436Z" fill="#1DC5FF"/>
<path d="M41.4088 9.31072C41.3795 9.18943 41.3099 9.08193 41.2117 9.00611C41.1134 8.93029 40.9924 8.89072 40.8688 8.894H40.8232L40.7776 8.90127H40.7572C40.6177 8.93547 40.4973 9.02394 40.4223 9.14739C40.3472 9.27084 40.3235 9.41925 40.3564 9.56026C40.3708 9.62083 41.1136 12.9291 40.468 17.2586L33.148 9.86917C34.3207 9.70667 35.5031 9.62572 36.6868 9.62689C37.7047 9.62601 38.7217 9.68668 39.7324 9.8086H39.7768C39.9175 9.81298 40.0544 9.76182 40.1584 9.66597C40.2624 9.57012 40.3253 9.43713 40.3337 9.29524C40.3421 9.15335 40.2955 9.01373 40.2036 8.90602C40.1117 8.7983 39.9818 8.73098 39.8416 8.71835C38.7957 8.59392 37.7435 8.53243 36.6904 8.53422C32.2144 8.53422 25.7968 9.62447 20.6452 14.8092C12.0172 23.4936 14.668 35.1217 14.6956 35.2344C14.7235 35.3541 14.7908 35.4607 14.8865 35.5368C14.9822 35.6129 15.1006 35.6541 15.2224 35.6535H15.2296H15.28L15.3268 35.6463H15.3496C15.4884 35.6131 15.6087 35.5261 15.6844 35.404C15.7217 35.3431 15.7466 35.2753 15.7575 35.2046C15.7684 35.1338 15.7652 35.0616 15.748 34.9921C15.7348 34.9328 15.0016 31.6511 15.628 27.3495L22.9024 34.6808C21.7492 34.8414 20.5865 34.9224 19.4224 34.9231C18.4017 34.9236 17.3819 34.8625 16.3684 34.7402H16.3216C16.1801 34.7341 16.042 34.7842 15.9367 34.8798C15.8315 34.9754 15.7675 35.1088 15.7585 35.2515C15.7496 35.3941 15.7964 35.5346 15.8888 35.6428C15.9813 35.7511 16.1121 35.8184 16.2532 35.8304C17.3049 35.9577 18.3632 36.0208 19.4224 36.0194C23.8972 36.0194 30.3136 34.9291 35.4652 29.7444C44.0752 21.0612 41.4376 9.42216 41.4088 9.31072ZM34.6948 28.9618C31.42 32.258 27.5956 33.8074 24.1432 34.4749C24.1178 34.3932 24.0733 34.3188 24.0136 34.258L16.1956 26.3646C16.098 26.265 15.9659 26.2077 15.8272 26.2047C16.4956 22.8213 18.052 18.963 21.4096 15.5833C24.67 12.3016 28.4752 10.7498 31.9144 10.0787C31.9403 10.1629 31.9855 10.2397 32.0464 10.3028L39.952 18.2835C40.0359 18.3686 40.1458 18.4228 40.264 18.4373C39.5848 21.7941 38.0236 25.6111 34.6948 28.9618Z" fill="#1DC5FF"/>
</g>
<path d="M33.6148 17.1847C33.6438 17.1586 33.6672 17.1267 33.6835 17.091C33.6999 17.0554 33.7089 17.0167 33.7099 16.9774C33.7109 16.9382 33.704 16.8991 33.6895 16.8626C33.6751 16.8262 33.6533 16.7931 33.6257 16.7654C33.5981 16.7377 33.5652 16.7159 33.529 16.7016C33.4928 16.6872 33.4541 16.6804 33.4152 16.6817C33.3763 16.6829 33.338 16.6922 33.3028 16.709C33.2676 16.7257 33.2361 16.7495 33.2104 16.7789L31.0504 18.9594C30.9983 19.0118 30.9686 19.0827 30.9676 19.1569L29.2228 17.3895C29.1828 17.3497 29.1321 17.3227 29.0769 17.3119C29.0218 17.3011 28.9648 17.3069 28.9129 17.3286C28.8611 17.3503 28.8167 17.387 28.7854 17.434C28.754 17.481 28.7371 17.5363 28.7368 17.593C28.7368 17.6308 28.7442 17.6683 28.7586 17.7032C28.7731 17.7381 28.7942 17.7698 28.8208 17.7965L30.5272 19.5191C30.4936 19.5332 30.463 19.5538 30.4372 19.5797L27.958 22.0824C27.9257 22.1163 27.9026 22.158 27.8908 22.2035L26.1736 20.4676C26.1477 20.4382 26.1162 20.4145 26.0809 20.3979C26.0457 20.3813 26.0074 20.3721 25.9685 20.3709C25.9296 20.3698 25.8909 20.3767 25.8547 20.3912C25.8185 20.4057 25.7857 20.4275 25.7581 20.4553C25.7306 20.483 25.709 20.5162 25.6947 20.5527C25.6803 20.5892 25.6735 20.6283 25.6746 20.6676C25.6758 20.7069 25.6848 20.7455 25.7013 20.7811C25.7178 20.8167 25.7413 20.8485 25.7704 20.8746L27.4876 22.6081C27.4425 22.6202 27.4013 22.6435 27.3676 22.676L25.0588 25.0067C25.0297 25.0328 25.0062 25.0646 24.9897 25.1002C24.9732 25.1358 24.9642 25.1744 24.963 25.2137C24.9619 25.253 24.9687 25.2921 24.9831 25.3286C24.9974 25.3651 25.019 25.3983 25.0465 25.426C25.0741 25.4538 25.1069 25.4756 25.1431 25.4901C25.1793 25.5046 25.218 25.5115 25.2569 25.5104C25.2958 25.5092 25.3341 25.5 25.3693 25.4834C25.4046 25.4668 25.4361 25.4431 25.462 25.4137L27.7708 23.083C27.8021 23.0483 27.825 23.0069 27.838 22.9619L29.5576 24.6953C29.6111 24.7488 29.6833 24.7788 29.7586 24.7788C29.8339 24.7788 29.9061 24.7488 29.9596 24.6953C29.9861 24.6687 30.0072 24.637 30.0216 24.602C30.036 24.5671 30.0434 24.5297 30.0434 24.4918C30.0434 24.454 30.036 24.4166 30.0216 24.3816C30.0072 24.3467 29.9861 24.315 29.9596 24.2883L28.2424 22.5572C28.287 22.5443 28.3281 22.5211 28.3624 22.4894L30.8416 19.9867C30.8672 19.9606 30.8876 19.9297 30.9016 19.8958L32.6104 21.6184C32.6368 21.6452 32.6682 21.6665 32.7028 21.681C32.7374 21.6955 32.7745 21.703 32.812 21.703C32.8494 21.703 32.8865 21.6955 32.9211 21.681C32.9557 21.6665 32.9871 21.6452 33.0136 21.6184C33.0403 21.5919 33.0615 21.5602 33.076 21.5252C33.0904 21.4903 33.0977 21.4528 33.0976 21.4149C33.0975 21.3771 33.0901 21.3396 33.0757 21.3047C33.0613 21.2698 33.0402 21.2381 33.0136 21.2114L31.2652 19.4476C31.3386 19.4461 31.4086 19.4161 31.4608 19.364L33.6148 17.1847Z" fill="#00F9FF"/>
<path d="M22.1428 27.9527C22.1163 27.9794 22.0952 28.0111 22.0808 28.046C22.0664 28.081 22.059 28.1184 22.059 28.1562C22.059 28.1941 22.0664 28.2315 22.0808 28.2664C22.0952 28.3014 22.1163 28.3331 22.1428 28.3598C22.1691 28.3867 22.2003 28.4081 22.2349 28.4227C22.2694 28.4372 22.3064 28.4448 22.3438 28.4448C22.3812 28.4448 22.4183 28.4372 22.4528 28.4227C22.4873 28.4081 22.5186 28.3867 22.5448 28.3598L24.748 26.1357C24.7709 26.1128 24.7893 26.0856 24.802 26.0557L26.5072 27.7759C26.5336 27.8027 26.565 27.824 26.5996 27.8386C26.6342 27.8531 26.6713 27.8606 26.7088 27.8607C26.7843 27.8605 26.8567 27.8305 26.9104 27.7771C26.9369 27.7504 26.9578 27.7186 26.972 27.6837C26.9862 27.6488 26.9934 27.6113 26.9932 27.5736C26.9936 27.5358 26.9865 27.4983 26.9723 27.4633C26.958 27.4284 26.937 27.3967 26.9104 27.3701L23.1232 23.5469C23.083 23.5091 23.0328 23.4839 22.9787 23.4742C22.9245 23.4645 22.8688 23.4707 22.8181 23.4922C22.7675 23.5137 22.724 23.5495 22.693 23.5953C22.6619 23.6411 22.6447 23.695 22.6432 23.7504C22.6433 23.8266 22.6731 23.8997 22.726 23.9539L24.4312 25.6753C24.4019 25.6882 24.3751 25.7062 24.352 25.7286L22.1428 27.9527Z" fill="#00F9FF"/>
<path d="M21.2296 15.3992C24.6364 11.9758 28.6288 10.401 32.1964 9.76138C32.164 9.80655 32.146 9.86065 32.1448 9.91644C32.1446 9.9542 32.1518 9.99163 32.166 10.0266C32.1803 10.0615 32.2012 10.0932 32.2276 10.12L40.1332 18.1006C40.1877 18.1494 40.2585 18.1754 40.3313 18.1732C40.4041 18.1711 40.4734 18.1409 40.5249 18.0889C40.5764 18.0369 40.6063 17.967 40.6084 17.8935C40.6106 17.8201 40.5848 17.7485 40.5364 17.6935L32.632 9.71414C32.6224 9.70445 32.6104 9.70081 32.6008 9.69233C34.9656 9.31545 37.3705 9.26857 39.748 9.55302H39.7792C39.8515 9.5522 39.9208 9.52375 39.9731 9.47341C40.0254 9.42306 40.0568 9.35457 40.0611 9.28173C40.0654 9.2089 40.0421 9.13714 39.996 9.08093C39.95 9.02471 39.8845 8.98823 39.8128 8.97883C38.7774 8.855 37.7355 8.79352 36.6928 8.79469C32.2648 8.79469 25.9192 9.86919 20.8288 14.9934C12.3016 23.576 14.92 35.0648 14.9488 35.1787C14.9632 35.2419 14.9985 35.2983 15.0489 35.3386C15.0993 35.3789 15.1617 35.4007 15.226 35.4004H15.2692L15.292 35.3943C15.3654 35.3765 15.4289 35.33 15.4685 35.2651C15.508 35.2002 15.5205 35.1221 15.5032 35.0479C15.4732 34.9316 12.9448 23.7384 21.2296 15.3992Z" fill="#00F9FF"/>
<path d="M41.1604 9.36647C41.1456 9.30378 41.1104 9.24795 41.0603 9.20796C41.0102 9.16796 40.9483 9.14614 40.8844 9.146H40.84L40.816 9.15205C40.7797 9.16087 40.7455 9.17683 40.7152 9.19901C40.685 9.2212 40.6594 9.24918 40.6399 9.28135C40.6204 9.31353 40.6074 9.34927 40.6016 9.38653C40.5958 9.42379 40.5973 9.46184 40.606 9.49851C40.6324 9.61117 43.1728 20.7923 34.876 29.1424C31.456 32.5851 27.448 34.149 23.872 34.7874C23.9068 34.7337 23.9218 34.6695 23.9146 34.6058C23.9074 34.5421 23.8783 34.4829 23.8324 34.4385L16.0132 26.5464C15.987 26.5193 15.9556 26.4979 15.9209 26.4834C15.8863 26.4688 15.8492 26.4614 15.8116 26.4616C15.7362 26.4617 15.6638 26.4917 15.61 26.5451C15.5835 26.5718 15.5624 26.6035 15.548 26.6385C15.5336 26.6734 15.5262 26.7108 15.5262 26.7487C15.5262 26.7865 15.5336 26.8239 15.548 26.8589C15.5624 26.8938 15.5835 26.9255 15.61 26.9522L23.4292 34.8468C23.4358 34.852 23.4426 34.8569 23.4496 34.8613C22.1155 35.0726 20.7669 35.1779 19.4164 35.1763C18.3905 35.1763 17.3655 35.1148 16.3468 34.9922H16.3156C16.2784 34.9897 16.241 34.9947 16.2056 35.0068C16.1703 35.0189 16.1376 35.0379 16.1095 35.0628C16.0814 35.0876 16.0585 35.1178 16.042 35.1517C16.0254 35.1855 16.0157 35.2222 16.0132 35.2599C16.0108 35.2975 16.0157 35.3352 16.0277 35.3709C16.0397 35.4066 16.0586 35.4396 16.0832 35.4679C16.1078 35.4963 16.1378 35.5195 16.1713 35.5361C16.2048 35.5528 16.2412 35.5627 16.2784 35.5651C17.3198 35.6904 18.3677 35.7527 19.4164 35.7517C23.8432 35.7517 30.1888 34.676 35.2792 29.553C43.7944 20.98 41.188 9.48155 41.1604 9.36647Z" fill="#00F9FF"/>
<path d="M23.6308 34.7304C23.6196 34.7304 23.6085 34.7282 23.5982 34.7238C23.5879 34.7195 23.5786 34.7131 23.5708 34.705L15.7516 26.8092C15.7434 26.8014 15.737 26.792 15.7325 26.7816C15.7281 26.7712 15.7258 26.7599 15.7258 26.7486C15.7258 26.7373 15.7281 26.7261 15.7325 26.7157C15.737 26.7053 15.7434 26.6959 15.7516 26.688C15.7594 26.68 15.7687 26.6736 15.779 26.6692C15.7893 26.6648 15.8004 26.6626 15.8116 26.6626C15.8227 26.6626 15.8338 26.6648 15.8441 26.6692C15.8544 26.6736 15.8637 26.68 15.8716 26.688L23.6908 34.5827C23.6988 34.5906 23.7051 34.6 23.7094 34.6104C23.7138 34.6208 23.716 34.6319 23.716 34.6432C23.716 34.6545 23.7138 34.6657 23.7094 34.6761C23.7051 34.6865 23.6988 34.6959 23.6908 34.7038C23.6831 34.7121 23.6738 34.7188 23.6635 34.7234C23.6532 34.728 23.642 34.7304 23.6308 34.7304Z" fill="white"/>
<path d="M40.3348 17.9831C40.3236 17.9832 40.3126 17.9809 40.3022 17.9766C40.2919 17.9722 40.2826 17.9658 40.2748 17.9577L32.3704 9.97703C32.3549 9.96078 32.3462 9.93906 32.3462 9.91647C32.3462 9.89387 32.3549 9.87215 32.3704 9.8559C32.3782 9.84784 32.3876 9.84144 32.3979 9.83707C32.4082 9.8327 32.4192 9.83044 32.4304 9.83044C32.4416 9.83044 32.4527 9.8327 32.463 9.83707C32.4733 9.84144 32.4826 9.84784 32.4904 9.8559L40.396 17.8365C40.4116 17.8528 40.4203 17.8745 40.4203 17.8971C40.4203 17.9197 40.4116 17.9414 40.396 17.9577C40.3881 17.9659 40.3785 17.9723 40.368 17.9767C40.3575 17.9811 40.3462 17.9833 40.3348 17.9831Z" fill="white"/>
<path d="M31.2556 19.2441C31.2388 19.244 31.2225 19.2389 31.2085 19.2295C31.1946 19.22 31.1838 19.2066 31.1774 19.191C31.1709 19.1753 31.1693 19.1581 31.1725 19.1415C31.1758 19.1249 31.1838 19.1096 31.1956 19.0975L33.3556 16.917C33.3719 16.9033 33.3928 16.8962 33.414 16.8972C33.4353 16.8982 33.4554 16.9071 33.4704 16.9223C33.4855 16.9375 33.4943 16.9578 33.4953 16.9792C33.4962 17.0007 33.4892 17.0217 33.4756 17.0382L31.3156 19.2187C31.3078 19.2267 31.2985 19.2331 31.2881 19.2375C31.2778 19.2419 31.2668 19.2441 31.2556 19.2441Z" fill="white"/>
<path d="M28.1596 22.3707C28.1373 22.3705 28.1159 22.3619 28.0996 22.3465C28.0916 22.3386 28.0853 22.3292 28.081 22.3188C28.0766 22.3084 28.0744 22.2972 28.0744 22.2859C28.0744 22.2747 28.0766 22.2635 28.081 22.2531C28.0853 22.2427 28.0916 22.2333 28.0996 22.2254L30.5788 19.7287C30.5951 19.7149 30.616 19.7079 30.6372 19.7088C30.6585 19.7098 30.6786 19.7188 30.6936 19.7339C30.7087 19.7491 30.7175 19.7694 30.7185 19.7909C30.7195 19.8123 30.7124 19.8333 30.6988 19.8498L28.2196 22.3526C28.2025 22.3658 28.1811 22.3722 28.1596 22.3707Z" fill="white"/>
<path d="M25.2628 25.3011C25.246 25.301 25.2297 25.2959 25.2157 25.2864C25.2018 25.277 25.191 25.2636 25.1846 25.2479C25.1782 25.2323 25.1765 25.215 25.1797 25.1984C25.183 25.1818 25.191 25.1665 25.2028 25.1545L27.5116 22.8238C27.5279 22.81 27.5488 22.803 27.57 22.8039C27.5913 22.8049 27.6114 22.8138 27.6264 22.829C27.6415 22.8442 27.6503 22.8645 27.6513 22.886C27.6523 22.9074 27.6452 22.9284 27.6316 22.9449L25.3228 25.2756C25.315 25.2837 25.3057 25.2901 25.2954 25.2945C25.285 25.2988 25.274 25.3011 25.2628 25.3011Z" fill="white"/>
<path d="M22.3444 28.2423C22.3332 28.2425 22.3221 28.2404 22.3118 28.236C22.3014 28.2316 22.2921 28.2251 22.2844 28.2169C22.2764 28.209 22.2701 28.1996 22.2658 28.1892C22.2614 28.1788 22.2592 28.1676 22.2592 28.1563C22.2592 28.145 22.2614 28.1339 22.2658 28.1235C22.2701 28.1131 22.2764 28.1036 22.2844 28.0957L24.4864 25.8716C24.5025 25.8559 24.524 25.8472 24.5464 25.8472C24.5688 25.8472 24.5903 25.8559 24.6064 25.8716C24.6144 25.8795 24.6208 25.8889 24.6251 25.8993C24.6294 25.9097 24.6316 25.9209 24.6316 25.9322C24.6316 25.9435 24.6294 25.9546 24.6251 25.965C24.6208 25.9754 24.6144 25.9849 24.6064 25.9928L22.4032 28.2169C22.3957 28.225 22.3866 28.2314 22.3764 28.2358C22.3663 28.2401 22.3554 28.2424 22.3444 28.2423Z" fill="white"/>
<path d="M32.8084 21.501C32.7972 21.501 32.7862 21.4987 32.7759 21.4943C32.7656 21.49 32.7562 21.4836 32.7484 21.4755L28.9624 17.6536C28.9544 17.6457 28.9481 17.6363 28.9438 17.6259C28.9394 17.6155 28.9372 17.6043 28.9372 17.593C28.9372 17.5817 28.9394 17.5706 28.9438 17.5602C28.9481 17.5498 28.9544 17.5403 28.9624 17.5325C28.9701 17.5242 28.9795 17.5177 28.9898 17.5132C29.0001 17.5088 29.0112 17.5065 29.0224 17.5065C29.0336 17.5065 29.0447 17.5088 29.0551 17.5132C29.0654 17.5177 29.0747 17.5242 29.0824 17.5325L32.8696 21.3544C32.8814 21.3664 32.8895 21.3817 32.8927 21.3983C32.896 21.4149 32.8943 21.4321 32.8879 21.4478C32.8815 21.4635 32.8706 21.4768 32.8567 21.4863C32.8428 21.4958 32.8264 21.5009 32.8096 21.501H32.8084Z" fill="white"/>
<path d="M29.7593 24.5802C29.748 24.5805 29.7369 24.5783 29.7266 24.5739C29.7163 24.5695 29.7069 24.563 29.6993 24.5548L25.9121 20.7317C25.9041 20.7238 25.8977 20.7143 25.8934 20.7039C25.8891 20.6935 25.8868 20.6824 25.8868 20.6711C25.8868 20.6598 25.8891 20.6486 25.8934 20.6382C25.8977 20.6278 25.9041 20.6184 25.9121 20.6105C25.9282 20.5948 25.9497 20.5861 25.9721 20.5861C25.9944 20.5861 26.0159 20.5948 26.0321 20.6105L29.8181 24.4337C29.826 24.4416 29.8324 24.451 29.8367 24.4614C29.841 24.4718 29.8433 24.4829 29.8433 24.4942C29.8433 24.5055 29.841 24.5167 29.8367 24.5271C29.8324 24.5375 29.826 24.5469 29.8181 24.5548C29.8105 24.5629 29.8014 24.5693 29.7913 24.5737C29.7812 24.5781 29.7703 24.5803 29.7593 24.5802Z" fill="white"/>
<path d="M26.7088 27.6584C26.6977 27.6584 26.6866 27.6561 26.6763 27.6518C26.666 27.6474 26.6567 27.641 26.6488 27.6329L22.8616 23.811C22.8461 23.7948 22.8374 23.773 22.8374 23.7504C22.8374 23.7279 22.8461 23.7061 22.8616 23.6899C22.8695 23.6818 22.8788 23.6754 22.8891 23.671C22.8994 23.6667 22.9105 23.6644 22.9216 23.6644C22.9328 23.6644 22.9439 23.6667 22.9542 23.671C22.9645 23.6754 22.9738 23.6818 22.9816 23.6899L26.7688 27.513C26.7803 27.5251 26.7879 27.5403 26.791 27.5567C26.794 27.5731 26.7922 27.5901 26.7858 27.6055C26.7795 27.6209 26.7688 27.6341 26.7551 27.6435C26.7415 27.6529 26.7254 27.6581 26.7088 27.6584Z" fill="white"/>
<path d="M15.2224 35.1968C15.2034 35.1968 15.1848 35.1904 15.1698 35.1785C15.1548 35.1667 15.1442 35.1501 15.1396 35.1314C15.112 35.0103 12.5272 23.6317 20.968 15.135C27.568 8.49422 36.328 8.75709 39.7888 9.17865C39.7999 9.18 39.8107 9.18355 39.8204 9.18909C39.8302 9.19463 39.8388 9.20206 39.8457 9.21094C39.8526 9.21983 39.8577 9.23 39.8607 9.24088C39.8637 9.25176 39.8646 9.26314 39.8632 9.27435C39.8619 9.28553 39.8584 9.29632 39.8529 9.30611C39.8474 9.31589 39.84 9.32447 39.8312 9.33135C39.8223 9.33823 39.8122 9.34327 39.8015 9.34617C39.7907 9.34907 39.7795 9.34977 39.7684 9.34825C36.3304 8.92911 27.6316 8.66866 21.0904 15.2562C12.7156 23.6862 15.28 34.9776 15.3064 35.0914C15.3091 35.1023 15.3096 35.1137 15.3079 35.1248C15.3062 35.1359 15.3023 35.1465 15.2965 35.1561C15.2907 35.1657 15.2831 35.174 15.2741 35.1806C15.2651 35.1871 15.2549 35.1918 15.244 35.1944L15.2224 35.1968Z" fill="white"/>
<path d="M19.4164 35.5506C18.3757 35.5514 17.3358 35.4891 16.3024 35.364C16.2914 35.3628 16.2807 35.3594 16.2709 35.354C16.2612 35.3486 16.2526 35.3413 16.2457 35.3325C16.2387 35.3237 16.2336 35.3136 16.2306 35.3028C16.2276 35.292 16.2267 35.2807 16.228 35.2695C16.2313 35.2472 16.243 35.2269 16.2606 35.2129C16.2782 35.1989 16.3005 35.1923 16.3228 35.1944C19.762 35.6148 28.4668 35.8813 35.0176 29.2889C43.3924 20.8589 40.828 9.56633 40.8004 9.45367C40.7961 9.43187 40.8004 9.40924 40.8123 9.39053C40.8242 9.37182 40.8428 9.35848 40.8642 9.35331C40.8856 9.34814 40.9082 9.35154 40.9272 9.3628C40.9461 9.37406 40.9601 9.39229 40.966 9.41369C40.9924 9.52756 43.5784 20.9134 35.1376 29.4101C30.0424 34.5379 23.6584 35.5494 19.4164 35.5506Z" fill="white"/>
<defs>
<filter id="filter0_f_20_586" x="0.912537" y="2.13818" width="45.4337" height="45.4337" filterUnits="userSpaceOnUse" color-interpolation-filters="sRGB">
<feFlood flood-opacity="0" result="BackgroundImageFix"/>
<feBlend mode="normal" in="SourceGraphic" in2="BackgroundImageFix" result="shape"/>
<feGaussianBlur stdDeviation="9" result="effect1_foregroundBlur_20_586"/>
</filter>
<filter id="filter1_f_20_586" x="15.3809" y="0.239014" width="34.5787" height="34.5787" filterUnits="userSpaceOnUse" color-interpolation-filters="sRGB">
<feFlood flood-opacity="0" result="BackgroundImageFix"/>
<feBlend mode="normal" in="SourceGraphic" in2="BackgroundImageFix" result="shape"/>
<feGaussianBlur stdDeviation="6" result="effect1_foregroundBlur_20_586"/>
</filter>
</defs>
</svg>
