<svg width="49" height="50" viewBox="0 0 49 50" fill="none" xmlns="http://www.w3.org/2000/svg">
<g filter="url(#filter0_f_20_635)">
<circle cx="24.6293" cy="24.855" r="6.19244" fill="#6B10FF"/>
</g>
<g filter="url(#filter1_f_20_635)">
<circle cx="27.6703" cy="17.5284" r="5.28935" fill="#00A3FF"/>
</g>
<g filter="url(#filter2_d_20_635)">
<path opacity="0.1" d="M25.1348 8.23827L24.9779 8.23742C23.0197 8.24067 21.0815 8.62986 19.2739 9.38274C17.4663 10.1356 15.8248 11.2374 14.4434 12.6252L16.6131 14.7948C18.2605 13.14 20.3608 12.0098 22.6495 11.5467C22.7394 11.8505 22.8345 12.1559 22.932 12.4521C23.0458 12.7864 23.1739 13.1368 23.3156 13.4991C23.1747 13.5704 23.0356 13.6434 22.8973 13.7189C22.6762 13.8366 22.4797 13.9956 22.3186 14.1873C22.021 14.5417 21.8563 14.9887 21.8526 15.4514C21.8489 15.9141 22.0065 16.3637 22.2983 16.7228C22.5902 17.0819 22.998 17.3282 23.4517 17.4192C23.9054 17.5102 24.3766 17.4404 24.7844 17.2216C24.8862 17.1656 24.9914 17.1113 25.0949 17.057C25.5478 17.7863 26.0481 18.485 26.5926 19.1486L26.3321 19.4414C25.9915 19.8401 25.822 20.3571 25.8606 20.8801C25.8992 21.403 26.1426 21.8896 26.538 22.234C26.9334 22.5784 27.4488 22.7528 27.9721 22.7193C28.4954 22.6857 28.9843 22.4469 29.3325 22.0549C29.3724 22.015 29.4123 21.9649 29.4479 21.9259C29.6507 22.0829 29.8577 22.2373 30.0716 22.3883C30.5416 22.7176 31.0304 23.0264 31.5353 23.3107L31.3927 23.6399C31.194 24.1253 31.195 24.6695 31.3954 25.1541C31.5958 25.6388 31.9795 26.0247 32.463 26.2279C32.9466 26.4312 33.4907 26.4353 33.9772 26.2393C34.4638 26.0434 34.8532 25.6633 35.0609 25.1817C35.1025 25.0807 35.1475 24.9797 35.1933 24.8796C35.7126 25.0391 36.2463 25.1814 36.7945 25.3064C36.3781 27.7196 35.2216 29.9436 33.4852 31.6704L35.6549 33.8401C37.0921 32.4109 38.2222 30.7032 38.9758 28.8216C39.7294 26.9401 40.0907 24.9244 40.0375 22.8983L40.0358 22.7761C39.9209 18.8939 38.3026 15.2081 35.5223 12.4962C32.7419 9.78424 29.017 8.25821 25.1331 8.23997L25.1348 8.23827ZM34.8725 19.1385C34.5964 19.1375 34.323 19.1939 34.0697 19.304C33.8165 19.4141 33.5888 19.5756 33.4012 19.7783C33.2775 19.9187 33.1689 20.0717 33.0771 20.2348C32.7258 20.0294 32.3847 19.8139 32.0554 19.5814C32.0011 19.5424 31.9468 19.5033 31.8942 19.4643L31.9086 19.4499C32.0692 19.2573 32.1945 19.0378 32.2786 18.8016C32.4186 18.409 32.4328 17.9825 32.3193 17.5814C32.2312 17.2741 32.0696 16.9928 31.8487 16.7618C31.6277 16.5308 31.3539 16.3569 31.0508 16.2552C30.7887 16.1681 30.5113 16.1363 30.2363 16.1618C29.9613 16.1874 29.6946 16.2697 29.453 16.4037C29.3047 16.4869 29.1656 16.5856 29.0381 16.6981C28.7535 16.3355 28.4905 15.9695 28.2489 15.6001C28.4127 15.4908 28.5606 15.3594 28.6885 15.2098C28.9581 14.8914 29.1211 14.4963 29.1543 14.0804C29.1811 13.7623 29.1297 13.4424 29.0045 13.1487C28.8794 12.855 28.6844 12.5963 28.4365 12.3952C28.2223 12.2207 27.9742 12.0926 27.7079 12.0192C27.4416 11.9457 27.1629 11.9284 26.8896 11.9684C26.7428 11.9932 26.5985 12.0313 26.4585 12.0821C26.3658 11.8355 26.2786 11.5945 26.1972 11.3592C28.6094 11.5876 30.8943 12.5475 32.7459 14.1104C34.5975 15.6732 35.9275 17.7645 36.5577 20.1041C36.5365 20.0676 36.5144 20.0337 36.4924 19.9997C36.3127 19.7353 36.0713 19.5187 35.789 19.3687C35.5068 19.2186 35.1922 19.1396 34.8725 19.1385ZM36.8242 21.3514C36.8479 21.4974 36.87 21.645 36.8895 21.7952C36.8394 21.7825 36.7902 21.7689 36.741 21.7536C36.7817 21.6229 36.8093 21.4885 36.8233 21.3523L36.8242 21.3514Z" fill="#1DC5FF"/>
<path opacity="0.2" d="M25.1255 8.69231C25.0703 8.69146 25.0135 8.69231 24.9796 8.69231C21.1467 8.70729 17.4751 10.2365 14.7649 12.9468C12.0547 15.657 10.5254 19.3286 10.5105 23.1614C10.5105 23.1953 10.5096 23.2522 10.5105 23.3074C10.5256 27.0745 12.0042 30.6882 14.634 33.3855C17.2638 36.0828 20.839 37.6524 24.6045 37.7629L24.725 37.7663C26.6888 37.8117 28.6414 37.4584 30.4648 36.7278C32.2882 35.9971 33.9444 34.9042 35.3334 33.5152C36.7224 32.1263 37.8152 30.47 38.5459 28.6466C39.2766 26.8233 39.6299 24.8706 39.5844 22.9068L39.581 22.7864C39.471 19.0203 37.9013 15.4444 35.2036 12.8142C32.5059 10.1839 28.8915 8.70529 25.1238 8.69061L25.1255 8.69231ZM21.9096 31.9131C21.7525 32.0583 21.6273 32.2344 21.5417 32.4304C21.4561 32.6264 21.4121 32.838 21.4123 33.0519C21.4132 33.2976 21.4741 33.5394 21.5895 33.7563C21.705 33.9732 21.8717 34.1587 22.075 34.2966C22.3415 34.478 22.6582 34.5709 22.9804 34.5622C23.1769 34.5576 23.371 34.5186 23.554 34.4468C23.6666 34.3998 23.7765 34.3465 23.8833 34.2873C24.0139 34.7099 24.1302 35.1423 24.232 35.5847C21.1801 35.3868 18.3099 34.0644 16.1764 31.8731C14.0429 29.6819 12.7975 26.7775 12.681 23.7214C12.8982 23.7876 13.1171 23.8555 13.3259 23.9251C13.6992 24.0507 14.0929 24.1983 14.5028 24.3655L14.4951 24.385C14.3786 24.6221 14.2925 24.873 14.2389 25.1317C14.2079 25.3433 14.2211 25.5591 14.2778 25.7653C14.3345 25.9715 14.4333 26.1638 14.5681 26.3298C14.7229 26.521 14.9222 26.6713 15.1485 26.7678C15.3748 26.8642 15.6212 26.9038 15.8664 26.8831C16.1873 26.8569 16.4919 26.7305 16.737 26.5216C16.8888 26.3961 17.0172 26.2447 17.1162 26.0744C17.1689 25.9732 17.2162 25.8692 17.2579 25.763C17.9385 26.1824 18.5881 26.65 19.2019 27.1622L19.1239 27.2403C18.932 27.4219 18.7633 27.6265 18.6215 27.8495C18.5168 28.0366 18.4522 28.2435 18.4318 28.4569C18.4115 28.6704 18.436 28.8857 18.5036 29.0892C18.5817 29.322 18.7153 29.5323 18.8928 29.7018C19.0704 29.8714 19.2865 29.9952 19.5227 30.0625C19.8355 30.1506 20.1681 30.1375 20.473 30.0252C20.6585 29.9592 20.8309 29.861 20.9821 29.735C21.1122 29.6186 21.2357 29.4951 21.3521 29.365C21.5006 29.5559 21.6533 29.7579 21.7976 29.9632C22.1286 30.4346 22.4313 30.9254 22.7038 31.4329L22.5926 31.4914C22.3483 31.603 22.1188 31.7447 21.9096 31.9131ZM33.8085 31.9903C31.9061 33.906 29.4238 35.139 26.7479 35.4973C26.7392 35.3952 26.7201 35.2943 26.691 35.1961C26.5405 34.4999 26.353 33.8121 26.1293 33.1359C26.3618 33.0289 26.5977 32.9254 26.8353 32.8236C27.0211 32.7456 27.1898 32.6318 27.3317 32.4886C27.4736 32.3454 27.5858 32.1756 27.6621 31.9891C27.7384 31.8025 27.7772 31.6027 27.7762 31.4011C27.7753 31.1996 27.7347 31.0001 27.6567 30.8143C27.5787 30.6284 27.4648 30.4597 27.3216 30.3179C27.1784 30.176 27.0087 30.0637 26.8221 29.9875C26.6355 29.9112 26.4358 29.8724 26.2342 29.8733C26.0326 29.8743 25.8332 29.9149 25.6473 29.9929C25.4081 30.093 25.1645 30.2008 24.9252 30.3111C24.5949 29.6948 24.2265 29.0997 23.8222 28.5292C23.5931 28.2039 23.3563 27.892 23.1119 27.5933C23.2664 27.4507 23.4217 27.3107 23.5795 27.1732C23.8499 26.9389 24.0299 26.6175 24.0884 26.2645C24.147 25.9116 24.0804 25.5493 23.9001 25.2402C23.7199 24.9311 23.4373 24.6947 23.1013 24.5719C22.7652 24.4491 22.3968 24.4475 22.0598 24.5674C21.8776 24.6316 21.7094 24.7301 21.5642 24.8576C21.3631 25.0333 21.1646 25.2131 20.9669 25.3956C20.1269 24.676 19.2261 24.0306 18.2745 23.4669C18.3958 23.2267 18.518 22.9875 18.647 22.755C18.8142 22.3995 18.8386 21.9934 18.7154 21.6204C18.5922 21.2474 18.3306 20.9359 17.9846 20.7499C17.6386 20.5639 17.2344 20.5177 16.8554 20.6208C16.4763 20.7239 16.1512 20.9684 15.947 21.304C15.8053 21.5679 15.6687 21.8352 15.5346 22.1033C15.0433 21.9005 14.5724 21.7249 14.1277 21.5738C13.8044 21.4644 13.4735 21.3608 13.1434 21.2683C13.0454 21.2304 12.9436 21.203 12.8397 21.1869C13.2625 18.644 14.4697 16.297 16.2924 14.4743C18.1152 12.6516 20.4622 11.4443 23.005 11.0215C23.0195 11.1252 23.0451 11.2271 23.0814 11.3253C23.1764 11.6528 23.28 11.9837 23.3869 12.3096C23.5379 12.7542 23.7135 13.2251 23.9163 13.7164C23.6482 13.8505 23.3809 13.9871 23.117 14.1288C22.7587 14.322 22.4917 14.6497 22.3749 15.0397C22.2581 15.4297 22.301 15.8502 22.4942 16.2086C22.6874 16.567 23.0151 16.8339 23.4051 16.9507C23.7951 17.0675 24.2156 17.0246 24.574 16.8314C24.809 16.705 25.0483 16.5828 25.2859 16.4589C25.8496 17.4105 26.495 18.3113 27.2146 19.1513C27.0321 19.349 26.8523 19.5475 26.6766 19.7486C26.5491 19.8938 26.4506 20.062 26.3864 20.2442C26.2665 20.5812 26.268 20.9496 26.3909 21.2857C26.5137 21.6217 26.7501 21.9043 27.0592 22.0845C27.3682 22.2648 27.7306 22.3314 28.0835 22.2728C28.4365 22.2143 28.7579 22.0343 28.9922 21.7639C29.1297 21.6061 29.2697 21.4508 29.4123 21.2963C29.7109 21.5407 30.0229 21.7775 30.3482 22.0066C30.9202 22.4096 31.5167 22.7766 32.1343 23.1054C32.024 23.3447 31.9188 23.5857 31.8161 23.8275C31.6862 24.1972 31.7026 24.6025 31.8619 24.9605C32.0212 25.3185 32.3114 25.602 32.673 25.7529C33.0346 25.9038 33.4402 25.9107 33.8067 25.7722C34.1732 25.6336 34.4729 25.3602 34.6443 25.0078C34.7461 24.7702 34.8496 24.5343 34.9565 24.3018C35.6317 24.5265 36.3182 24.7152 37.0134 24.8669C37.1116 24.896 37.2125 24.9151 37.3146 24.9238C36.9578 27.6017 35.725 30.0863 33.8085 31.9903ZM37.4003 22.4113C36.9585 22.3089 36.526 22.1927 36.1029 22.0626C36.1621 21.9559 36.2154 21.8459 36.2624 21.7333C36.3342 21.5504 36.3732 21.3562 36.3778 21.1597C36.3865 20.8375 36.2936 20.5208 36.1122 20.2544C35.9743 20.051 35.7888 19.8843 35.5719 19.7689C35.355 19.6534 35.1132 19.5925 34.8675 19.5916C34.6536 19.5914 34.442 19.6354 34.246 19.721C34.05 19.8066 33.8739 19.9318 33.7287 20.0889C33.5619 20.2935 33.4209 20.5177 33.3087 20.7567L33.2459 20.8721C32.7384 20.5995 32.2477 20.2969 31.7763 19.9658C31.5709 19.8216 31.3724 19.6723 31.1781 19.5204C31.3081 19.404 31.4316 19.2805 31.548 19.1504C31.674 18.9992 31.7723 18.8268 31.8382 18.6413C31.9469 18.3377 31.9575 18.0077 31.8688 17.6977C31.8015 17.4616 31.6777 17.2454 31.5081 17.0679C31.3385 16.8903 31.1283 16.7567 30.8955 16.6787C30.692 16.611 30.4767 16.5866 30.2632 16.6069C30.0497 16.6272 29.8429 16.6918 29.6558 16.7966C29.4328 16.9383 29.2282 17.107 29.0465 17.2989L28.9685 17.377C28.4607 16.765 27.997 16.1176 27.5811 15.4398C27.6874 15.3981 27.7913 15.3508 27.8925 15.2981C28.0642 15.201 28.2173 15.0743 28.3448 14.9239C28.5537 14.6788 28.6802 14.3743 28.7063 14.0533C28.7267 13.8075 28.6865 13.5604 28.5891 13.3338C28.4918 13.1071 28.3403 12.9078 28.148 12.7534C27.9819 12.6186 27.7897 12.5197 27.5834 12.463C27.3772 12.4064 27.1615 12.3931 26.9498 12.4241C26.6921 12.4771 26.4421 12.5623 26.2057 12.6778L26.1862 12.6855C26.019 12.2756 25.8714 11.8819 25.7458 11.5086C25.6736 11.2973 25.6058 11.0784 25.5421 10.8637C28.5991 10.9796 31.5044 12.2251 33.6962 14.3592C35.888 16.4933 37.2105 19.3645 37.4079 22.4172L37.4003 22.4113Z" fill="#1DC5FF"/>
<path opacity="0.3" d="M25.117 9.03338C25.0687 9.03253 25.0186 9.03338 24.9821 9.03423C21.2389 9.0479 17.6529 10.541 15.006 13.1878C12.3591 15.8347 10.8661 19.4207 10.8524 23.1639C10.8516 23.2004 10.8507 23.2505 10.8516 23.2988C10.8651 26.979 12.3085 30.5097 14.877 33.1453C17.4455 35.781 20.9378 37.315 24.6164 37.4234L24.7369 37.4268C26.6545 37.4712 28.5612 37.1263 30.3417 36.4128C32.1222 35.6993 33.7395 34.6322 35.0958 33.2759C36.4521 31.9196 37.5192 30.3023 38.2327 28.5218C38.9462 26.7413 39.2911 24.8346 39.2467 22.917L39.2433 22.7965C39.1349 19.118 37.6008 15.6256 34.9652 13.0571C32.3296 10.4886 28.7988 9.04519 25.1187 9.03168L25.117 9.03338ZM24.6096 35.6517C24.6213 35.7371 24.643 35.8208 24.6741 35.9012C24.68 35.9173 24.6877 35.9317 24.6945 35.947C24.6817 35.9461 24.6682 35.9461 24.6563 35.9444C21.3654 35.8471 18.2409 34.4759 15.9413 32.1199C13.6417 29.764 12.3465 26.6072 12.3289 23.315L12.3297 23.236C12.3948 23.2649 12.4624 23.2876 12.5317 23.3039L12.5461 23.3065C12.8456 23.3939 13.1494 23.4889 13.4362 23.5856C13.9453 23.7553 14.4909 23.9615 15.0543 24.2127L14.9024 24.5699C14.8053 24.77 14.731 24.9803 14.681 25.197C14.6584 25.3468 14.667 25.4998 14.7065 25.6461C14.7459 25.7924 14.8152 25.929 14.9101 26.0472C15.0186 26.1803 15.1579 26.285 15.3159 26.3523C15.474 26.4196 15.646 26.4474 15.8172 26.4333C16.0505 26.4163 16.2721 26.324 16.4485 26.1703C16.5579 26.0777 16.6501 25.9665 16.7208 25.8419C16.7879 25.7222 16.9262 25.3684 16.9245 25.3667L16.9338 25.3574L16.9949 25.1894C17.9922 25.7622 18.9287 26.4349 19.79 27.197C19.6729 27.3141 19.5609 27.4363 19.4506 27.5567C19.2899 27.7106 19.1473 27.8823 19.0254 28.0684C18.9519 28.2007 18.9065 28.3468 18.8922 28.4975C18.8779 28.6483 18.895 28.8003 18.9423 28.9441C18.9965 29.1071 19.0899 29.2543 19.2141 29.3729C19.3383 29.4916 19.4897 29.578 19.6551 29.6246C19.8742 29.6874 20.1075 29.6796 20.322 29.6025C20.4568 29.5538 20.5822 29.4823 20.6928 29.3913C20.798 29.303 21.0483 29.0205 21.05 29.0171L21.0602 29.0069L21.3071 28.7447C21.577 29.0654 21.8392 29.4006 22.0903 29.7587C22.516 30.364 22.8955 31.0005 23.2257 31.6628C23.0823 31.74 22.938 31.8181 22.7972 31.8961C22.5956 31.9893 22.4057 32.1058 22.2312 32.2432C22.1191 32.3454 22.0297 32.4699 21.9686 32.6087C21.9075 32.7475 21.8761 32.8976 21.8765 33.0493C21.876 33.2212 21.9175 33.3907 21.9974 33.543C22.0772 33.6953 22.193 33.8258 22.3347 33.9233C22.5234 34.0512 22.7474 34.1168 22.9753 34.1108C23.1207 34.1077 23.2643 34.0789 23.3996 34.0259C23.5226 33.9793 23.8536 33.7858 23.8561 33.7849L23.8663 33.7748L24.064 33.667C24.2843 34.3174 24.4665 34.9801 24.6096 35.6517ZM34.0495 32.2313C31.9859 34.3096 29.2622 35.6032 26.3474 35.8893C26.3767 35.8028 26.3928 35.7124 26.3949 35.6212C26.3963 35.5073 26.3797 35.3938 26.3457 35.2851C26.1671 34.4618 25.9356 33.6509 25.6525 32.8575C25.98 32.6997 26.3168 32.5529 26.6512 32.4103C26.7848 32.3576 26.9065 32.2787 27.0092 32.1783C27.1119 32.0779 27.1936 31.958 27.2495 31.8257C27.3053 31.6933 27.3342 31.5512 27.3344 31.4075C27.3346 31.2639 27.3062 31.1217 27.2508 30.9891C27.1953 30.8566 27.114 30.7365 27.0116 30.6358C26.9092 30.5351 26.7877 30.4558 26.6543 30.4026C26.5209 30.3494 26.3782 30.3234 26.2346 30.326C26.0909 30.3287 25.9493 30.3599 25.8179 30.418C25.4777 30.5614 25.1382 30.7124 24.8031 30.8694C24.4327 30.128 24.0075 29.4152 23.5311 28.7371C23.2206 28.2975 22.8967 27.8815 22.5596 27.4889C22.7972 27.2666 23.0364 27.0476 23.28 26.8346C23.4967 26.6463 23.6297 26.3795 23.6497 26.0931C23.6698 25.8067 23.5752 25.524 23.3869 25.3073C23.1985 25.0906 22.9318 24.9576 22.6453 24.9375C22.3589 24.9175 22.0762 25.012 21.8595 25.2004C21.588 25.438 21.3114 25.6891 21.0449 25.9403C20.0265 25.0277 18.9114 24.229 17.7196 23.5585C17.887 23.2145 18.059 22.8729 18.2355 22.5335C18.3558 22.3122 18.3951 22.0558 18.3463 21.8086C18.2976 21.5614 18.1641 21.3391 17.9687 21.18C17.7734 21.0209 17.5286 20.9351 17.2767 20.9375C17.0248 20.9398 16.7817 21.0301 16.5893 21.1928C16.4854 21.2799 16.3993 21.3862 16.3356 21.5059C16.1464 21.8648 15.958 22.2229 15.7824 22.5886C15.157 22.3162 14.5562 22.0871 14.0005 21.8996C13.6763 21.7893 13.3471 21.6858 13.017 21.595C12.9124 21.5533 12.8012 21.53 12.6886 21.5263C12.6004 21.5229 12.5122 21.5318 12.4264 21.5526C12.7913 18.7797 14.061 16.2048 16.0386 14.2272C18.0162 12.2496 20.5911 10.9799 23.364 10.615C23.3432 10.7008 23.3343 10.789 23.3377 10.8772C23.3414 10.9898 23.3647 11.1009 23.4064 11.2056C23.5006 11.5323 23.6016 11.859 23.711 12.1891C23.8985 12.7448 24.1276 13.3456 24.4 13.971C24.0369 14.1492 23.6737 14.3324 23.3173 14.5242C23.1976 14.5879 23.0913 14.674 23.0042 14.7779C22.8415 14.9703 22.7512 15.2134 22.7489 15.4653C22.7465 15.7172 22.8323 15.962 22.9914 16.1573C23.1505 16.3527 23.3729 16.4862 23.62 16.5349C23.8672 16.5836 24.1236 16.5444 24.3449 16.4241C24.6809 16.2442 25.0226 16.0722 25.3699 15.9082C26.0404 17.1 26.8391 18.2151 27.7517 19.2335C27.5005 19.5 27.2528 19.7732 27.0118 20.0481C26.9221 20.1504 26.8527 20.2687 26.8073 20.3969C26.7233 20.6341 26.7248 20.8932 26.8115 21.1295C26.8982 21.3657 27.0647 21.5643 27.2822 21.6908C27.4997 21.8174 27.7546 21.864 28.0028 21.8227C28.2511 21.7813 28.4771 21.6546 28.6418 21.4643C28.8548 21.2208 29.0737 20.9815 29.296 20.7439C29.6892 21.0805 30.1052 21.4044 30.5442 21.7155C31.2224 22.1918 31.9352 22.617 32.6766 22.9874C32.5153 23.3183 32.3686 23.662 32.2251 24.0023C32.1671 24.1336 32.1358 24.2753 32.1332 24.4189C32.1306 24.5625 32.1566 24.7052 32.2098 24.8386C32.263 24.9721 32.3422 25.0936 32.443 25.196C32.5437 25.2984 32.6638 25.3797 32.7963 25.4351C32.9288 25.4905 33.0711 25.519 33.2147 25.5187C33.3583 25.5185 33.5005 25.4896 33.6328 25.4338C33.7652 25.378 33.8851 25.2963 33.9854 25.1936C34.0858 25.0908 34.1647 24.9691 34.2175 24.8355C34.36 24.5012 34.5094 24.1669 34.6647 23.8368C35.4581 24.1199 36.269 24.3515 37.0923 24.53C37.201 24.5641 37.3144 24.5807 37.4283 24.5793C37.5196 24.5771 37.61 24.5611 37.6965 24.5317C37.4128 27.4442 36.1232 30.1667 34.0495 32.2313ZM37.7635 22.8389C37.7652 22.8508 37.7652 22.8644 37.766 22.8771C37.7508 22.8703 37.7363 22.8627 37.7202 22.8567C37.6399 22.8256 37.5561 22.804 37.4708 22.7923C36.7975 22.6457 36.1333 22.4598 35.4818 22.2356L35.5896 22.0379L35.5997 22.0277C35.5997 22.0277 35.7907 21.6977 35.8407 21.5712C35.8937 21.4359 35.9225 21.2923 35.9256 21.147C35.9304 20.9229 35.8661 20.7028 35.7414 20.5165C35.6449 20.3743 35.5152 20.2579 35.3635 20.1771C35.2118 20.0964 35.0427 20.0539 34.8709 20.0532C34.7192 20.0528 34.5691 20.0842 34.4303 20.1453C34.2915 20.2064 34.1669 20.2958 34.0648 20.4079C33.9274 20.5824 33.8109 20.7723 33.7177 20.9739C33.6396 21.1147 33.5616 21.259 33.4844 21.4024C32.8231 21.0704 32.1877 20.6892 31.5837 20.262C31.2273 20.0125 30.8904 19.7486 30.5697 19.4788L30.8319 19.2318L30.842 19.2217C30.842 19.2217 31.128 18.9696 31.2162 18.8644C31.3073 18.7538 31.3788 18.6284 31.4275 18.4936C31.5046 18.2791 31.5123 18.0458 31.4496 17.8267C31.4029 17.6614 31.3165 17.51 31.1979 17.3857C31.0793 17.2615 30.9321 17.1682 30.7691 17.1139C30.6236 17.0671 30.4699 17.0513 30.318 17.0673C30.166 17.0834 30.0191 17.1311 29.8866 17.2072C29.7012 17.3306 29.5304 17.4746 29.3775 17.6366C29.257 17.7469 29.1382 17.8623 29.0177 17.976C28.2545 17.1135 27.581 16.1756 27.0075 15.1767L27.1739 15.1088L27.1832 15.0995C27.1832 15.0995 27.5396 14.962 27.6584 14.8959C27.783 14.8251 27.8942 14.7329 27.9867 14.6235C28.135 14.4503 28.2247 14.2347 28.243 14.0074C28.2571 13.8363 28.2293 13.6642 28.162 13.5062C28.0948 13.3482 27.99 13.2089 27.8569 13.1004C27.7387 13.0055 27.6022 12.9362 27.4558 12.8968C27.3095 12.8573 27.1566 12.8486 27.0067 12.8713C26.79 12.9213 26.5797 12.9956 26.3796 13.0927L26.0224 13.2446C25.7746 12.6778 25.5676 12.1331 25.3953 11.6265C25.2986 11.3397 25.2036 11.0359 25.1162 10.7364L25.1136 10.7219C25.0973 10.6527 25.0746 10.5851 25.0458 10.52L25.1247 10.5192C28.4172 10.5366 31.5743 11.8318 33.9305 14.1316C36.2867 16.4314 37.6579 19.5563 37.755 22.8474L37.7635 22.8389Z" fill="#1DC5FF"/>
<path d="M25.1136 9.26078C25.0669 9.25994 25.0211 9.25994 24.9829 9.26078C21.2996 9.27449 17.771 10.7438 15.1665 13.3483C12.5619 15.9528 11.0926 19.4814 11.0789 23.1648V23.2954C11.0911 26.9171 12.511 30.3922 15.0385 32.9862C17.566 35.5802 21.003 37.0898 24.6232 37.196L24.7428 37.2003C26.6294 37.2437 28.5051 36.9041 30.2568 36.202C32.0084 35.4999 33.5994 34.45 34.9338 33.1156C36.2682 31.7813 37.3181 30.1902 38.0202 28.4386C38.7222 26.687 39.0618 24.8112 39.0184 22.9246L39.0142 22.805C38.908 19.1848 37.3983 15.7478 34.8043 13.2203C32.2104 10.6929 28.7353 9.27299 25.1136 9.26078ZM37.9943 22.8203L37.9977 22.9187C38.0415 24.6712 37.7286 26.4143 37.078 28.0422C36.4274 29.67 35.4528 31.1486 34.2132 32.3882C32.9736 33.6278 31.495 34.6025 29.8671 35.2531C28.2392 35.9036 26.4961 36.2165 24.7436 36.1727L24.6452 36.1693C21.2969 36.0687 18.1182 34.6728 15.7785 32.2754C13.4388 29.8781 12.1206 26.6664 12.1014 23.3167L12.1023 23.2089C12.1023 22.9934 12.1074 22.7778 12.1192 22.564C12.1252 22.4002 12.1388 22.2339 12.154 22.071C12.4226 19.0495 13.745 16.2185 15.89 14.0736C18.035 11.9286 20.8659 10.6061 23.8875 10.3376C24.0462 10.3265 24.215 10.3104 24.3805 10.3028C24.5943 10.2909 24.8098 10.2858 25.0254 10.2858L25.1331 10.285C28.4829 10.3032 31.695 11.6205 34.0929 13.9596C36.4909 16.2987 37.8877 19.477 37.9892 22.8254L37.9943 22.8203Z" fill="#1DC5FF"/>
<path d="M25.1086 9.48827C25.0653 9.48742 25.0212 9.48742 24.9847 9.48827C21.3611 9.50168 17.8898 10.9471 15.3275 13.5094C12.7652 16.0716 11.3198 19.543 11.3064 23.1665L11.3064 23.2904C11.3179 26.8538 12.7143 30.2732 15.2006 32.8259C17.6868 35.3787 21.0681 36.8648 24.63 36.9704L24.7496 36.9729C26.6051 37.0151 28.4499 36.6808 30.1726 35.9901C31.8952 35.2993 33.46 34.2666 34.7724 32.9542C36.0847 31.6419 37.1175 30.0771 37.8082 28.3544C38.4989 26.6318 38.8333 24.787 38.7911 22.9315L38.7885 22.8119C38.683 19.25 37.1968 15.8687 34.644 13.3825C32.0913 10.8962 28.672 9.49979 25.1086 9.48827ZM38.2183 22.8085L38.2217 22.9171C38.2665 24.7004 37.9482 26.4741 37.2863 28.1306C36.6244 29.7871 35.6326 31.2918 34.3713 32.5531C33.1099 33.8145 31.6053 34.8063 29.9488 35.4682C28.2923 36.1301 26.5185 36.4483 24.7352 36.4036L24.6266 36.4002C21.2208 36.2939 17.989 34.8705 15.6115 32.4297C13.2339 29.9888 11.8959 26.7207 11.8792 23.3133C11.8775 23.2743 11.8775 23.237 11.8792 23.2013C11.8807 19.7136 13.2669 16.3692 15.733 13.903C18.1992 11.4369 21.5436 10.0507 25.0313 10.0491C25.067 10.0474 25.1043 10.0474 25.1433 10.0491C28.5508 10.0659 31.8188 11.4039 34.2597 13.7814C36.7006 16.159 38.1239 19.3908 38.2302 22.7966L38.2183 22.8085Z" fill="#00F9FF"/>
<path d="M34.6544 32.8364C33.3607 34.1373 31.8148 35.1601 30.1115 35.8419C28.4083 36.5238 26.5836 36.8503 24.7496 36.8016L24.6316 36.799C21.1124 36.6956 17.7713 35.2274 15.3151 32.7049C12.8588 30.1825 11.48 26.8036 11.4701 23.2828C11.4693 23.2429 11.4693 23.2022 11.4701 23.1623C11.4832 19.5832 12.9108 16.1544 15.4417 13.6236C17.9725 11.0928 21.4013 9.66515 24.9804 9.65205C25.0194 9.65035 25.0601 9.65035 25.1009 9.65205C28.6213 9.66211 31.9999 11.0409 34.5222 13.497C37.0444 15.953 38.5126 19.2938 38.6162 22.8127L38.6188 22.9307C38.6678 24.7648 38.3414 26.5896 37.6597 28.293C36.978 29.9964 35.9553 31.5425 34.6544 32.8364ZM15.6109 13.7929C14.3721 15.0262 13.3894 16.4925 12.7195 18.1072C12.0496 19.7219 11.7058 21.4532 11.7077 23.2013V23.3184C11.7249 26.7683 13.0799 30.0768 15.4875 32.5477C17.895 35.0186 21.1673 36.4589 24.6155 36.5657C24.6537 36.5682 24.6936 36.5691 24.7318 36.5699C26.5382 36.6154 28.3351 36.2932 30.0131 35.6228C31.6912 34.9524 33.2154 33.9477 34.4931 32.67C35.7709 31.3922 36.7755 29.868 37.4459 28.19C38.1164 26.5119 38.4386 24.7151 38.3931 22.9086C38.3931 22.8696 38.3914 22.8305 38.3888 22.7941C38.2821 19.3459 36.8417 16.0735 34.3709 13.666C31.9 11.2584 28.5914 9.90344 25.1416 9.88624C25.1026 9.88455 25.0627 9.88539 25.0237 9.88539C23.2745 9.88344 21.5422 10.2277 19.9267 10.8983C18.3112 11.569 16.8445 12.5527 15.6109 13.7929Z" fill="white"/>
<path d="M25.1068 9.71215L24.988 9.71215C21.4235 9.72488 18.0086 11.1469 15.4885 13.6679C12.9684 16.189 11.5477 19.6044 11.5363 23.169V23.2878C11.5479 26.7921 12.9216 30.1547 15.367 32.6648C17.8125 35.1748 21.1381 36.6357 24.641 36.7386C24.68 36.7386 24.7191 36.7403 24.7589 36.7412C26.5838 36.7829 28.3981 36.4543 30.0924 35.7751C31.7866 35.0959 33.3256 34.0803 34.6163 32.7896C35.907 31.4989 36.9226 29.9599 37.6018 28.2657C38.281 26.5714 38.6096 24.7571 38.5679 22.9322C38.567 22.8923 38.5653 22.8533 38.5653 22.8143C38.4617 19.3105 36.9995 15.9844 34.4879 13.5393C31.9762 11.0942 28.6121 9.7217 25.1068 9.71215ZM38.4482 22.7905C38.4508 22.8287 38.4516 22.8686 38.4516 22.9076C38.4972 24.7216 38.1735 26.526 37.5001 28.2111C36.8268 29.8961 35.8179 31.4267 34.5348 32.7098C33.2517 33.9929 31.7211 35.0018 30.0361 35.6751C28.351 36.3484 26.5467 36.6722 24.7326 36.6266C24.6936 36.6266 24.6537 36.6258 24.6155 36.6232C21.1524 36.5147 17.8663 35.0675 15.4482 32.5861C13.03 30.1046 11.6682 26.7822 11.6492 23.3175V23.1987C11.6534 19.6537 13.0635 16.2552 15.5702 13.7486C18.0768 11.2419 21.4754 9.83181 25.0203 9.82755L25.1391 9.82755C28.6038 9.84662 31.9262 11.2084 34.4077 13.6265C36.8891 16.0447 38.3363 19.3308 38.4448 22.7939L38.4482 22.7905Z" fill="white"/>
<path d="M35.3079 21.8513C35.3333 21.8088 35.4928 21.5271 35.5242 21.4465C35.5755 21.3265 35.5963 21.1957 35.5848 21.0657C35.5732 20.9357 35.5297 20.8106 35.4581 20.7015C35.3925 20.6055 35.3047 20.5268 35.2022 20.4722C35.0996 20.4175 34.9854 20.3885 34.8692 20.3875C34.7643 20.3881 34.6607 20.4104 34.5649 20.4531C34.4691 20.4957 34.3831 20.5578 34.3125 20.6353C34.1987 20.7876 34.1006 20.9511 34.0198 21.1232C33.8891 21.3568 33.761 21.5947 33.6354 21.8368C32.8233 21.4592 32.0456 21.0114 31.3113 20.4987C30.8723 20.1895 30.4503 19.857 30.047 19.5025C30.2218 19.3277 30.4051 19.158 30.5934 18.9849L30.6087 18.9697C30.6435 18.9349 30.8828 18.721 30.9405 18.6532C31.0262 18.5552 31.0865 18.4375 31.116 18.3107C31.1454 18.1839 31.1431 18.0517 31.1093 17.926C31.0772 17.8143 31.0185 17.712 30.9383 17.6279C30.8581 17.5439 30.7587 17.4805 30.6486 17.4432C30.5488 17.4107 30.4434 17.3994 30.3389 17.4097C30.2345 17.4201 30.1334 17.452 30.0419 17.5034C29.8856 17.6119 29.7414 17.7368 29.6117 17.8759C29.3996 18.0694 29.1908 18.2696 28.9829 18.4724C28.0122 17.4318 27.1737 16.2753 26.4866 15.0291C26.6724 14.9502 26.8599 14.8713 27.0517 14.7932L27.072 14.7864C27.1179 14.7694 27.4166 14.6506 27.4946 14.6065C27.6093 14.5452 27.7071 14.4565 27.7792 14.3483C27.8513 14.2401 27.8955 14.1157 27.9079 13.9862C27.9177 13.8703 27.8991 13.7537 27.8535 13.6466C27.808 13.5395 27.7369 13.4452 27.6465 13.3719C27.5647 13.3065 27.4702 13.2588 27.369 13.2317C27.2677 13.2047 27.162 13.199 27.0585 13.2149C26.8735 13.2608 26.6939 13.3265 26.5231 13.4109C26.288 13.5051 26.0513 13.6044 25.8162 13.7071C25.5123 13.0474 25.2432 12.3721 25.0101 11.6842C24.91 11.3906 24.8141 11.0848 24.7225 10.7669L24.7191 10.7517C24.7075 10.7023 24.6916 10.654 24.6716 10.6074C24.6361 10.5208 24.5799 10.4443 24.5078 10.3847C24.4357 10.325 24.35 10.2841 24.2583 10.2655C24.1763 10.2503 24.0918 10.2552 24.0122 10.2799C23.9325 10.3046 23.86 10.3483 23.801 10.4072C23.7482 10.4607 23.7071 10.5246 23.6803 10.5949C23.6536 10.6651 23.6418 10.7402 23.6457 10.8153C23.6502 10.8923 23.6683 10.9678 23.6992 11.0385C23.7933 11.3651 23.8935 11.6927 24.0038 12.0219C24.2487 12.7437 24.5308 13.4523 24.8489 14.1449C24.4119 14.3528 23.958 14.5794 23.4913 14.8237C23.3229 14.9194 23.1988 15.0772 23.1456 15.2633C23.0924 15.4494 23.1143 15.649 23.2067 15.8191C23.299 15.9893 23.4544 16.1164 23.6395 16.1732C23.8245 16.23 24.0245 16.2119 24.1964 16.1228C24.6495 15.8802 25.0907 15.6595 25.5133 15.4593C26.257 16.8241 27.1717 18.0884 28.2354 19.2217C27.9214 19.5492 27.5998 19.8979 27.2765 20.2687C27.209 20.3415 27.1567 20.4271 27.123 20.5205C27.0892 20.6138 27.0746 20.713 27.08 20.8122C27.0854 20.9113 27.1108 21.0084 27.1545 21.0975C27.1982 21.1866 27.2595 21.266 27.3346 21.331C27.4097 21.3959 27.4971 21.4451 27.5916 21.4755C27.6861 21.5059 27.7858 21.517 27.8846 21.5081C27.9835 21.4991 28.0796 21.4704 28.1671 21.4235C28.2546 21.3766 28.3318 21.3126 28.3941 21.2352C28.6995 20.8873 29.0016 20.5581 29.2977 20.2501C29.7445 20.6465 30.213 21.0176 30.7012 21.3617C31.4762 21.906 32.297 22.3821 33.1543 22.7846C32.9507 23.2089 32.7484 23.6572 32.5476 24.1296C32.5102 24.2192 32.4909 24.3153 32.4906 24.4125C32.4904 24.5096 32.5093 24.6058 32.5462 24.6956C32.6209 24.877 32.7645 25.0214 32.9456 25.0969C33.1266 25.1724 33.3302 25.1729 33.5116 25.0982C33.6015 25.0613 33.6831 25.007 33.752 24.9385C33.8208 24.87 33.8755 24.7886 33.9129 24.6989C34.1114 24.2271 34.3185 23.7842 34.5187 23.3599C35.3725 23.6755 36.2479 23.9293 37.1381 24.1194L37.1441 24.1253C37.2182 24.1499 37.2959 24.1622 37.374 24.1618C37.4511 24.1606 37.5269 24.1422 37.5961 24.1082C37.6652 24.0741 37.7259 24.0251 37.7738 23.9647C37.8217 23.9043 37.8556 23.834 37.873 23.7589C37.8905 23.6838 37.891 23.6058 37.8747 23.5305C37.8556 23.4406 37.8146 23.3569 37.7552 23.2869C37.6958 23.2168 37.6199 23.1626 37.5344 23.1291C37.4772 23.1078 37.4177 23.0933 37.3571 23.0859C36.5609 22.9131 35.7774 22.6869 35.0117 22.4087C35.1068 22.2305 35.2018 22.049 35.3036 21.8708L35.3079 21.8513Z" fill="#1DC5FF"/>
<path d="M34.8649 20.6888C34.8057 20.6899 34.7473 20.7032 34.6934 20.7278C34.6395 20.7525 34.5913 20.788 34.5518 20.8322C34.5037 20.8857 34.4652 20.9471 34.4381 21.0138L34.4262 21.0392C34.2133 21.4219 34.0054 21.8165 33.8068 22.2119C32.9054 21.8067 32.0446 21.3169 31.2358 20.749C30.6699 20.3511 30.1321 19.9148 29.6261 19.4431C29.9231 19.1462 30.2328 18.8449 30.5569 18.5462L30.5858 18.5174C30.6255 18.4837 30.6624 18.4468 30.6961 18.4071C30.7473 18.3505 30.7837 18.2822 30.8021 18.2082C30.8204 18.1342 30.8202 18.0567 30.8013 17.9828C30.7843 17.9224 30.7528 17.867 30.7094 17.8216C30.6661 17.7762 30.6123 17.7421 30.5527 17.7223C30.4961 17.7044 30.4364 17.6984 30.3774 17.7049C30.3183 17.7113 30.2613 17.73 30.2099 17.7597C30.1477 17.7958 30.0918 17.842 30.0444 17.8963C30.0388 17.9036 30.0322 17.9101 30.0249 17.9158C29.6914 18.2221 29.3605 18.5412 29.0381 18.867C27.8808 17.6597 26.9019 16.2934 26.131 14.8093C26.4679 14.6574 26.8141 14.5081 27.1722 14.3638L27.2104 14.3494C27.2595 14.3325 27.3072 14.3115 27.3529 14.2866C27.4207 14.2518 27.4788 14.2007 27.522 14.1379C27.5652 14.0751 27.5923 14.0026 27.6007 13.9269C27.6065 13.8645 27.597 13.8016 27.5729 13.7437C27.5488 13.6859 27.5108 13.6348 27.4624 13.5951C27.4149 13.5599 27.3608 13.5348 27.3033 13.5214C27.2458 13.508 27.1861 13.5065 27.128 13.517C27.0568 13.5282 26.9881 13.5521 26.9252 13.5874L26.9006 13.6002C26.523 13.7521 26.1429 13.9167 25.767 14.0855C25.4175 13.3487 25.1109 12.5922 24.8489 11.82C24.7479 11.5221 24.6512 11.2133 24.5604 10.8968C24.5568 10.8874 24.554 10.8777 24.5519 10.8679C24.5437 10.8315 24.5321 10.796 24.5171 10.7618C24.4975 10.7109 24.4655 10.6656 24.424 10.6301C24.3825 10.5945 24.3329 10.5698 24.2795 10.5582C24.2354 10.55 24.1899 10.5526 24.147 10.5659C24.1042 10.5792 24.0652 10.6028 24.0335 10.6346C24.0039 10.6651 23.9811 10.7015 23.9663 10.7414C23.9516 10.7813 23.9452 10.8238 23.9478 10.8662C23.9501 10.918 23.9619 10.9689 23.9826 11.0164C23.9853 11.0224 23.9876 11.0287 23.9893 11.0351C24.0827 11.3575 24.187 11.6859 24.294 12.0049C24.562 12.7983 24.8765 13.5752 25.2358 14.3316C24.7106 14.5768 24.1684 14.8492 23.6084 15.1564C23.5132 15.2081 23.4424 15.2956 23.4117 15.3995C23.381 15.5034 23.3928 15.6153 23.4446 15.7105C23.4963 15.8057 23.5838 15.8764 23.6877 15.9071C23.7916 15.9378 23.9035 15.926 23.9987 15.8742C24.546 15.573 25.0831 15.2989 25.5956 15.0579C26.4005 16.6066 27.4248 18.031 28.6367 19.287C28.2676 19.6731 27.8883 20.0897 27.5082 20.5343C27.4715 20.5746 27.4432 20.6218 27.425 20.6731C27.4069 20.7245 27.3992 20.779 27.4024 20.8334C27.4056 20.8877 27.4197 20.9409 27.4438 20.9898C27.4679 21.0386 27.5015 21.0822 27.5427 21.1178C27.5839 21.1534 27.6318 21.1805 27.6836 21.1973C27.7354 21.2141 27.7901 21.2204 27.8444 21.2158C27.8987 21.2111 27.9515 21.1957 27.9997 21.1703C28.0479 21.1449 28.0905 21.1102 28.1251 21.0681C28.495 20.6353 28.8633 20.2314 29.2214 19.8564C29.7513 20.3507 30.3143 20.8083 30.9065 21.2259C31.7384 21.8105 32.623 22.3161 33.5489 22.7363C33.313 23.2301 33.0779 23.7571 32.8488 24.3154C32.8282 24.3649 32.8175 24.4179 32.8174 24.4715C32.8173 24.5251 32.8278 24.5782 32.8482 24.6278C32.8686 24.6773 32.8985 24.7224 32.9364 24.7604C32.9742 24.7983 33.0191 24.8285 33.0686 24.8491C33.1181 24.8697 33.1711 24.8804 33.2247 24.8805C33.2783 24.8806 33.3314 24.8702 33.381 24.8498C33.4305 24.8294 33.4756 24.7994 33.5136 24.7616C33.5515 24.7237 33.5817 24.6788 33.6023 24.6293C33.8297 24.0727 34.0665 23.5475 34.3015 23.0562C35.2581 23.4353 36.2447 23.7339 37.251 23.9488L37.2705 23.9548C37.3211 23.9717 37.3741 23.9806 37.4275 23.9811C37.5016 23.9804 37.5725 23.9509 37.6252 23.8988C37.6586 23.8645 37.6831 23.8224 37.6962 23.7763C37.7094 23.7303 37.711 23.6817 37.7007 23.6349C37.6898 23.5839 37.6663 23.5364 37.6324 23.4968C37.5985 23.4573 37.5551 23.4268 37.5064 23.4083C37.4666 23.3929 37.4249 23.3827 37.3825 23.3778L37.3579 23.3735C36.4046 23.1674 35.4696 22.8845 34.562 22.5275C34.7402 22.1796 34.9252 21.825 35.1195 21.4609L35.1398 21.427C35.168 21.3826 35.1922 21.3357 35.212 21.287C35.2427 21.2173 35.2557 21.1411 35.2499 21.0652C35.2442 20.9893 35.2198 20.9159 35.1789 20.8517C35.1435 20.8013 35.0965 20.7602 35.0418 20.7318C34.9872 20.7034 34.9265 20.6887 34.8649 20.6888Z" fill="#00F9FF"/>
<path d="M37.4979 23.7749C37.4779 23.7944 37.4511 23.8054 37.4232 23.8054C37.3881 23.8046 37.3534 23.798 37.3205 23.7859L37.2942 23.7782C36.2088 23.5478 35.1463 23.2198 34.1199 22.7982C33.8611 23.3217 33.6481 23.7689 33.3401 24.5504C33.3309 24.5762 33.3161 24.5997 33.2968 24.6191C33.2782 24.6389 33.2539 24.6523 33.2273 24.6577C33.2007 24.663 33.1731 24.6599 33.1483 24.6488C33.1308 24.642 33.115 24.6315 33.1017 24.6183C33.0884 24.605 33.078 24.5891 33.0711 24.5716C33.0599 24.5297 33.065 24.4851 33.0855 24.4469C33.3681 23.7282 33.5658 23.298 33.8653 22.693C32.8566 22.257 31.895 21.719 30.9956 21.0876C30.338 20.6237 29.7167 20.1102 29.1373 19.5517C28.6978 19.9913 28.3821 20.3375 27.8985 20.9179C27.8943 20.9243 27.8888 20.9298 27.8823 20.934C27.8706 20.9483 27.8561 20.9601 27.8397 20.9687C27.8233 20.9772 27.8054 20.9824 27.7869 20.9839C27.7685 20.9854 27.7499 20.9832 27.7323 20.9774C27.7148 20.9716 27.6985 20.9623 27.6846 20.9501C27.67 20.9388 27.6582 20.9243 27.6501 20.9076C27.642 20.891 27.6378 20.8727 27.638 20.8542C27.6384 20.8322 27.6433 20.8104 27.6524 20.7903C27.6614 20.7702 27.6744 20.7521 27.6906 20.7371C28.1785 20.1508 28.5018 19.8037 28.943 19.354C27.6002 18.0018 26.4811 16.4445 25.6278 14.7406C25.0271 15.0172 24.5884 15.2285 23.8484 15.6476C23.8109 15.6714 23.7655 15.6796 23.722 15.6706C23.704 15.6661 23.6872 15.6578 23.6727 15.6463C23.6582 15.6347 23.6463 15.6201 23.638 15.6035C23.6242 15.5782 23.619 15.5491 23.6233 15.5206C23.6276 15.4921 23.6411 15.4658 23.6618 15.4457C23.6783 15.4298 23.6972 15.4166 23.7178 15.4067C24.4628 14.9824 24.9193 14.7652 25.5065 14.4953C25.1014 13.6694 24.7505 12.8179 24.456 11.9464C24.3482 11.6299 24.2473 11.3066 24.1539 10.9841L24.142 10.9519C24.1286 10.9225 24.1205 10.8908 24.1183 10.8586C24.1167 10.8404 24.1188 10.8222 24.1247 10.8049C24.1305 10.7877 24.1399 10.7718 24.1522 10.7584C24.1635 10.7469 24.1775 10.7384 24.1929 10.7337C24.2083 10.729 24.2247 10.7281 24.2405 10.7313C24.2652 10.7389 24.2878 10.7525 24.3061 10.7709C24.3244 10.7892 24.338 10.8117 24.3457 10.8365C24.3562 10.8615 24.3644 10.8873 24.3703 10.9137C24.3737 10.9273 24.3771 10.9409 24.3813 10.9536C24.4713 11.2675 24.5688 11.579 24.6715 11.8785C24.9636 12.7413 25.3108 13.5845 25.711 14.4029C26.1327 14.2085 26.5629 14.0227 26.9897 13.8505C27.0058 13.8445 27.0202 13.8369 27.0364 13.8293C27.0726 13.808 27.1122 13.7931 27.1535 13.7851C27.1831 13.778 27.2143 13.7806 27.2424 13.7925C27.2705 13.8044 27.2941 13.825 27.3096 13.8513C27.3209 13.8788 27.3232 13.9092 27.316 13.9381C27.3088 13.9669 27.2926 13.9927 27.2697 14.0117C27.2511 14.0298 27.2303 14.0455 27.2078 14.0584C27.1759 14.0759 27.1424 14.0901 27.1076 14.1008C27.0891 14.1071 27.071 14.1145 27.0533 14.1228C26.6393 14.2892 26.2294 14.4665 25.8332 14.6472C26.6736 16.3248 27.7752 17.8582 29.0966 19.1903L29.3002 18.9866C29.5947 18.6922 29.9001 18.3986 30.2022 18.122L30.2693 18.0549C30.2883 18.035 30.3104 18.0181 30.3346 18.0049C30.3611 17.9838 30.3945 17.9735 30.4283 17.9758C30.462 17.9782 30.4937 17.9931 30.517 18.0176C30.551 18.06 30.5628 18.1415 30.4848 18.2365L30.4585 18.2628C30.4415 18.2798 30.4245 18.2968 30.4076 18.3137L30.366 18.3553C30.069 18.6285 29.7771 18.9068 29.4988 19.1852L29.2994 19.3846C29.8702 19.9346 30.482 20.4404 31.1297 20.8975C32.0214 21.5204 32.9741 22.0512 33.9731 22.4817L34.0087 22.4121C34.2166 21.9921 34.4372 21.5746 34.6621 21.1699C34.6703 21.155 34.6776 21.1397 34.6842 21.124C34.6995 21.0855 34.721 21.0497 34.7478 21.018C34.8072 20.9586 34.8742 20.9459 34.9243 20.9789C34.9743 21.012 35.0057 21.0825 34.9608 21.1953C34.9467 21.229 34.9297 21.2614 34.9099 21.2921L34.881 21.343C34.6561 21.7375 34.4483 22.1423 34.2497 22.5394L34.2259 22.5886C35.226 22.9995 36.2604 23.3212 37.3171 23.55L37.3519 23.5559C37.3817 23.559 37.411 23.5656 37.4393 23.5754C37.4603 23.5838 37.479 23.5971 37.4938 23.6143C37.5086 23.6314 37.519 23.6518 37.5242 23.6739C37.5283 23.6916 37.5281 23.71 37.5235 23.7276C37.519 23.7452 37.5101 23.7614 37.4979 23.7749Z" fill="white"/>
<path d="M34.8284 21.3142C34.857 21.2685 34.8828 21.2212 34.9057 21.1725C34.9583 21.0401 34.8743 20.9714 34.792 21.0588C34.76 21.1028 34.7337 21.1507 34.7139 21.2013C34.4933 21.5916 34.2752 22.0083 34.0614 22.4393L34.0003 22.5598C32.9791 22.1231 32.006 21.5817 31.0966 20.9442C30.4303 20.474 29.8018 19.9523 29.2171 19.3838L29.3512 19.2497C29.6796 18.9213 29.9995 18.6014 30.3262 18.3104C30.3643 18.2722 30.4093 18.2408 30.4399 18.1967C30.5315 18.0864 30.4713 17.9956 30.3686 18.0524C30.3258 18.0857 30.2873 18.1242 30.254 18.167C29.9231 18.4708 29.5845 18.7957 29.246 19.1377L29.1077 19.276C27.7482 17.9117 26.6186 16.3363 25.7628 14.6108L25.7967 14.5955C26.2176 14.4009 26.6319 14.2225 27.0398 14.0601C27.089 14.038 27.1433 14.0245 27.19 13.9982C27.3139 13.9269 27.2893 13.8208 27.1773 13.8412C27.1251 13.8562 27.0747 13.877 27.0271 13.9031C26.6105 14.072 26.1794 14.257 25.7416 14.4572L25.6974 14.4776C25.2847 13.64 24.9273 12.7764 24.6274 11.8921C24.5197 11.5773 24.4238 11.2676 24.3372 10.9655C24.3245 10.929 24.3186 10.8892 24.3042 10.8544C24.2626 10.7602 24.1845 10.7704 24.1871 10.8544C24.1942 10.8925 24.2053 10.9297 24.2201 10.9655C24.3101 11.2761 24.4102 11.5968 24.5214 11.9252C24.8212 12.8149 25.1797 13.6838 25.5948 14.5259C24.9643 14.808 24.3483 15.1215 23.7492 15.4653C23.7492 15.4653 23.6601 15.5018 23.6949 15.5807C23.7297 15.6596 23.8239 15.601 23.8239 15.601C24.5808 15.17 25.0135 14.9646 25.6601 14.6677C26.523 16.4038 27.6618 17.9885 29.0321 19.36C28.5824 19.8097 28.2557 20.1619 27.7398 20.783C27.7398 20.783 27.6728 20.85 27.7322 20.906C27.7916 20.962 27.8603 20.8797 27.8603 20.8797C28.3745 20.2603 28.7004 19.9158 29.1433 19.4661C29.7331 20.0386 30.3666 20.5642 31.0381 21.0384C31.9517 21.68 32.9296 22.2246 33.9562 22.6633C33.66 23.2598 33.4521 23.6985 33.1467 24.4758C33.1467 24.4758 33.1017 24.5598 33.1781 24.5954C33.2544 24.6311 33.2867 24.5343 33.2867 24.5343C33.593 23.7579 33.7975 23.3243 34.0945 22.727C35.1318 23.1601 36.207 23.4967 37.3061 23.7325C37.3418 23.746 37.3793 23.7543 37.4173 23.7571C37.4818 23.7554 37.4792 23.668 37.4148 23.6425C37.3777 23.6323 37.34 23.6246 37.3019 23.6196C36.2222 23.3826 35.1663 23.0481 34.1471 22.6201L34.1997 22.5148C34.4033 22.0957 34.6155 21.6969 34.8284 21.3142Z" fill="white"/>
<path opacity="0.1" d="M14.4432 33.8385C17.142 36.5428 20.7743 38.1102 24.5933 38.2186L24.7154 38.2203C26.7414 38.2735 28.7568 37.9123 30.6382 37.1588C32.5196 36.4053 34.2272 35.2755 35.6564 33.8385L33.4867 31.6688C31.7599 33.4053 29.5359 34.5617 27.1227 34.9781C27.0005 34.4316 26.8583 33.8979 26.6959 33.3769C26.7977 33.3328 26.8987 33.2878 26.998 33.2445C27.2552 33.1557 27.4916 33.0151 27.6923 32.8313C27.893 32.6475 28.0539 32.4245 28.165 32.1761C28.2762 31.9276 28.3351 31.659 28.3383 31.3869C28.3414 31.1147 28.2887 30.8448 28.1834 30.5939C28.078 30.3429 27.9223 30.1162 27.7259 29.9279C27.5295 29.7395 27.2965 29.5934 27.0413 29.4987C26.7862 29.4039 26.5143 29.3625 26.2426 29.3771C25.9708 29.3916 25.7049 29.4617 25.4613 29.5831L25.1321 29.7257C24.8478 29.2208 24.5389 28.7321 24.2097 28.262C24.0587 28.0482 23.9042 27.8411 23.7515 27.6341C23.7931 27.5925 23.8364 27.5492 23.8805 27.5187C24.0804 27.3479 24.2444 27.1392 24.3632 26.9047C24.4819 26.6702 24.553 26.4144 24.5723 26.1523C24.5917 25.8901 24.5588 25.6267 24.4758 25.3773C24.3927 25.1279 24.261 24.8974 24.0884 24.6992C23.9157 24.5009 23.7055 24.3389 23.4698 24.2224C23.2342 24.1059 22.9778 24.0373 22.7154 24.0204C22.4531 24.0036 22.19 24.039 21.9414 24.1244C21.6928 24.2099 21.4636 24.3437 21.267 24.5183L20.9743 24.7788C20.3112 24.2365 19.6134 23.7381 18.8852 23.2871C18.9395 23.1835 18.9938 23.0783 19.0498 22.9765C19.2733 22.5681 19.3465 22.0944 19.2569 21.6376C19.1672 21.1808 18.9203 20.7698 18.5591 20.4762C18.1979 20.1825 17.7452 20.0248 17.2797 20.0303C16.8142 20.0358 16.3654 20.2043 16.0112 20.5064C15.8195 20.6676 15.6605 20.864 15.5429 21.0851C15.4673 21.2234 15.3944 21.3626 15.3231 21.5035C14.9582 21.3592 14.6103 21.2336 14.276 21.1199C13.9756 21.0181 13.6702 20.9231 13.3706 20.8374C13.831 18.5473 14.9592 16.4448 16.6128 14.795L14.4432 12.6253C13.0554 14.0068 11.9536 15.6482 11.2007 17.4558C10.4479 19.2634 10.0587 21.2017 10.0554 23.1598L10.0563 23.3168C10.0596 25.2729 10.4488 27.2091 11.2016 29.0146C11.9544 30.8201 13.0559 32.4594 14.4432 33.8385ZM21.8194 34.6726C21.8534 34.6947 21.8873 34.7167 21.9238 34.738C19.5842 34.1077 17.4929 32.7777 15.9301 30.9261C14.3672 29.0745 13.4073 26.7897 13.1789 24.3774C13.4125 24.4583 13.6535 24.5454 13.9018 24.6388C13.8514 24.7793 13.8139 24.9242 13.7898 25.0715C13.7498 25.3449 13.7671 25.6235 13.8405 25.8898C13.914 26.1561 14.0421 26.4042 14.2166 26.6184C14.4177 26.8663 14.6764 27.0614 14.9701 27.1865C15.2638 27.3116 15.5837 27.363 15.9018 27.3362C16.3177 27.303 16.7127 27.1401 17.0312 26.8704C17.1808 26.7425 17.3122 26.5946 17.4215 26.4309C17.7909 26.6724 18.1558 26.9355 18.5161 27.22C18.4029 27.3467 18.3034 27.4849 18.2191 27.6324C18.0852 27.874 18.0029 28.1407 17.9773 28.4157C17.9517 28.6907 17.9835 28.968 18.0706 29.2302C18.1723 29.5332 18.3462 29.8071 18.5772 30.028C18.8083 30.249 19.0896 30.4106 19.3969 30.4987C19.7979 30.6122 20.2244 30.598 20.6171 30.458C20.8533 30.3739 21.0728 30.2486 21.2653 30.088L21.2798 30.0736C21.3188 30.1262 21.3578 30.1805 21.3968 30.2348C21.6293 30.564 21.8449 30.9052 22.0502 31.2564C21.8872 31.3483 21.7342 31.4569 21.5937 31.5806C21.3912 31.7687 21.23 31.9969 21.1203 32.2506C21.0106 32.5043 20.9548 32.7781 20.9565 33.0545C20.958 33.374 21.0374 33.6883 21.1878 33.9703C21.3382 34.2522 21.555 34.4933 21.8194 34.6726ZM23.5708 34.9204C23.5861 34.9696 23.5996 35.0188 23.6124 35.0689C23.4622 35.0494 23.3145 35.0273 23.1686 35.0035C23.3051 34.9893 23.4398 34.9615 23.5708 34.9204Z" fill="#1DC5FF"/>
<path d="M23.6694 33.4897C23.627 33.5152 23.3453 33.6747 23.2647 33.7061C23.1447 33.7574 23.0139 33.7782 22.8839 33.7666C22.7539 33.7551 22.6288 33.7115 22.5197 33.6399C22.4237 33.5744 22.345 33.4866 22.2904 33.384C22.2357 33.2815 22.2067 33.1672 22.2057 33.051C22.2063 32.9461 22.2286 32.8425 22.2713 32.7467C22.3139 32.6509 22.376 32.565 22.4535 32.4944C22.6058 32.3805 22.7693 32.2824 22.9414 32.2016C23.1756 32.0704 23.4135 31.9423 23.655 31.8173C23.2774 31.0051 22.8296 30.2275 22.3169 29.4931C22.0077 29.0542 21.6752 28.6321 21.3207 28.2288C21.1459 28.4036 20.9762 28.5869 20.8031 28.7753L20.7878 28.7906C20.7531 28.8253 20.5392 29.0646 20.4713 29.1223C20.3737 29.209 20.2561 29.2701 20.1291 29.3003C20.002 29.3305 19.8695 29.3288 19.7433 29.2954C19.6316 29.2633 19.5294 29.2046 19.4453 29.1244C19.3612 29.0441 19.2978 28.9447 19.2605 28.8347C19.2281 28.7349 19.2167 28.6294 19.2271 28.525C19.2374 28.4206 19.2693 28.3195 19.3207 28.228C19.4292 28.0717 19.5541 27.9275 19.6932 27.7978C19.8867 27.5856 20.087 27.3769 20.2898 27.169C19.2492 26.1983 18.0926 25.3598 16.8464 24.6726C16.7675 24.8585 16.6886 25.046 16.6105 25.2378L16.6037 25.2581C16.5868 25.3039 16.468 25.6026 16.4239 25.6807C16.3626 25.7954 16.2739 25.8931 16.1656 25.9652C16.0574 26.0373 15.933 26.0815 15.8036 26.0939C15.6876 26.1038 15.571 26.0852 15.4639 26.0396C15.3568 25.9941 15.2625 25.923 15.1893 25.8326C15.1238 25.7508 15.0761 25.6563 15.0491 25.555C15.0221 25.4538 15.0163 25.3481 15.0323 25.2446C15.0781 25.0595 15.1439 24.88 15.2283 24.7091C15.3225 24.4741 15.4217 24.2373 15.5244 24.0023C14.8647 23.6984 14.1895 23.4293 13.5015 23.1962C13.2079 23.0961 12.9022 23.0002 12.5843 22.9086L12.569 22.9052C12.5196 22.8936 12.4714 22.8777 12.4247 22.8576C12.3382 22.8222 12.2617 22.7659 12.202 22.6939C12.1424 22.6218 12.1014 22.5361 12.0828 22.4444C12.0676 22.3624 12.0726 22.2779 12.0972 22.1983C12.1219 22.1186 12.1656 22.0461 12.2245 21.9871C12.278 21.9342 12.3419 21.8932 12.4122 21.8664C12.4825 21.8397 12.5576 21.8279 12.6326 21.8318C12.7096 21.8362 12.7852 21.8543 12.8558 21.8852C13.1825 21.9794 13.51 22.0795 13.8392 22.1899C14.561 22.4348 15.2696 22.7169 15.9623 23.035C16.1702 22.598 16.3967 22.144 16.6411 21.6773C16.7367 21.509 16.8945 21.3849 17.0806 21.3317C17.2668 21.2785 17.4663 21.3004 17.6365 21.3927C17.8066 21.4851 17.9337 21.6405 17.9905 21.8256C18.0473 22.0106 18.0292 22.2106 17.9402 22.3825C17.6975 22.8356 17.4769 23.2768 17.2766 23.6994C18.6414 24.4431 19.9057 25.3578 21.039 26.4215C21.3665 26.1075 21.7153 25.7859 22.0861 25.4626C22.1595 25.3988 22.2448 25.35 22.3371 25.3191C22.4294 25.2882 22.5268 25.2758 22.6239 25.2826C22.721 25.2894 22.8158 25.3152 22.9028 25.3586C22.9899 25.402 23.0676 25.4622 23.1315 25.5356C23.1953 25.609 23.2441 25.6943 23.275 25.7866C23.3059 25.8789 23.3183 25.9763 23.3115 26.0734C23.3047 26.1705 23.2789 26.2653 23.2355 26.3524C23.1921 26.4394 23.1319 26.5171 23.0585 26.581C22.7106 26.8865 22.3814 27.1885 22.0734 27.4847C22.4698 27.9314 22.8409 28.3999 23.1849 28.8881C23.7293 29.6632 24.2054 30.4839 24.6079 31.3412C25.0322 31.1376 25.4805 30.9353 25.9528 30.7345C26.1339 30.659 26.3375 30.6585 26.5189 30.7332C26.7003 30.8078 26.8447 30.9514 26.9202 31.1325C26.9957 31.3135 26.9961 31.5172 26.9215 31.6986C26.8469 31.88 26.7032 32.0243 26.5222 32.0998C26.0462 32.3026 25.6075 32.5054 25.1832 32.7057C25.4991 33.5572 25.7535 34.4303 25.9443 35.3183L25.9503 35.3242C25.9748 35.3984 25.9872 35.476 25.9868 35.5542C25.9855 35.6312 25.9672 35.7071 25.9331 35.7762C25.899 35.8453 25.85 35.906 25.7896 35.9539C25.7292 36.0018 25.659 36.0357 25.5839 36.0532C25.5088 36.0706 25.4308 36.0712 25.3555 36.0548C25.2656 36.0358 25.1819 35.9947 25.1119 35.9353C25.0418 35.8759 24.9876 35.8001 24.9541 35.7145C24.9328 35.6573 24.9183 35.5978 24.9108 35.5372C24.7381 34.7411 24.5119 33.9575 24.2337 33.1919C24.0555 33.2869 23.8739 33.3819 23.6957 33.4838L23.6694 33.4897Z" fill="#1DC5FF"/>
<path d="M22.5069 33.0468C22.508 32.9876 22.5213 32.9292 22.546 32.8753C22.5707 32.8214 22.6062 32.7732 22.6503 32.7337C22.7038 32.6856 22.7653 32.6471 22.8319 32.62L22.8574 32.6081C23.2401 32.3952 23.6346 32.1873 24.03 31.9887C23.6249 31.0873 23.1351 30.2265 22.5672 29.4177C22.1693 28.8518 21.733 28.314 21.2613 27.808C20.9643 28.105 20.6631 28.4147 20.3644 28.7388L20.3356 28.7677C20.3019 28.8074 20.265 28.8443 20.2252 28.878C20.1694 28.9292 20.1018 28.966 20.0284 28.9849C19.955 29.0038 19.8781 29.0044 19.8044 28.9866C19.7439 28.9696 19.6886 28.9381 19.6432 28.8947C19.5978 28.8514 19.5637 28.7976 19.5439 28.738C19.5259 28.6814 19.52 28.6217 19.5264 28.5627C19.5329 28.5036 19.5515 28.4466 19.5812 28.3952C19.6174 28.3329 19.6636 28.277 19.7178 28.2297C19.7251 28.2241 19.7317 28.2175 19.7373 28.2102C20.0437 27.8767 20.3627 27.5458 20.6885 27.2234C19.4805 26.0646 18.113 25.0846 16.6275 24.3129C16.4756 24.6498 16.3263 24.996 16.182 25.3541L16.1676 25.3922C16.1506 25.4414 16.1296 25.4891 16.1048 25.5348C16.0699 25.6026 16.0188 25.6607 15.956 25.7039C15.8933 25.7471 15.8208 25.7742 15.745 25.7826C15.6828 25.788 15.6201 25.778 15.5626 25.7536C15.505 25.7292 15.4544 25.6911 15.4149 25.6426C15.3797 25.5955 15.3545 25.5417 15.3407 25.4845C15.327 25.4273 15.3251 25.3679 15.3352 25.3099C15.3464 25.2387 15.3703 25.17 15.4056 25.1071L15.4183 25.0825C15.5702 24.7049 15.7348 24.3248 15.9037 23.9489C15.1669 23.5994 14.4104 23.2928 13.6381 23.0308C13.3403 22.9298 13.0314 22.8331 12.7149 22.7423C12.7056 22.7387 12.6959 22.7359 12.6861 22.7338C12.6497 22.7256 12.6142 22.714 12.58 22.699C12.5291 22.6794 12.4838 22.6474 12.4482 22.6059C12.4127 22.5644 12.388 22.5148 12.3764 22.4614C12.3681 22.4173 12.3708 22.3718 12.3841 22.3289C12.3974 22.2861 12.4209 22.2471 12.4527 22.2154C12.4833 22.1858 12.5197 22.163 12.5596 22.1482C12.5994 22.1335 12.6419 22.1271 12.6844 22.1297C12.7361 22.132 12.787 22.1438 12.8346 22.1644C12.8406 22.1672 12.8468 22.1695 12.8532 22.1712C13.1757 22.2646 13.5041 22.3689 13.8231 22.4759C14.6165 22.7439 15.3934 23.0584 16.1498 23.4177C16.395 22.8925 16.6674 22.3503 16.9745 21.7902C17.0263 21.6951 17.1138 21.6243 17.2177 21.5936C17.3216 21.5629 17.4334 21.5747 17.5286 21.6265C17.6238 21.6782 17.6946 21.7657 17.7253 21.8696C17.756 21.9735 17.7442 22.0854 17.6924 22.1806C17.3912 22.7279 17.1171 23.265 16.8761 23.7775C18.4248 24.5824 19.8492 25.6067 21.1052 26.8186C21.4913 26.4495 21.9079 26.0702 22.3525 25.6901C22.3928 25.6534 22.44 25.6251 22.4913 25.6069C22.5427 25.5888 22.5971 25.581 22.6515 25.5843C22.7059 25.5875 22.7591 25.6016 22.8079 25.6257C22.8568 25.6498 22.9003 25.6834 22.936 25.7246C22.9716 25.7658 22.9986 25.8137 23.0155 25.8655C23.0323 25.9173 23.0386 25.972 23.0339 26.0263C23.0293 26.0805 23.0139 26.1334 22.9885 26.1816C22.9631 26.2298 22.9283 26.2724 22.8862 26.307C22.4535 26.6769 22.0496 27.0452 21.6745 27.4033C22.1689 27.9332 22.6264 28.4962 23.0441 29.0884C23.6287 29.9203 24.1343 30.8049 24.5544 31.7308C25.0483 31.4949 25.5752 31.2598 26.1336 31.0307C26.183 31.0101 26.2361 30.9994 26.2897 30.9993C26.3433 30.9992 26.3964 31.0097 26.4459 31.0301C26.4955 31.0505 26.5405 31.0804 26.5785 31.1183C26.6165 31.1561 26.6467 31.201 26.6673 31.2505C26.6879 31.3 26.6986 31.353 26.6987 31.4066C26.6988 31.4602 26.6883 31.5133 26.6679 31.5629C26.6475 31.6124 26.6176 31.6575 26.5797 31.6955C26.5419 31.7334 26.497 31.7636 26.4475 31.7842C25.8909 32.0116 25.3656 32.2484 24.8743 32.4834C25.2535 33.44 25.5521 34.4266 25.767 35.4329L25.7729 35.4524C25.7899 35.503 25.7988 35.556 25.7992 35.6094C25.7986 35.6835 25.7691 35.7544 25.7169 35.8071C25.6826 35.8405 25.6406 35.865 25.5945 35.8781C25.5484 35.8913 25.4998 35.8929 25.453 35.8826C25.402 35.8717 25.3546 35.8482 25.315 35.8143C25.2754 35.7803 25.245 35.737 25.2265 35.6883C25.2111 35.6485 25.2008 35.6068 25.1959 35.5644L25.1917 35.5398C24.9862 34.586 24.7039 33.6504 24.3474 32.7422C23.9995 32.9204 23.6448 33.1054 23.2808 33.2997L23.2469 33.32C23.2024 33.3482 23.1556 33.3724 23.1069 33.3922C23.0372 33.4229 22.961 33.4359 22.8851 33.4301C22.8091 33.4243 22.7358 33.3999 22.6716 33.3591C22.6211 33.3241 22.5798 33.2774 22.5511 33.2231C22.5225 33.1687 22.5073 33.1083 22.5069 33.0468Z" fill="#00F9FF"/>
<path d="M25.5931 35.6798C25.5796 35.6923 25.5633 35.7014 25.5455 35.7061C25.5278 35.7108 25.5091 35.7111 25.4912 35.7069C25.4684 35.7021 25.4471 35.6916 25.4294 35.6765C25.4116 35.6614 25.3978 35.6421 25.3894 35.6204C25.3797 35.5923 25.3729 35.5633 25.369 35.5338L25.3631 35.4973C25.1343 34.441 24.8129 33.4069 24.4026 32.407L24.3534 32.4307C23.9554 32.6284 23.5532 32.8406 23.1586 33.0603L23.106 33.0909C23.0754 33.1107 23.043 33.1278 23.0093 33.1418C22.8964 33.1868 22.8218 33.1494 22.7929 33.1053C22.7775 33.0773 22.7724 33.0448 22.7786 33.0134C22.7848 32.9821 22.8019 32.9539 22.8269 32.9339C22.8596 32.904 22.8976 32.8804 22.9389 32.8643C22.955 32.8567 22.9711 32.8508 22.9864 32.8423C23.3894 32.6174 23.8069 32.3968 24.2269 32.1889L24.2965 32.1533C23.8647 31.1553 23.3328 30.2038 22.7089 29.3132C22.2518 28.6656 21.746 28.0538 21.196 27.483L20.9974 27.6815C20.72 27.959 20.4416 28.2509 20.1676 28.5487L20.1251 28.5911C20.1082 28.6081 20.0912 28.6251 20.0742 28.6421L20.0479 28.6684C19.9554 28.7456 19.8714 28.7346 19.829 28.7006C19.8045 28.6773 19.7896 28.6456 19.7873 28.6119C19.7849 28.5781 19.7952 28.5447 19.8163 28.5182C19.8295 28.494 19.8464 28.4719 19.8663 28.4528L19.9334 28.3858C20.2117 28.082 20.5036 27.7783 20.798 27.4838L21.0017 27.2802C19.6696 25.9587 18.1362 24.8572 16.4586 24.0167C16.2779 24.413 16.1006 24.8228 15.9343 25.2352L15.9122 25.2912C15.9015 25.326 15.8873 25.3595 15.8698 25.3914C15.857 25.414 15.8413 25.4348 15.8231 25.4533C15.8041 25.4762 15.7783 25.4924 15.7495 25.4996C15.7206 25.5068 15.6902 25.5045 15.6627 25.4932C15.6365 25.4776 15.6159 25.4541 15.604 25.426C15.592 25.3979 15.5894 25.3667 15.5965 25.337C15.6056 25.2941 15.622 25.2531 15.6449 25.2157C15.6568 25.2038 15.6602 25.1852 15.6661 25.169C15.8392 24.7414 16.0242 24.312 16.2185 23.8903C15.4003 23.4903 14.5574 23.1429 13.695 22.85C13.3946 22.7482 13.0832 22.6506 12.7709 22.5607L12.7294 22.5496C12.7029 22.5437 12.6771 22.5355 12.6522 22.525C12.6274 22.5173 12.6049 22.5038 12.5865 22.4854C12.5682 22.4671 12.5546 22.4446 12.5469 22.4198C12.5438 22.404 12.5446 22.3877 12.5494 22.3723C12.5541 22.3568 12.5626 22.3429 12.5741 22.3316C12.5875 22.3192 12.6033 22.3099 12.6206 22.304C12.6378 22.2982 12.6561 22.296 12.6742 22.2976C12.7065 22.2999 12.7381 22.3079 12.7676 22.3214C12.7783 22.3258 12.7894 22.3295 12.8006 22.3324C13.1222 22.4317 13.4438 22.531 13.7646 22.6379C14.6372 22.9321 15.4895 23.2833 16.3161 23.6892C16.5817 23.1063 16.8015 22.6472 17.2334 21.8912C17.2424 21.8729 17.2545 21.8563 17.269 21.842C17.2854 21.8246 17.3062 21.8119 17.3292 21.8053C17.3521 21.7986 17.3764 21.7982 17.3996 21.8041C17.4228 21.81 17.444 21.8219 17.461 21.8387C17.478 21.8555 17.4902 21.8766 17.4964 21.8997C17.5053 21.9445 17.4965 21.991 17.4718 22.0295C17.0509 22.7711 16.843 23.2047 16.5664 23.8055C18.2704 24.6587 19.8277 25.7778 21.1799 27.1207C21.6296 26.6794 21.9766 26.3561 22.5655 25.8657C22.5949 25.8373 22.6341 25.8212 22.675 25.8207C22.693 25.8209 22.7108 25.8249 22.7272 25.8325C22.7436 25.8401 22.7582 25.8511 22.77 25.8648C22.7823 25.8789 22.7918 25.8953 22.7977 25.913C22.8036 25.9308 22.8059 25.9495 22.8045 25.9682C22.8031 25.9868 22.798 26.005 22.7894 26.0217C22.7809 26.0383 22.7691 26.0531 22.7547 26.0651C22.7494 26.0716 22.7435 26.0776 22.7369 26.0829C22.1582 26.5649 21.8154 26.8839 21.3725 27.3201C21.931 27.8995 22.4444 28.5207 22.9083 29.1783C23.5398 30.0777 24.0777 31.0393 24.5137 32.0481C25.1187 31.7485 25.5464 31.5534 26.2753 31.264C26.3119 31.246 26.3539 31.2421 26.3932 31.253C26.4104 31.2596 26.4259 31.2698 26.439 31.2828C26.452 31.2958 26.4621 31.3113 26.4687 31.3285C26.4801 31.3523 26.484 31.3791 26.4797 31.4052C26.4755 31.4313 26.4633 31.4554 26.445 31.4744C26.4244 31.4944 26.3998 31.5097 26.3729 31.5194C25.5947 31.8257 25.1484 32.0379 24.624 32.2975C25.0468 33.3236 25.3763 34.3858 25.6083 35.471L25.6151 35.4948C25.6276 35.5276 25.6342 35.5623 25.6346 35.5974C25.6343 35.6134 25.6304 35.6291 25.6232 35.6433C25.616 35.6576 25.6057 35.67 25.5931 35.6798Z" fill="white"/>
<path d="M23.1323 33.0102C23.0866 33.0388 23.0393 33.0645 22.9906 33.0874C22.8582 33.14 22.7895 33.056 22.8769 32.9737C22.9209 32.9417 22.9688 32.9155 23.0194 32.8957C23.4098 32.675 23.8264 32.457 24.2574 32.2431L24.3779 32.182C23.9412 31.1609 23.3998 30.1878 22.7623 29.2784C22.2921 28.612 21.7704 27.9836 21.2019 27.3989L21.067 27.5338C20.7386 27.8622 20.4187 28.1821 20.1276 28.5088C20.0895 28.547 20.0581 28.5919 20.0139 28.6225C19.9036 28.7141 19.8128 28.6539 19.8697 28.5512C19.903 28.5084 19.9415 28.4699 19.9842 28.4366C20.288 28.1057 20.613 27.7672 20.955 27.4286L21.0933 27.2903C19.7293 25.9305 18.1541 24.8007 16.4289 23.9445L16.4136 23.9785C16.219 24.3994 16.0406 24.8137 15.8782 25.2216C15.8562 25.2708 15.8426 25.3251 15.8163 25.3718C15.745 25.4956 15.6389 25.471 15.6593 25.359C15.6743 25.3068 15.6951 25.2564 15.7212 25.2088C15.8901 24.7922 16.0751 24.3612 16.2753 23.9233L16.2957 23.8792C15.4581 23.4665 14.5945 23.1091 13.7102 22.8092C13.3954 22.7014 13.0857 22.6056 12.7836 22.519C12.7471 22.5063 12.7073 22.5003 12.6725 22.4859C12.5783 22.4443 12.5885 22.3663 12.6725 22.3688C12.7106 22.3759 12.7478 22.387 12.7836 22.4019C13.0942 22.4919 13.4149 22.592 13.7433 22.7031C14.6331 23.0029 15.5019 23.3615 16.3441 23.7765C16.6261 23.146 16.9396 22.5301 17.2834 21.931C17.2834 21.931 17.3199 21.8419 17.3988 21.8767C17.4777 21.9115 17.4191 22.0057 17.4191 22.0057C16.9881 22.7625 16.7827 23.1953 16.4858 23.8419C18.2219 24.7048 19.8066 25.8436 21.1781 27.2139C21.6278 26.7642 21.98 26.4375 22.6011 25.9216C22.6011 25.9216 22.6681 25.8546 22.7241 25.914C22.7801 25.9734 22.6978 26.0421 22.6978 26.0421C22.0784 26.5563 21.7339 26.8821 21.2842 27.3251C21.8567 27.9149 22.3824 28.5484 22.8565 29.2198C23.4981 30.1334 24.0427 31.1114 24.4814 32.1379C25.078 31.8418 25.5166 31.6339 26.2939 31.3284C26.2939 31.3284 26.3779 31.2835 26.4135 31.3598C26.4492 31.4362 26.3524 31.4684 26.3524 31.4684C25.576 31.7748 25.1424 31.9793 24.5451 32.2762C24.9783 33.3136 25.3148 34.3887 25.5506 35.4879C25.5641 35.5236 25.5724 35.561 25.5752 35.5991C25.5735 35.6636 25.4861 35.661 25.4606 35.5965C25.4504 35.5595 25.4427 35.5218 25.4377 35.4837C25.2007 34.404 24.8662 33.348 24.4382 32.3288L24.3329 32.3815C23.9138 32.5851 23.515 32.7972 23.1323 33.0102Z" fill="white"/>
</g>
<defs>
<filter id="filter0_f_20_635" x="0.43689" y="0.662598" width="48.3849" height="48.3849" filterUnits="userSpaceOnUse" color-interpolation-filters="sRGB">
<feFlood flood-opacity="0" result="BackgroundImageFix"/>
<feBlend mode="normal" in="SourceGraphic" in2="BackgroundImageFix" result="shape"/>
<feGaussianBlur stdDeviation="9" result="effect1_foregroundBlur_20_635"/>
</filter>
<filter id="filter1_f_20_635" x="10.3809" y="0.239014" width="34.5787" height="34.5787" filterUnits="userSpaceOnUse" color-interpolation-filters="sRGB">
<feFlood flood-opacity="0" result="BackgroundImageFix"/>
<feBlend mode="normal" in="SourceGraphic" in2="BackgroundImageFix" result="shape"/>
<feGaussianBlur stdDeviation="6" result="effect1_foregroundBlur_20_635"/>
</filter>
<filter id="filter2_d_20_635" x="6.05542" y="4.23743" width="37.9872" height="37.988" filterUnits="userSpaceOnUse" color-interpolation-filters="sRGB">
<feFlood flood-opacity="0" result="BackgroundImageFix"/>
<feColorMatrix in="SourceAlpha" type="matrix" values="0 0 0 0 0 0 0 0 0 0 0 0 0 0 0 0 0 0 127 0" result="hardAlpha"/>
<feOffset/>
<feGaussianBlur stdDeviation="2"/>
<feComposite in2="hardAlpha" operator="out"/>
<feColorMatrix type="matrix" values="0 0 0 0 0.0666667 0 0 0 0 0.832 0 0 0 0 1 0 0 0 0.14 0"/>
<feBlend mode="normal" in2="BackgroundImageFix" result="effect1_dropShadow_20_635"/>
<feBlend mode="normal" in="SourceGraphic" in2="effect1_dropShadow_20_635" result="shape"/>
</filter>
</defs>
</svg>
